<svg width="41" height="49" viewBox="0 0 41 49" fill="none" xmlns="http://www.w3.org/2000/svg">
<g filter="url(#filter0_d_1741_2893)">
<path opacity="0.2" d="M34.6216 15.6525C34.6235 17.8115 34.1339 19.9427 33.1898 21.8845C32.2458 23.8262 30.8721 25.5276 29.173 26.8596C28.654 27.2618 28.2335 27.7768 27.9431 28.3656C27.6527 28.9544 27.5001 29.6016 27.4969 30.2581V31.3268C27.4969 31.7047 27.3467 32.0672 27.0795 32.3344C26.8123 32.6016 26.4499 32.7517 26.0719 32.7517H14.6724C14.2945 32.7517 13.9321 32.6016 13.6648 32.3344C13.3976 32.0672 13.2475 31.7047 13.2475 31.3268V30.2581C13.2468 29.6052 13.0972 28.961 12.8102 28.3746C12.5232 27.7882 12.1062 27.2749 11.591 26.8739C9.89704 25.5506 8.52499 23.8606 7.5779 21.931C6.63081 20.0013 6.13331 17.8821 6.12278 15.7326C6.08003 8.00945 12.307 1.58119 20.0284 1.40307C21.9284 1.35722 23.8184 1.69192 25.587 2.38746C27.3557 3.083 28.9674 4.12534 30.3272 5.45311C31.687 6.78088 32.7675 8.36726 33.505 10.1189C34.2425 11.8705 34.6221 13.7519 34.6216 15.6525Z" fill="#CDEE2D" style="fill:#CDEE2D;fill:color(display-p3 0.8039 0.9333 0.1765);fill-opacity:1;"/>
<path d="M28.899 39.1527C28.899 39.5306 28.7489 39.8931 28.4817 40.1603C28.2144 40.4275 27.852 40.5777 27.4741 40.5777H13.2247C12.8468 40.5777 12.4843 40.4275 12.2171 40.1603C11.9499 39.8931 11.7997 39.5306 11.7997 39.1527C11.7997 38.7748 11.9499 38.4124 12.2171 38.1451C12.4843 37.8779 12.8468 37.7278 13.2247 37.7278H27.4741C27.852 37.7278 28.2144 37.8779 28.4817 38.1451C28.7489 38.4124 28.899 38.7748 28.899 39.1527ZM36.0237 16.3537C36.0299 18.7291 35.4932 21.0746 34.4548 23.2111C33.4163 25.3475 31.9035 27.2185 30.0318 28.6812C29.6819 28.9495 29.3979 29.2942 29.2015 29.689C29.0052 30.0839 28.9017 30.5184 28.899 30.9593V32.028C28.899 32.7839 28.5988 33.5087 28.0643 34.0432C27.5298 34.5777 26.805 34.8779 26.0491 34.8779H14.6496C13.8938 34.8779 13.1689 34.5777 12.6344 34.0432C12.1 33.5087 11.7997 32.7839 11.7997 32.028V30.9593C11.7994 30.5236 11.6993 30.0938 11.5069 29.7029C11.3145 29.312 11.0351 28.9704 10.6901 28.7044C8.82304 27.2503 7.31126 25.3906 6.26915 23.2659C5.22704 21.1413 4.68192 18.8074 4.67504 16.441C4.62873 7.95189 11.4898 0.882408 19.9718 0.679354C22.0617 0.628991 24.1406 0.99721 26.0861 1.76234C28.0316 2.52747 29.8044 3.67405 31.3001 5.13459C32.7958 6.59513 33.9843 8.34013 34.7955 10.2669C35.6067 12.1936 36.0243 14.2631 36.0237 16.3537ZM33.1738 16.3537C33.1743 14.6432 32.8326 12.9498 32.1688 11.3733C31.5051 9.79684 30.5326 8.36907 29.3087 7.17407C28.0848 5.97907 26.6343 5.04098 25.0424 4.41502C23.4505 3.78907 21.7495 3.4879 20.0395 3.52923C13.0929 3.6931 7.48751 9.47658 7.52492 16.4232C7.53143 18.3586 7.97804 20.2671 8.83097 22.0045C9.6839 23.7418 10.9208 25.2624 12.4481 26.4512C13.1346 26.9849 13.6899 27.6686 14.0715 28.45C14.4531 29.2314 14.6509 30.0897 14.6496 30.9593V32.028H26.0491V30.9593C26.0511 30.0873 26.2522 29.2272 26.6372 28.4446C27.0221 27.6621 27.5807 26.9779 28.2703 26.444C29.8022 25.2468 31.0404 23.7153 31.8903 21.9666C32.7401 20.2178 33.1791 18.298 33.1738 16.3537ZM30.3044 14.6901C29.9349 12.6262 28.9419 10.7251 27.4592 9.2427C25.9765 7.76029 24.0751 6.76775 22.0112 6.39871C21.8267 6.3676 21.6378 6.37314 21.4554 6.41503C21.273 6.45691 21.1006 6.53431 20.9481 6.64281C20.7956 6.75131 20.666 6.88879 20.5666 7.04739C20.4672 7.20599 20.4001 7.3826 20.369 7.56716C20.3379 7.75171 20.3434 7.94058 20.3853 8.12299C20.4272 8.3054 20.5046 8.47778 20.6131 8.63027C20.7216 8.78277 20.859 8.9124 21.0176 9.01177C21.1762 9.11114 21.3529 9.17829 21.5374 9.2094C24.4888 9.70635 26.9932 12.2107 27.4937 15.1674C27.5501 15.4993 27.7221 15.8005 27.9793 16.0176C28.2366 16.2348 28.5624 16.3538 28.899 16.3537C28.9795 16.3532 29.0599 16.3467 29.1395 16.3341C29.5119 16.2705 29.8439 16.0616 30.0623 15.7533C30.2808 15.445 30.3678 15.0626 30.3044 14.6901Z" fill="#CDEE2D" style="fill:#CDEE2D;fill:color(display-p3 0.8039 0.9333 0.1765);fill-opacity:1;"/>
</g>
<defs>
<filter id="filter0_d_1741_2893" x="0.674805" y="0.674805" width="39.3491" height="47.9028" filterUnits="userSpaceOnUse" color-interpolation-filters="sRGB">
<feFlood flood-opacity="0" result="BackgroundImageFix"/>
<feColorMatrix in="SourceAlpha" type="matrix" values="0 0 0 0 0 0 0 0 0 0 0 0 0 0 0 0 0 0 127 0" result="hardAlpha"/>
<feOffset dy="4"/>
<feGaussianBlur stdDeviation="2"/>
<feComposite in2="hardAlpha" operator="out"/>
<feColorMatrix type="matrix" values="0 0 0 0 0 0 0 0 0 0 0 0 0 0 0 0 0 0 0.25 0"/>
<feBlend mode="normal" in2="BackgroundImageFix" result="effect1_dropShadow_1741_2893"/>
<feBlend mode="normal" in="SourceGraphic" in2="effect1_dropShadow_1741_2893" result="shape"/>
</filter>
</defs>
</svg>
