<svg width="53" height="38" viewBox="0 0 53 38" fill="none" xmlns="http://www.w3.org/2000/svg">
<g filter="url(#filter0_d_1741_2896)">
<path opacity="0.2" d="M31.1695 5.29335C31.1695 6.20633 30.9084 7.0988 30.4193 7.85791C29.9302 8.61703 29.235 9.20869 28.4217 9.55807C27.6083 9.90745 26.7133 9.99886 25.8499 9.82075C24.9864 9.64264 24.1933 9.203 23.5708 8.55742C22.9482 7.91185 22.5243 7.08934 22.3525 6.1939C22.1808 5.29847 22.2689 4.37032 22.6058 3.52684C22.9427 2.68336 23.5133 1.96242 24.2453 1.4552C24.9773 0.947976 25.8379 0.677246 26.7183 0.677246C27.8988 0.677246 29.031 1.16358 29.8658 2.02927C30.7005 2.89496 31.1695 4.06908 31.1695 5.29335ZM10.397 19.1416C9.51667 19.1416 8.65607 19.4124 7.92407 19.9196C7.19206 20.4268 6.62154 21.1478 6.28463 21.9912C5.94773 22.8347 5.85958 23.7629 6.03133 24.6583C6.20308 25.5537 6.62702 26.3763 7.24954 27.0218C7.87206 27.6674 8.66519 28.107 9.52865 28.2852C10.3921 28.4633 11.2871 28.3719 12.1005 28.0225C12.9138 27.6731 13.609 27.0814 14.0981 26.3223C14.5872 25.5632 14.8483 24.6707 14.8483 23.7577C14.8483 22.5335 14.3793 21.3594 13.5445 20.4937C12.7098 19.628 11.5776 19.1416 10.397 19.1416ZM43.0395 19.1416C42.1591 19.1416 41.2985 19.4124 40.5665 19.9196C39.8345 20.4268 39.264 21.1478 38.9271 21.9912C38.5902 22.8347 38.502 23.7629 38.6738 24.6583C38.8455 25.5537 39.2694 26.3763 39.892 27.0218C40.5145 27.6674 41.3076 28.107 42.1711 28.2852C43.0345 28.4633 43.9295 28.3719 44.7429 28.0225C45.5562 27.6731 46.2514 27.0814 46.7405 26.3223C47.2296 25.5632 47.4907 24.6707 47.4907 23.7577C47.4907 22.5335 47.0217 21.3594 46.187 20.4937C45.3522 19.628 44.22 19.1416 43.0395 19.1416Z" fill="#CDEE2D" style="fill:#CDEE2D;fill:color(display-p3 0.8039 0.9333 0.1765);fill-opacity:1;"/>
<path d="M43.8525 17.9005C42.7591 13.618 40.1321 9.89375 36.4767 7.44391H47.3371C47.7276 7.44391 48.1022 7.28767 48.3783 7.00957C48.6545 6.73146 48.8096 6.35427 48.8096 5.96097C48.8096 5.56767 48.6545 5.19048 48.3783 4.91237C48.1022 4.63427 47.7276 4.47803 47.3371 4.47803H32.4271C32.1027 3.20209 31.3658 2.07116 30.3327 1.26355C29.2995 0.455939 28.0288 0.0175781 26.7209 0.0175781C25.413 0.0175781 24.1422 0.455939 23.1091 1.26355C22.0759 2.07116 21.339 3.20209 21.0146 4.47803H6.10466C5.71411 4.47803 5.33955 4.63427 5.06339 4.91237C4.78723 5.19048 4.63208 5.56767 4.63208 5.96097C4.63208 6.35427 4.78723 6.73146 5.06339 7.00957C5.33955 7.28767 5.71411 7.44391 6.10466 7.44391H16.965C13.3096 9.89375 10.6826 13.618 9.58917 17.9005C8.17525 18.1277 6.89192 18.8657 5.97913 19.9766C5.06634 21.0875 4.5866 22.4951 4.62961 23.9364C4.67263 25.3776 5.23545 26.7537 6.21284 27.8073C7.19022 28.861 8.51526 29.5201 9.94017 29.6614C11.3651 29.8026 12.7923 29.4164 13.955 28.5749C15.1176 27.7334 15.9361 26.4943 16.2574 25.0892C16.5787 23.6841 16.3808 22.2092 15.7006 20.9404C15.0205 19.6716 13.9047 18.6957 12.562 18.1952C13.1942 16 14.3182 13.98 15.8474 12.2909C17.3767 10.6019 19.2703 9.28862 21.3827 8.45231C21.8554 9.47856 22.6095 10.3473 23.5563 10.9561C24.5031 11.5649 25.603 11.8884 26.7264 11.8884C27.8497 11.8884 28.9496 11.5649 29.8964 10.9561C30.8432 10.3473 31.5974 9.47856 32.07 8.45231C34.1804 9.29002 36.0719 10.6039 37.5991 12.2929C39.1263 13.9819 40.2486 16.0011 40.8798 18.1952C39.5364 18.694 38.4193 19.6685 37.7376 20.9365C37.0559 22.2045 36.8561 23.6791 37.1757 25.0846C37.4952 26.4901 38.3122 27.7303 39.4739 28.5732C40.6355 29.4162 42.0623 29.8042 43.4874 29.6647C44.9125 29.5252 46.2383 28.8677 47.217 27.8152C48.1957 26.7627 48.7602 25.3873 48.8049 23.9461C48.8497 22.5049 48.3716 21.0967 47.4601 19.9847C46.5487 18.8727 45.2662 18.1331 43.8525 17.9042V17.9005ZM13.4676 23.7563C13.4676 24.3428 13.2949 24.9163 12.9712 25.404C12.6476 25.8917 12.1876 26.2719 11.6495 26.4964C11.1113 26.7209 10.5192 26.7796 9.94785 26.6651C9.37654 26.5507 8.85176 26.2682 8.43987 25.8534C8.02798 25.4387 7.74748 24.9102 7.63384 24.3349C7.5202 23.7595 7.57853 23.1632 7.80144 22.6213C8.02435 22.0793 8.40184 21.6161 8.88617 21.2902C9.3705 20.9643 9.93992 20.7904 10.5224 20.7904C11.3035 20.7904 12.0526 21.1028 12.605 21.6591C13.1573 22.2153 13.4676 22.9697 13.4676 23.7563ZM26.7209 8.92685C26.1384 8.92685 25.5689 8.7529 25.0846 8.42701C24.6003 8.10112 24.2228 7.63791 23.9999 7.09596C23.777 6.55402 23.7186 5.95768 23.8323 5.38236C23.9459 4.80703 24.2264 4.27856 24.6383 3.86378C25.0502 3.44899 25.575 3.16652 26.1463 3.05208C26.7176 2.93764 27.3098 2.99637 27.8479 3.22085C28.3861 3.44533 28.8461 3.82548 29.1697 4.31322C29.4933 4.80095 29.666 5.37437 29.666 5.96097C29.666 6.74757 29.3557 7.50195 28.8034 8.05816C28.2511 8.61438 27.502 8.92685 26.7209 8.92685ZM42.9193 26.7221C42.3368 26.7221 41.7674 26.5482 41.283 26.2223C40.7987 25.8964 40.4212 25.4332 40.1983 24.8912C39.9754 24.3493 39.9171 23.753 40.0307 23.1776C40.1444 22.6023 40.4249 22.0738 40.8367 21.6591C41.2486 21.2443 41.7734 20.9618 42.3447 20.8474C42.916 20.7329 43.5082 20.7917 44.0464 21.0161C44.5845 21.2406 45.0445 21.6208 45.3681 22.1085C45.6917 22.5962 45.8645 23.1697 45.8645 23.7563C45.8645 24.5429 45.5542 25.2972 45.0018 25.8534C44.4495 26.4097 43.7004 26.7221 42.9193 26.7221Z" fill="#CDEE2D" style="fill:#CDEE2D;fill:color(display-p3 0.8039 0.9333 0.1765);fill-opacity:1;"/>
</g>
<defs>
<filter id="filter0_d_1741_2896" x="0.626953" y="0.0175781" width="52.1826" height="37.6748" filterUnits="userSpaceOnUse" color-interpolation-filters="sRGB">
<feFlood flood-opacity="0" result="BackgroundImageFix"/>
<feColorMatrix in="SourceAlpha" type="matrix" values="0 0 0 0 0 0 0 0 0 0 0 0 0 0 0 0 0 0 127 0" result="hardAlpha"/>
<feOffset dy="4"/>
<feGaussianBlur stdDeviation="2"/>
<feComposite in2="hardAlpha" operator="out"/>
<feColorMatrix type="matrix" values="0 0 0 0 0 0 0 0 0 0 0 0 0 0 0 0 0 0 0.25 0"/>
<feBlend mode="normal" in2="BackgroundImageFix" result="effect1_dropShadow_1741_2896"/>
<feBlend mode="normal" in="SourceGraphic" in2="effect1_dropShadow_1741_2896" result="shape"/>
</filter>
</defs>
</svg>
