<svg width="44" height="46" viewBox="0 0 44 46" fill="none" xmlns="http://www.w3.org/2000/svg">
<g filter="url(#filter0_d_1741_2902)">
<path opacity="0.2" d="M33.3866 31.7943L26.781 25.4126C28.0319 24.2037 28.7346 22.5644 28.7346 20.8551C28.7346 19.1459 28.0319 17.5065 26.781 16.2977L33.3866 9.91602C36.3895 12.8173 38.0765 16.7522 38.0765 20.8551C38.0765 24.9581 36.3895 28.893 33.3866 31.7943ZM10.7407 9.91602C7.73778 12.8173 6.05078 16.7522 6.05078 20.8551C6.05078 24.9581 7.73778 28.893 10.7407 31.7943L17.3463 25.4126C16.0954 24.2037 15.3927 22.5644 15.3927 20.8551C15.3927 19.1459 16.0954 17.5065 17.3463 16.2977L10.7407 9.91602Z" fill="black" style="fill:black;fill-opacity:1;"/>
<path d="M22.4033 3.72363C18.9721 3.72363 15.6181 4.70659 12.7652 6.5482C9.91231 8.38982 7.68876 11.0074 6.37573 14.0699C5.06269 17.1324 4.71914 20.5022 5.38852 23.7534C6.0579 27.0045 7.71015 29.9908 10.1363 32.3347C12.5625 34.6787 15.6536 36.2749 19.0188 36.9216C22.384 37.5683 25.8721 37.2364 29.0421 35.9679C32.212 34.6993 34.9214 32.5512 36.8277 29.795C38.7339 27.0388 39.7513 23.7985 39.7513 20.4836C39.7465 16.04 37.9172 11.7798 34.6648 8.63771C31.4125 5.49561 27.0028 3.72833 22.4033 3.72363ZM28.9255 24.9621C29.891 23.6551 30.4099 22.0894 30.4099 20.4836C30.4099 18.8779 29.891 17.3122 28.9255 16.0052L33.6795 11.4139C35.8782 13.9589 37.0826 17.1687 37.0826 20.4836C37.0826 23.7986 35.8782 27.0084 33.6795 29.5534L28.9255 24.9621ZM17.0654 20.4836C17.0654 19.4637 17.3785 18.4667 17.965 17.6186C18.5515 16.7706 19.3852 16.1096 20.3605 15.7193C21.3359 15.3289 22.4092 15.2268 23.4446 15.4258C24.4801 15.6248 25.4312 16.1159 26.1777 16.8371C26.9242 17.5583 27.4326 18.4772 27.6386 19.4776C27.8445 20.4779 27.7388 21.5148 27.3348 22.4571C26.9308 23.3994 26.2466 24.2048 25.3688 24.7715C24.491 25.3381 23.459 25.6406 22.4033 25.6406C20.9876 25.6406 19.6299 25.0972 18.6288 24.1301C17.6278 23.163 17.0654 21.8513 17.0654 20.4836ZM31.7912 9.58963L27.0389 14.1825C25.686 13.2498 24.0653 12.7484 22.4033 12.7484C20.7412 12.7484 19.1206 13.2498 17.7677 14.1825L13.0153 9.58963C15.6495 7.46546 18.972 6.30193 22.4033 6.30193C25.8345 6.30193 29.157 7.46546 31.7912 9.58963ZM11.127 11.4139L15.881 16.0052C14.9156 17.3122 14.3966 18.8779 14.3966 20.4836C14.3966 22.0894 14.9156 23.6551 15.881 24.9621L11.127 29.5534C8.9283 27.0084 7.72395 23.7986 7.72395 20.4836C7.72395 17.1687 8.9283 13.9589 11.127 11.4139ZM13.0153 31.3776L17.7677 26.7848C19.1206 27.7175 20.7412 28.2189 22.4033 28.2189C24.0653 28.2189 25.686 27.7175 27.0389 26.7848L31.7912 31.3776C29.157 33.5018 25.8345 34.6653 22.4033 34.6653C18.972 34.6653 15.6495 33.5018 13.0153 31.3776Z" fill="#CDEE2D" style="fill:#CDEE2D;fill:color(display-p3 0.8039 0.9333 0.1765);fill-opacity:1;"/>
</g>
<defs>
<filter id="filter0_d_1741_2902" x="-3.2876" y="0.227539" width="50.7031" height="49.2554" filterUnits="userSpaceOnUse" color-interpolation-filters="sRGB">
<feFlood flood-opacity="0" result="BackgroundImageFix"/>
<feColorMatrix in="SourceAlpha" type="matrix" values="0 0 0 0 0 0 0 0 0 0 0 0 0 0 0 0 0 0 127 0" result="hardAlpha"/>
<feOffset dy="4"/>
<feGaussianBlur stdDeviation="2"/>
<feComposite in2="hardAlpha" operator="out"/>
<feColorMatrix type="matrix" values="0 0 0 0 0 0 0 0 0 0 0 0 0 0 0 0 0 0 0.25 0"/>
<feBlend mode="normal" in2="BackgroundImageFix" result="effect1_dropShadow_1741_2902"/>
<feBlend mode="normal" in="SourceGraphic" in2="effect1_dropShadow_1741_2902" result="shape"/>
</filter>
</defs>
</svg>
