<svg width="48" height="50" viewBox="0 0 48 50" fill="none" xmlns="http://www.w3.org/2000/svg">
<g filter="url(#filter0_d_1741_2899)">
<path opacity="0.2" d="M17.4215 34.5309L12.0094 38.4923C11.8145 38.6436 11.583 38.7442 11.3368 38.7848C11.0906 38.8253 10.8378 38.8044 10.6023 38.7241C10.3667 38.6437 10.1562 38.5065 9.9905 38.3254C9.82481 38.1443 9.70946 37.9252 9.65531 37.689L7.38389 27.7803C7.33494 27.5676 7.33699 27.3468 7.38987 27.135C7.44276 26.9232 7.54507 26.7259 7.68895 26.5584L13.2591 20.0874C13.0459 24.2447 14.0934 29.0859 17.4215 34.5309ZM39.3529 26.5584L33.7827 20.0874C34.0051 24.2447 32.9484 29.0859 29.6203 34.5309L35.0324 38.4923C35.2273 38.6436 35.4588 38.7442 35.705 38.7848C35.9512 38.8253 36.204 38.8044 36.4395 38.7241C36.6751 38.6437 36.8856 38.5065 37.0513 38.3254C37.217 38.1443 37.3324 37.9252 37.3865 37.689L39.6579 27.7803C39.7069 27.5676 39.7048 27.3468 39.6519 27.135C39.5991 26.9232 39.4967 26.7259 39.3529 26.5584Z" fill="black" style="fill:black;fill-opacity:1;"/>
<path d="M27.932 40.2305C27.932 40.6084 27.7771 40.9708 27.5014 41.2381C27.2257 41.5053 26.8517 41.6554 26.4618 41.6554H20.5811C20.1912 41.6554 19.8173 41.5053 19.5416 41.2381C19.2658 40.9708 19.1109 40.6084 19.1109 40.2305C19.1109 39.8526 19.2658 39.4901 19.5416 39.2229C19.8173 38.9557 20.1912 38.8055 20.5811 38.8055H26.4618C26.8517 38.8055 27.2257 38.9557 27.5014 39.2229C27.7771 39.4901 27.932 39.8526 27.932 40.2305ZM23.5215 20.2813C23.9576 20.2813 24.384 20.156 24.7467 19.9211C25.1093 19.6862 25.392 19.3524 25.5589 18.9619C25.7258 18.5713 25.7695 18.1415 25.6844 17.7269C25.5993 17.3123 25.3892 16.9315 25.0808 16.6325C24.7724 16.3336 24.3795 16.13 23.9517 16.0476C23.5239 15.9651 23.0805 16.0074 22.6776 16.1692C22.2746 16.331 21.9302 16.6049 21.6879 16.9564C21.4455 17.3079 21.3162 17.7212 21.3162 18.1439C21.3162 18.7108 21.5486 19.2544 21.9621 19.6553C22.3757 20.0561 22.9366 20.2813 23.5215 20.2813ZM41.0938 28.0882L38.8223 37.9969C38.7146 38.4674 38.4854 38.9038 38.1564 39.2652C37.8273 39.6265 37.409 39.9011 36.9407 40.0632C36.4724 40.2253 35.9693 40.2696 35.4785 40.192C34.9877 40.1144 34.5252 39.9175 34.1343 39.6195L29.1284 35.9557H17.9183L12.9086 39.6195C12.5177 39.9175 12.0553 40.1144 11.5644 40.192C11.0736 40.2696 10.5706 40.2253 10.1022 40.0632C9.6339 39.9011 9.21565 39.6265 8.88658 39.2652C8.55751 38.9038 8.32838 38.4674 8.22062 37.9969L5.9492 28.0882C5.85285 27.663 5.85772 27.2221 5.96343 26.799C6.06915 26.3758 6.27294 25.9816 6.55932 25.6462L11.8078 19.5439C11.984 17.3013 12.5152 15.0983 13.3828 13.0123C15.7534 7.25203 19.9986 3.63802 21.7205 2.35202C22.2359 1.96494 22.8695 1.75488 23.5215 1.75488C24.1735 1.75488 24.807 1.96494 25.3224 2.35202C27.0389 3.63802 31.2895 7.25203 33.6602 13.0123C34.5278 15.0983 35.0589 17.3013 35.2351 19.5439L40.4836 25.6462C40.77 25.9816 40.9738 26.3758 41.0795 26.799C41.1852 27.2221 41.1901 27.663 41.0938 28.0882ZM18.2711 33.1058H28.7718C32.6531 26.4192 33.379 20.0177 30.9293 14.0686C28.7682 8.81768 24.7142 5.49757 23.5215 4.60698C22.3251 5.49757 18.2711 8.81768 16.11 14.0686C13.6639 20.0177 14.3898 26.4192 18.2711 33.1058ZM15.5145 34.1478C13.5359 30.6626 12.3353 27.2374 11.9126 23.8722L8.81972 27.4701L11.0911 37.3806L11.1242 37.3574L15.5145 34.1478ZM38.2232 27.4701L35.1304 23.8722C34.7114 27.2303 33.5132 30.6555 31.5358 34.1478L35.9187 37.3539L35.9518 37.377L38.2232 27.4701Z" fill="#CDEE2D" style="fill:#CDEE2D;fill:color(display-p3 0.8039 0.9333 0.1765);fill-opacity:1;"/>
</g>
<defs>
<filter id="filter0_d_1741_2899" x="-4.00195" y="0.332031" width="55.0454" height="53.5981" filterUnits="userSpaceOnUse" color-interpolation-filters="sRGB">
<feFlood flood-opacity="0" result="BackgroundImageFix"/>
<feColorMatrix in="SourceAlpha" type="matrix" values="0 0 0 0 0 0 0 0 0 0 0 0 0 0 0 0 0 0 127 0" result="hardAlpha"/>
<feOffset dy="4"/>
<feGaussianBlur stdDeviation="2"/>
<feComposite in2="hardAlpha" operator="out"/>
<feColorMatrix type="matrix" values="0 0 0 0 0 0 0 0 0 0 0 0 0 0 0 0 0 0 0.25 0"/>
<feBlend mode="normal" in2="BackgroundImageFix" result="effect1_dropShadow_1741_2899"/>
<feBlend mode="normal" in="SourceGraphic" in2="effect1_dropShadow_1741_2899" result="shape"/>
</filter>
</defs>
</svg>
