<svg width="45" height="45" viewBox="0 0 45 45" fill="none" xmlns="http://www.w3.org/2000/svg">
<path d="M22.0313 3.51562C18.3547 3.51563 14.7608 4.62904 11.7038 6.71507C8.64691 8.8011 6.26433 11.7661 4.85738 15.235C3.45044 18.7039 3.08232 22.5211 3.79957 26.2037C4.51683 29.8863 6.28725 33.269 8.88694 35.924C11.4866 38.579 14.7989 40.3871 18.4047 41.1196C22.0106 41.8521 25.7482 41.4762 29.1449 40.0393C32.5416 38.6024 35.4448 36.1691 37.4873 33.0472C39.5299 29.9252 40.6201 26.2548 40.6201 22.5C40.6147 17.4667 38.6544 12.6412 35.1695 9.08219C31.6846 5.52314 26.9597 3.52121 22.0313 3.51562ZM22.0313 37.2656C19.1717 37.2656 16.3764 36.3996 13.9988 34.7772C11.6212 33.1547 9.76809 30.8486 8.6738 28.1506C7.57951 25.4525 7.29319 22.4836 7.85106 19.6194C8.40892 16.7551 9.78591 14.1241 11.8079 12.0591C13.8299 9.99412 16.4061 8.58783 19.2106 8.01809C22.0152 7.44836 24.9222 7.74077 27.5641 8.85834C30.206 9.97592 32.464 11.8685 34.0527 14.2967C35.6413 16.7249 36.4893 19.5796 36.4893 22.5C36.4852 26.4148 34.9606 30.1681 32.2501 32.9362C29.5396 35.7044 25.8645 37.2614 22.0313 37.2656ZM33.7354 22.5C33.7354 23.0594 33.5178 23.596 33.1304 23.9916C32.7431 24.3871 32.2177 24.6094 31.6699 24.6094H22.0313C21.4835 24.6094 20.9581 24.3871 20.5708 23.9916C20.1834 23.596 19.9658 23.0594 19.9658 22.5V12.6562C19.9658 12.0968 20.1834 11.5603 20.5708 11.1647C20.9581 10.7691 21.4835 10.5469 22.0313 10.5469C22.579 10.5469 23.1044 10.7691 23.4917 11.1647C23.8791 11.5603 24.0967 12.0968 24.0967 12.6562V20.3906H31.6699C32.2177 20.3906 32.7431 20.6129 33.1304 21.0084C33.5178 21.404 33.7354 21.9406 33.7354 22.5Z" fill="#A70201" style="fill:#A70201;fill:color(display-p3 0.6549 0.0078 0.0039);fill-opacity:1;"/>
</svg>
