<svg width="30" height="30" viewBox="0 0 30 30" fill="none" xmlns="http://www.w3.org/2000/svg">
<ellipse cx="15.001" cy="15.172" rx="14.4443" ry="14.5375" fill="#F1F1F1" style="fill:#F1F1F1;fill:color(display-p3 0.9451 0.9451 0.9451);fill-opacity:1;"/>
<path d="M23.6669 15.172C23.6669 10.6759 20.0454 7.03101 15.5781 7.03101C11.1108 7.03101 7.48926 10.6758 7.48926 15.172C7.48926 19.2354 10.4472 22.6035 14.3142 23.2142V17.5253H12.2604V15.172H14.3142V13.3785C14.3142 11.3381 15.5218 10.2111 17.3694 10.2111C18.2545 10.2111 19.1801 10.3701 19.1801 10.3701V12.3736H18.1602C17.1553 12.3736 16.842 13.0011 16.842 13.645V15.172H19.0854L18.7267 17.5253H16.842V23.2142C20.7089 22.6035 23.6669 19.2355 23.6669 15.172Z" fill="#232323" style="fill:#232323;fill:color(display-p3 0.1375 0.1375 0.1375);fill-opacity:1;"/>
<path d="M18.7261 17.5254L19.0847 15.1721H16.8413V13.645C16.8413 13.0011 17.1547 12.3736 18.1596 12.3736H19.1795V10.3702C19.1795 10.3702 18.2538 10.2112 17.3688 10.2112C15.5212 10.2112 14.3136 11.3382 14.3136 13.3786V15.1721H12.2598V17.5254H14.3136V23.2143C14.7317 23.2802 15.1542 23.3133 15.5774 23.3132C16.0007 23.3133 16.4232 23.2802 16.8413 23.2143V17.5254H18.7261Z" fill="white" style="fill:white;fill:white;fill-opacity:1;"/>
</svg>
