<svg width="50" height="50" viewBox="0 0 50 50" fill="none" xmlns="http://www.w3.org/2000/svg">
<ellipse cx="24.8397" cy="25" rx="24.8397" ry="25" fill="white" style="fill:white;fill:white;fill-opacity:1;"/>
<g clip-path="url(#clip0_1_197)">
<path d="M32.2298 11H17.4501C13.849 11 10.9297 13.9381 10.9297 17.5625V32.4375C10.9297 36.0619 13.849 39 17.4501 39H32.2298C35.8309 39 38.7502 36.0619 38.7502 32.4375V17.5625C38.7502 13.9381 35.8309 11 32.2298 11Z" fill="url(#paint0_radial_1_197)" style=""/>
<path d="M32.2298 11H17.4501C13.849 11 10.9297 13.9381 10.9297 17.5625V32.4375C10.9297 36.0619 13.849 39 17.4501 39H32.2298C35.8309 39 38.7502 36.0619 38.7502 32.4375V17.5625C38.7502 13.9381 35.8309 11 32.2298 11Z" fill="#232323" style="fill:#232323;fill:color(display-p3 0.1375 0.1375 0.1375);fill-opacity:1;"/>
<path d="M24.841 14.0625C21.8897 14.0625 21.5192 14.0755 20.3601 14.1286C19.2031 14.1819 18.4134 14.3662 17.7224 14.6367C17.0076 14.9161 16.4013 15.2898 15.7973 15.8979C15.1927 16.5059 14.8214 17.1161 14.543 17.8353C14.2735 18.5309 14.0901 19.3261 14.0381 20.4899C13.9862 21.6566 13.9727 22.0296 13.9727 25.0001C13.9727 27.9706 13.9857 28.3423 14.0383 29.5089C14.0915 30.6733 14.2747 31.4681 14.5432 32.1635C14.821 32.883 15.1923 33.4932 15.7965 34.1011C16.4004 34.7095 17.0067 35.0842 17.721 35.3635C18.4125 35.634 19.2024 35.8183 20.3591 35.8717C21.5183 35.9247 21.8885 35.9377 24.8397 35.9377C27.7914 35.9377 28.1607 35.9247 29.3198 35.8717C30.4767 35.8183 31.2673 35.634 31.9588 35.3635C32.6734 35.0842 33.2788 34.7095 33.8826 34.1011C34.4871 33.4932 34.8584 32.883 35.1369 32.1638C35.404 31.4681 35.5875 30.6731 35.6418 29.5091C35.6938 28.3425 35.7074 27.9706 35.7074 25.0001C35.7074 22.0296 35.6938 21.6568 35.6418 20.4901C35.5875 19.3257 35.404 18.531 35.1369 17.8356C34.8584 17.1161 34.4871 16.5059 33.8826 15.8979C33.2781 15.2896 32.6736 14.9158 31.9582 14.6368C31.2654 14.3662 30.4752 14.1818 29.3183 14.1286C28.1591 14.0755 27.79 14.0625 24.8377 14.0625H24.841ZM23.8661 16.0335C24.1555 16.0331 24.4784 16.0335 24.841 16.0335C27.7427 16.0335 28.0866 16.044 29.2324 16.0964C30.292 16.1452 30.8671 16.3234 31.2502 16.4731C31.7574 16.6713 32.1189 16.9083 32.4991 17.2912C32.8794 17.6741 33.1148 18.0386 33.3123 18.5491C33.461 18.9341 33.6383 19.5129 33.6865 20.5793C33.7386 21.7323 33.7499 22.0786 33.7499 24.9976C33.7499 27.9166 33.7386 28.263 33.6865 29.4159C33.6381 30.4823 33.461 31.0611 33.3123 31.4462C33.1153 31.9567 32.8794 32.3201 32.4991 32.7027C32.1187 33.0855 31.7576 33.3225 31.2502 33.5208C30.8675 33.6711 30.292 33.8489 29.2324 33.8977C28.0868 33.95 27.7427 33.9614 24.841 33.9614C21.9392 33.9614 21.5953 33.95 20.4497 33.8977C19.3902 33.8484 18.8151 33.6703 18.4317 33.5205C17.9246 33.3222 17.5623 33.0853 17.1819 32.7025C16.8015 32.3197 16.5662 31.956 16.3687 31.4454C16.2199 31.0602 16.0427 30.4814 15.9944 29.415C15.9424 28.262 15.9319 27.9157 15.9319 24.9949C15.9319 22.0741 15.9424 21.7296 15.9944 20.5765C16.0429 19.5101 16.2199 18.9313 16.3687 18.5458C16.5657 18.0353 16.8015 17.6708 17.182 17.288C17.5624 16.9052 17.9246 16.6681 18.4318 16.4695C18.8148 16.3191 19.3902 16.1414 20.4497 16.0924C21.4522 16.0468 21.8408 16.0331 23.8661 16.0308V16.0335ZM30.642 17.8496C29.9221 17.8496 29.3379 18.437 29.3379 19.1617C29.3379 19.8863 29.9221 20.4742 30.642 20.4742C31.362 20.4742 31.9461 19.8863 31.9461 19.1617C31.9461 18.4371 31.362 17.8492 30.642 17.8492V17.8496ZM24.841 19.3832C21.759 19.3832 19.2602 21.8981 19.2602 25.0001C19.2602 28.1021 21.759 30.6159 24.841 30.6159C27.9231 30.6159 30.4211 28.1021 30.4211 25.0001C30.4211 21.8982 27.9229 19.3832 24.8408 19.3832H24.841ZM24.841 21.3542C26.8416 21.3542 28.4636 22.9864 28.4636 25.0001C28.4636 27.0136 26.8416 28.646 24.841 28.646C22.8403 28.646 21.2186 27.0136 21.2186 25.0001C21.2186 22.9864 22.8403 21.3542 24.841 21.3542Z" fill="white" style="fill:white;fill:white;fill-opacity:1;"/>
</g>
<defs>
<radialGradient id="paint0_radial_1_197" cx="0" cy="0" r="1" gradientUnits="userSpaceOnUse" gradientTransform="translate(18.3195 41.1565) rotate(-90) scale(27.7501 25.6443)">
<stop stop-color="#232323" style="stop-color:#232323;stop-color:color(display-p3 0.1375 0.1375 0.1375);stop-opacity:1;"/>
<stop offset="0.1" stop-color="#FFDD55" style="stop-color:#FFDD55;stop-color:color(display-p3 1.0000 0.8667 0.3333);stop-opacity:1;"/>
<stop offset="0.5" stop-color="#FF543E" style="stop-color:#FF543E;stop-color:color(display-p3 1.0000 0.3294 0.2431);stop-opacity:1;"/>
<stop offset="1" stop-color="#C837AB" style="stop-color:#C837AB;stop-color:color(display-p3 0.7843 0.2157 0.6706);stop-opacity:1;"/>
</radialGradient>
<clipPath id="clip0_1_197">
<rect width="27.8205" height="28" fill="white" style="fill:white;fill:white;fill-opacity:1;" transform="translate(10.9297 11)"/>
</clipPath>
</defs>
</svg>
