<svg width="29" height="30" viewBox="0 0 29 30" fill="none" xmlns="http://www.w3.org/2000/svg">
<ellipse cx="14.4443" cy="15.172" rx="14.4443" ry="14.5375" fill="#F1F1F1" style="fill:#F1F1F1;fill:color(display-p3 0.9451 0.9451 0.9451);fill-opacity:1;"/>
<path d="M18.7415 7.03101H10.1471C8.05304 7.03101 6.35547 8.73953 6.35547 10.8471V19.4969C6.35547 21.6045 8.05304 23.313 10.1471 23.313H18.7415C20.8356 23.313 22.5331 21.6045 22.5331 19.4969V10.8471C22.5331 8.73953 20.8356 7.03101 18.7415 7.03101Z" fill="url(#paint0_radial_1234_470)" style=""/>
<path d="M18.7415 7.03101H10.1471C8.05304 7.03101 6.35547 8.73953 6.35547 10.8471V19.4969C6.35547 21.6045 8.05304 23.313 10.1471 23.313H18.7415C20.8356 23.313 22.5331 21.6045 22.5331 19.4969V10.8471C22.5331 8.73953 20.8356 7.03101 18.7415 7.03101Z" fill="#232323" style="fill:#232323;fill:color(display-p3 0.1375 0.1375 0.1375);fill-opacity:1;"/>
<path d="M14.445 8.81201C12.7287 8.81201 12.5133 8.81958 11.8393 8.85043C11.1665 8.88146 10.7073 8.98863 10.3055 9.14592C9.88982 9.30836 9.53726 9.52569 9.18603 9.87931C8.83448 10.2329 8.61855 10.5877 8.45664 11.0059C8.29992 11.4104 8.19331 11.8728 8.16304 12.5496C8.1329 13.228 8.125 13.4449 8.125 15.1722C8.125 16.8996 8.13258 17.1157 8.16317 17.7941C8.19413 18.4712 8.30062 18.9334 8.45677 19.3378C8.61829 19.7561 8.83423 20.111 9.18558 20.4645C9.53675 20.8183 9.88931 21.0361 10.3047 21.1986C10.7068 21.3559 11.1661 21.463 11.8387 21.4941C12.5128 21.5249 12.728 21.5325 14.4442 21.5325C16.1606 21.5325 16.3754 21.5249 17.0494 21.4941C17.7221 21.463 18.1819 21.3559 18.584 21.1986C18.9995 21.0361 19.3515 20.8183 19.7026 20.4645C20.0542 20.111 20.2701 19.7561 20.432 19.338C20.5874 18.9334 20.694 18.4711 20.7256 17.7942C20.7559 17.1158 20.7638 16.8996 20.7638 15.1722C20.7638 13.4449 20.7559 13.2281 20.7256 12.5497C20.694 11.8726 20.5874 11.4105 20.432 11.0061C20.2701 10.5877 20.0542 10.2329 19.7026 9.87931C19.3512 9.52556 18.9996 9.30823 18.5836 9.14598C18.1807 8.98863 17.7213 8.8814 17.0485 8.85043C16.3744 8.81958 16.1598 8.81201 14.443 8.81201H14.445ZM13.8781 9.95818C14.0463 9.95792 14.2341 9.95818 14.445 9.95818C16.1323 9.95818 16.3323 9.96428 16.9986 9.99475C17.6147 10.0231 17.9491 10.1267 18.1719 10.2138C18.4668 10.329 18.6771 10.4669 18.8981 10.6895C19.1193 10.9121 19.2562 11.1241 19.371 11.421C19.4575 11.6448 19.5606 11.9814 19.5886 12.6015C19.6189 13.272 19.6255 13.4734 19.6255 15.1708C19.6255 16.8682 19.6189 17.0696 19.5886 17.74C19.5605 18.3602 19.4575 18.6967 19.371 18.9207C19.2565 19.2175 19.1193 19.4288 18.8981 19.6513C18.6769 19.8739 18.4669 20.0117 18.1719 20.127C17.9494 20.2145 17.6147 20.3178 16.9986 20.3462C16.3324 20.3766 16.1323 20.3833 14.445 20.3833C12.7576 20.3833 12.5576 20.3766 11.8914 20.3462C11.2753 20.3176 10.9409 20.2139 10.7179 20.1269C10.423 20.0116 10.2124 19.8738 9.99118 19.6512C9.77 19.4286 9.63312 19.2171 9.5183 18.9202C9.43179 18.6962 9.32872 18.3596 9.30066 17.7395C9.27039 17.069 9.26432 16.8677 9.26432 15.1692C9.26432 13.4708 9.27039 13.2704 9.30066 12.5999C9.32885 11.9798 9.43179 11.6432 9.5183 11.419C9.63287 11.1222 9.77 10.9102 9.99124 10.6876C10.2124 10.465 10.423 10.3272 10.718 10.2117C10.9407 10.1242 11.2753 10.0209 11.8914 9.9924C12.4744 9.96587 12.7003 9.95792 13.8781 9.95659V9.95818ZM17.8183 11.0142C17.3996 11.0142 17.0599 11.3558 17.0599 11.7772C17.0599 12.1985 17.3996 12.5404 17.8183 12.5404C18.2369 12.5404 18.5766 12.1985 18.5766 11.7772C18.5766 11.3558 18.2369 11.014 17.8183 11.014V11.0142ZM14.445 11.906C12.6528 11.906 11.1997 13.3684 11.1997 15.1722C11.1997 16.9761 12.6528 18.4378 14.445 18.4378C16.2372 18.4378 17.6898 16.9761 17.6898 15.1722C17.6898 13.3685 16.2371 11.906 14.4448 11.906H14.445ZM14.445 13.0521C15.6083 13.0521 16.5515 14.0013 16.5515 15.1722C16.5515 16.3431 15.6083 17.2923 14.445 17.2923C13.2816 17.2923 12.3385 16.3431 12.3385 15.1722C12.3385 14.0013 13.2816 13.0521 14.445 13.0521Z" fill="white" style="fill:white;fill:white;fill-opacity:1;"/>
<defs>
<radialGradient id="paint0_radial_1234_470" cx="0" cy="0" r="1" gradientUnits="userSpaceOnUse" gradientTransform="translate(10.6527 24.5671) rotate(-90) scale(16.1367 14.9122)">
<stop stop-color="#232323" style="stop-color:#232323;stop-color:color(display-p3 0.1375 0.1375 0.1375);stop-opacity:1;"/>
<stop offset="0.1" stop-color="#FFDD55" style="stop-color:#FFDD55;stop-color:color(display-p3 1.0000 0.8667 0.3333);stop-opacity:1;"/>
<stop offset="0.5" stop-color="#FF543E" style="stop-color:#FF543E;stop-color:color(display-p3 1.0000 0.3294 0.2431);stop-opacity:1;"/>
<stop offset="1" stop-color="#C837AB" style="stop-color:#C837AB;stop-color:color(display-p3 0.7843 0.2157 0.6706);stop-opacity:1;"/>
</radialGradient>
</defs>
</svg>
