<svg width="37" height="37" viewBox="0 0 37 37" fill="none" xmlns="http://www.w3.org/2000/svg">
<path d="M34.6875 18.5C34.6875 27.4355 27.4436 34.6875 18.5 34.6875C9.55641 34.6875 2.3125 27.4355 2.3125 18.5C2.3125 9.5564 9.55641 2.3125 18.5 2.3125C27.4436 2.3125 34.6875 9.5564 34.6875 18.5Z" fill="#283544" style="fill:#283544;fill:color(display-p3 0.1569 0.2078 0.2667);fill-opacity:1;"/>
<path d="M26.0874 14.4039C25.9991 14.4554 23.8963 15.5429 23.8963 17.9541C23.9954 20.7039 26.5499 21.6683 26.5937 21.6683C26.5499 21.7198 26.2081 22.982 25.1955 24.305C24.3918 25.4447 23.4999 26.5937 22.1454 26.5937C20.857 26.5937 20.3945 25.8342 18.9079 25.8342C17.3114 25.8342 16.8597 26.5937 15.6374 26.5937C14.2829 26.5937 13.3248 25.3831 12.4774 24.2541C11.3765 22.7765 10.4407 20.4576 10.4076 18.2311C10.3854 17.0513 10.6281 15.8915 11.2443 14.9064C12.114 13.5312 13.6667 12.5976 15.3623 12.5668C16.6615 12.526 17.8177 13.398 18.6106 13.398C19.3704 13.398 20.7909 12.5668 22.3982 12.5668C23.092 12.5675 24.942 12.7622 26.0874 14.4039ZM18.5007 12.3313C18.2694 11.2538 18.9079 10.1764 19.5025 9.48908C20.2624 8.6579 21.4624 8.09375 22.4973 8.09375C22.5634 9.1712 22.1447 10.2279 21.3964 10.9975C20.7249 11.8287 19.5686 12.4544 18.5007 12.3313Z" fill="white" style="fill:white;fill-opacity:1;"/>
</svg>
