<svg width="51" height="50" viewBox="0 0 51 50" fill="none" xmlns="http://www.w3.org/2000/svg">
<ellipse cx="25.4257" cy="25" rx="24.8397" ry="25" fill="white" style="fill:white;fill:white;fill-opacity:1;"/>
<path d="M40.3283 25C40.3283 17.2681 34.1004 11 26.4181 11C18.7357 11 12.5078 17.268 12.5078 25C12.5078 31.9878 17.5946 37.7798 24.2446 38.83V29.0469H20.7127V25H24.2446V21.9156C24.2446 18.4069 26.3214 16.4688 29.4986 16.4688C31.0206 16.4688 32.6125 16.7422 32.6125 16.7422V20.1875H30.8585C29.1304 20.1875 28.5915 21.2667 28.5915 22.3739V25H32.4495L31.8327 29.0469H28.5915V38.83C35.2415 37.7798 40.3283 31.9879 40.3283 25Z" fill="#232323" style="fill:#232323;fill:color(display-p3 0.1375 0.1375 0.1375);fill-opacity:1;"/>
<path d="M31.832 29.0469L32.4487 25H28.5908V22.3739C28.5908 21.2666 29.1297 20.1875 30.8577 20.1875H32.6117V16.7422C32.6117 16.7422 31.0198 16.4688 29.4979 16.4688C26.3206 16.4688 24.2438 18.4069 24.2438 21.9156V25H20.7119V29.0469H24.2438V38.83C24.9628 38.9434 25.6895 39.0002 26.4173 39C27.1451 39.0003 27.8718 38.9434 28.5908 38.83V29.0469H31.832Z" fill="white" style="fill:white;fill:white;fill-opacity:1;"/>
</svg>
