<svg width="37" height="37" viewBox="0 0 37 37" fill="none" xmlns="http://www.w3.org/2000/svg">
<path d="M34.6892 18.8595C34.6892 17.5286 34.579 16.5573 34.3405 15.5501H18.832V21.5574H27.9351C27.7517 23.0503 26.7606 25.2986 24.5582 26.8093L24.5273 27.0104L29.4308 30.7331L29.7705 30.7664C32.8905 27.9425 34.6892 23.7877 34.6892 18.8595Z" fill="#4285F4" style="fill:#4285F4;fill:color(display-p3 0.2588 0.5216 0.9569);fill-opacity:1;"/>
<path d="M18.8309 34.6875C23.2906 34.6875 27.0346 33.2485 29.7693 30.7665L24.557 26.8094C23.1622 27.7627 21.2901 28.4282 18.8309 28.4282C14.4629 28.4282 10.7556 25.6044 9.43403 21.7014L9.24032 21.7175L4.14163 25.5846L4.07495 25.7663C6.79118 31.0542 12.3705 34.6875 18.8309 34.6875Z" fill="#34A853" style="fill:#34A853;fill:color(display-p3 0.2039 0.6588 0.3255);fill-opacity:1;"/>
<path d="M9.43516 21.7015C9.08646 20.6943 8.88465 19.6151 8.88465 18.5C8.88465 17.3848 9.08646 16.3056 9.41681 15.2984L9.40758 15.0839L4.24498 11.1548L4.07607 11.2335C2.95658 13.4279 2.31421 15.892 2.31421 18.5C2.31421 21.108 2.95658 23.572 4.07607 25.7663L9.43516 21.7015Z" fill="#FBBC05" style="fill:#FBBC05;fill:color(display-p3 0.9843 0.7373 0.0196);fill-opacity:1;"/>
<path d="M18.831 8.57162C21.9326 8.57162 24.0248 9.8846 25.2178 10.9818L29.8795 6.52125C27.0165 3.91327 23.2907 2.3125 18.831 2.3125C12.3706 2.3125 6.7912 5.94567 4.07495 11.2335L9.41571 15.2985C10.7556 11.3955 14.4629 8.57162 18.831 8.57162Z" fill="#EB4335" style="fill:#EB4335;fill:color(display-p3 0.9216 0.2627 0.2078);fill-opacity:1;"/>
</svg>
