<svg width="19" height="19" viewBox="0 0 19 19" fill="none" xmlns="http://www.w3.org/2000/svg">
<path d="M18.9179 7.12608C18.8184 6.80983 18.6314 6.53087 18.3801 6.32388C18.1289 6.11688 17.8245 5.99097 17.5048 5.96181L12.8379 5.54345L11.0121 1.03402C10.8865 0.727363 10.6766 0.465795 10.4086 0.281921C10.1405 0.0980472 9.82622 0 9.5048 0C9.18337 0 8.86905 0.0980472 8.60101 0.281921C8.33298 0.465795 8.12308 0.727363 7.99748 1.03402L6.16922 5.54345L1.50237 5.96181C1.18092 5.98939 0.87449 6.11476 0.621529 6.32218C0.368568 6.52959 0.180343 6.80982 0.080472 7.1277C-0.0193995 7.44558 -0.026469 7.78695 0.0601504 8.10898C0.14677 8.431 0.32322 8.71935 0.567361 8.93782L4.11417 12.1455L3.0498 16.918C2.9768 17.243 2.99785 17.583 3.11031 17.8957C3.22277 18.2083 3.42166 18.4797 3.6821 18.6758C3.94254 18.872 4.25299 18.9842 4.57462 18.9984C4.89626 19.0127 5.21482 18.9284 5.49048 18.756L9.50234 16.2306L13.5142 18.756C13.7898 18.9281 14.1083 19.0122 14.4298 18.9978C14.7513 18.9834 15.0615 18.8712 15.3218 18.6751C15.5821 18.479 15.7809 18.2078 15.8934 17.8953C16.0058 17.5828 16.0269 17.2429 15.9541 16.918L14.8897 12.1455L18.4365 8.93782C18.68 8.71855 18.8556 8.42963 18.9412 8.10731C19.0269 7.78499 19.0188 7.44364 18.9179 7.12608ZM13.4528 10.7428C13.2283 10.9453 13.0612 11.2073 12.9696 11.5008C12.878 11.7943 12.8653 12.1082 12.9329 12.4086L13.8654 16.5938L10.3497 14.3807C10.0944 14.2196 9.80126 14.1343 9.50234 14.1343C9.20341 14.1343 8.91025 14.2196 8.65494 14.3807L5.13924 16.5938L6.07179 12.4086C6.13937 12.1082 6.12668 11.7943 6.03508 11.5008C5.94347 11.2073 5.77642 10.9453 5.55189 10.7428L2.43328 7.9229L6.53848 7.55462C6.83575 7.52823 7.12035 7.41784 7.36128 7.23545C7.60222 7.05306 7.79027 6.80566 7.90496 6.52018L9.50234 2.57507L11.0997 6.52018C11.2144 6.80566 11.4025 7.05306 11.6434 7.23545C11.8843 7.41784 12.1689 7.52823 12.4662 7.55462L16.5714 7.9229L13.4528 10.7428Z" fill="black" style="fill:black;fill-opacity:1;"/>
</svg>
