<svg width="816" height="372" viewBox="0 0 816 372" fill="none" xmlns="http://www.w3.org/2000/svg">
<path d="M29.8793 1.26687H86.6259C88.1606 1.26687 89.6186 1.30526 90.9998 1.38204C92.3811 1.45882 94.2995 1.72755 96.7551 2.18823C99.2873 2.57213 101.551 3.18637 103.546 4.03094C105.618 4.79874 107.805 5.95044 110.107 7.48604C112.409 9.02163 114.328 10.8643 115.862 13.0142C117.474 15.0872 118.778 17.8129 119.776 21.1912C120.85 24.4928 121.387 28.2166 121.387 32.3627C121.387 36.432 120.889 40.1558 119.891 43.5342C118.97 46.9125 117.742 49.7533 116.208 52.0567C114.673 54.2833 112.831 56.2796 110.683 58.0455C108.534 59.7347 106.424 61.0783 104.352 62.0765C102.28 62.9978 100.093 63.7656 97.791 64.3799C95.5656 64.9173 93.6472 65.3012 92.0358 65.5316C90.4243 65.6851 88.9279 65.7619 87.5467 65.7619H56.6987V82.116H29.8793V1.26687ZM85.8201 41.9218C92.8799 41.9218 96.4097 39.0041 96.4097 33.1689C96.4097 31.8636 96.2179 30.7503 95.8342 29.829C95.5273 28.9076 95.0285 28.1782 94.3379 27.6407C93.6472 27.0265 92.9566 26.5274 92.266 26.1435C91.5753 25.7596 90.7312 25.5293 89.7337 25.4525C88.8128 25.2989 88.0455 25.1838 87.4316 25.107C86.8177 25.0302 86.1271 24.9918 85.3597 24.9918H56.6987V41.9218H85.8201ZM178.727 0C186.017 0 192.462 0.42229 198.064 1.26687C203.666 2.03467 208.846 3.37831 213.603 5.29781C218.361 7.2173 222.236 9.75104 225.229 12.899C228.298 15.9702 230.677 19.886 232.365 24.6463C234.053 29.3299 234.898 34.858 234.898 41.2308C234.898 47.5267 234.13 52.9781 232.595 57.5849C231.137 62.1916 228.989 66.1074 226.15 69.3322C223.387 72.4801 219.704 75.0523 215.1 77.0485C210.572 78.968 205.431 80.3501 199.676 81.1946C193.92 82.0392 187.206 82.4615 179.532 82.4615C160.502 82.4615 146.651 79.0064 137.98 72.0962C129.385 65.1093 125.088 54.3217 125.088 39.7335C125.088 26.2203 129.5 16.2389 138.325 9.78943C147.15 3.26314 160.617 0 178.727 0ZM179.762 61.2703C187.897 61.2703 194.189 59.6195 198.64 56.318C203.09 53.0165 205.316 47.9874 205.316 41.2308C205.316 34.7045 202.975 29.7522 198.294 26.3739C193.613 22.9188 187.321 21.1912 179.417 21.1912C175.273 21.1912 171.628 21.6519 168.482 22.5733C165.336 23.4178 162.727 24.7231 160.655 26.489C158.66 28.255 157.164 30.3664 156.166 32.8234C155.169 35.2803 154.67 38.0828 154.67 41.2308C154.67 47.2964 156.78 52.1719 161 55.8573C165.221 59.466 171.475 61.2703 179.762 61.2703ZM384.846 1.26687L351.006 81.7705L351.121 82.116H325.222L325.337 81.7705L306.23 39.0425L287.353 82.116H261.454L227.153 1.26687H255.469L274.346 46.9892L293.223 1.26687H318.892L337.999 46.5286L356.646 1.26687H384.846ZM388.254 1.26687H477.46V23.725H415.073V30.8655H473.546V52.4022H415.073V59.6579H477.46V82.116H388.254V1.26687ZM485.914 1.26687H545.308C546.842 1.26687 548.3 1.30526 549.682 1.38204C551.063 1.45882 552.981 1.72755 555.437 2.18823C557.969 2.57213 560.233 3.14798 562.228 3.91577C564.3 4.60679 566.487 5.7201 568.789 7.25569C571.091 8.71451 573.009 10.4804 574.544 12.5535C576.156 14.5498 577.46 17.1219 578.458 20.2699C579.532 23.4178 580.069 26.9881 580.069 30.9807C580.069 43.7261 575.12 52.8245 565.221 58.2759L581.796 82.116L550.833 82.0008L537.02 62.9978H512.733V82.116H485.914V1.26687ZM542.775 39.388C549.451 39.388 552.789 36.8543 552.789 31.7868C552.789 27.1801 549.298 24.8767 542.315 24.8767H512.733V39.388H542.775ZM637.656 82.116C625.609 82.116 615.556 80.9259 607.499 78.5457C599.442 76.1656 593.878 72.0578 590.809 66.2226C588.583 61.8461 587.087 56.4332 586.32 49.9837C585.552 43.4574 585.169 33.6679 585.169 20.6154L585.284 1.26687H613.6V37.4302C613.6 39.7336 613.715 41.8066 613.945 43.6493C614.175 45.4153 614.751 47.3731 615.671 49.523C616.669 51.6728 618.012 53.4771 619.7 54.9359C621.388 56.318 623.767 57.5081 626.837 58.5062C629.906 59.4276 633.513 59.8882 637.656 59.8882C641.877 59.8882 645.483 59.4276 648.476 58.5062C651.546 57.5081 653.848 56.318 655.382 54.9359C656.994 53.5539 658.26 51.788 659.181 49.6381C660.102 47.4115 660.639 45.4153 660.792 43.6493C661.023 41.8834 661.138 39.8103 661.138 37.4302V1.26687H689.453V20.6154C689.53 33.6679 689.185 43.4574 688.417 49.9837C687.65 56.4332 686.154 61.8461 683.928 66.2226C682.317 69.2938 680.015 71.9043 677.022 74.0541C674.106 76.1272 670.576 77.7395 666.433 78.8912C662.289 80.0429 657.915 80.8875 653.311 81.425C648.706 81.8857 643.488 82.116 637.656 82.116ZM695.777 1.26687H752.524C754.058 1.26687 755.516 1.30526 756.898 1.38204C758.279 1.45882 760.197 1.72755 762.653 2.18823C765.185 2.57213 767.449 3.18637 769.444 4.03094C771.516 4.79874 773.703 5.95044 776.005 7.48604C778.307 9.02163 780.225 10.8643 781.76 13.0142C783.372 15.0872 784.676 17.8129 785.674 21.1912C786.748 24.4928 787.285 28.2166 787.285 32.3627C787.285 36.432 786.786 40.1558 785.789 43.5342C784.868 46.9125 783.64 49.7533 782.105 52.0567C780.571 54.2833 778.729 56.2796 776.58 58.0455C774.432 59.7347 772.322 61.0783 770.25 62.0765C768.178 62.9978 765.991 63.7656 763.689 64.3799C761.463 64.9173 759.545 65.3012 757.933 65.5316C756.322 65.6851 754.826 65.7619 753.444 65.7619H722.596V82.116H695.777V1.26687ZM751.718 41.9218C758.778 41.9218 762.307 39.0041 762.307 33.1689C762.307 31.8636 762.116 30.7503 761.732 29.829C761.425 28.9076 760.926 28.1782 760.236 27.6407C759.545 27.0265 758.854 26.5274 758.164 26.1435C757.473 25.7596 756.629 25.5293 755.631 25.4525C754.711 25.2989 753.943 25.1838 753.329 25.107C752.715 25.0302 752.025 24.9918 751.257 24.9918H722.596V41.9218H751.718Z" fill="#40E8CA" style="fill:#40E8CA;fill:color(display-p3 0.2510 0.9098 0.7912);fill-opacity:1;"/>
<path d="M66.6473 95.9485H80.3639L63.4052 120.702V130.983H51.8333V120.702L34.9245 95.9485H48.6411L57.6192 108.026L66.6473 95.9485ZM99.2301 95.3995C102.389 95.3995 105.182 95.5825 107.61 95.9485C110.037 96.2812 112.282 96.8635 114.343 97.6953C116.405 98.527 118.084 99.625 119.381 100.989C120.711 102.32 121.742 104.017 122.474 106.08C123.205 108.109 123.571 110.505 123.571 113.266C123.571 115.994 123.238 118.357 122.573 120.353C121.941 122.349 121.01 124.046 119.78 125.443C118.583 126.808 116.987 127.922 114.992 128.787C113.03 129.619 110.802 130.218 108.308 130.584C105.814 130.95 102.904 131.133 99.5792 131.133C91.3326 131.133 85.3306 129.636 81.5731 126.641C77.8488 123.614 75.9867 118.939 75.9867 112.617C75.9867 106.762 77.8987 102.436 81.7227 99.6416C85.5467 96.8136 91.3825 95.3995 99.2301 95.3995ZM99.679 121.95C103.204 121.95 105.93 121.235 107.859 119.804C109.788 118.373 110.752 116.194 110.752 113.266C110.752 110.438 109.738 108.292 107.709 106.828C105.681 105.331 102.954 104.582 99.5294 104.582C97.7337 104.582 96.1542 104.782 94.7909 105.181C93.4275 105.547 92.297 106.113 91.3992 106.878C90.5346 107.643 89.8862 108.558 89.4539 109.623C89.0216 110.688 88.8055 111.902 88.8055 113.266C88.8055 115.895 89.7199 118.007 91.5488 119.604C93.3777 121.168 96.0877 121.95 99.679 121.95ZM149 130.983C143.779 130.983 139.423 130.467 135.931 129.436C132.44 128.405 130.029 126.625 128.699 124.096C127.735 122.2 127.086 119.854 126.754 117.059C126.421 114.231 126.255 109.989 126.255 104.333L126.305 95.9485H138.575V111.619C138.575 112.617 138.625 113.516 138.725 114.314C138.824 115.079 139.074 115.928 139.473 116.859C139.905 117.791 140.487 118.573 141.219 119.205C141.95 119.804 142.981 120.32 144.311 120.752C145.641 121.151 147.204 121.351 149 121.351C150.828 121.351 152.391 121.151 153.688 120.752C155.018 120.32 156.016 119.804 156.681 119.205C157.379 118.606 157.928 117.841 158.327 116.909C158.726 115.945 158.959 115.079 159.025 114.314C159.125 113.549 159.175 112.651 159.175 111.619V95.9485H171.445V104.333C171.478 109.989 171.329 114.231 170.996 117.059C170.664 119.854 170.015 122.2 169.051 124.096C168.353 125.427 167.355 126.558 166.058 127.49C164.795 128.388 163.265 129.087 161.469 129.586C159.674 130.085 157.778 130.451 155.783 130.684C153.788 130.883 151.527 130.983 149 130.983ZM174.185 95.9485H199.923C200.588 95.9485 201.219 95.9652 201.818 95.9984C202.417 96.0317 203.248 96.1481 204.312 96.3478C205.409 96.5141 206.39 96.7637 207.255 97.0964C208.153 97.3958 209.1 97.8782 210.098 98.5437C211.095 99.1758 211.927 99.9411 212.592 100.839C213.29 101.704 213.855 102.819 214.288 104.183C214.753 105.547 214.986 107.094 214.986 108.824C214.986 114.348 212.841 118.29 208.552 120.652L215.734 130.983L202.317 130.933L196.331 122.699H185.807V130.983H174.185V95.9485ZM198.825 112.468C201.718 112.468 203.165 111.37 203.165 109.174C203.165 107.178 201.652 106.179 198.626 106.179H185.807V112.468H198.825ZM283.037 121.151C283.037 122.815 282.854 124.229 282.488 125.394C282.156 126.525 281.54 127.54 280.643 128.438C279.778 129.303 278.548 129.952 276.952 130.384C275.355 130.784 273.377 130.983 271.016 130.983H242.086V95.9485H267.026C269.387 95.9485 271.382 96.1315 273.011 96.4975C274.674 96.8635 275.987 97.4457 276.952 98.2442C277.949 99.0095 278.664 99.9244 279.096 100.989C279.529 102.021 279.745 103.268 279.745 104.732C279.745 107.893 278.947 110.172 277.351 111.569C278.049 111.769 278.697 112.085 279.296 112.518C279.928 112.917 280.543 113.482 281.141 114.214C281.74 114.913 282.205 115.861 282.538 117.059C282.87 118.257 283.037 119.621 283.037 121.151ZM253.758 105.68V109.024H266.876C267.342 109.024 267.724 108.858 268.023 108.525C268.356 108.192 268.522 107.793 268.522 107.327C268.522 106.861 268.356 106.479 268.023 106.179C267.724 105.847 267.342 105.68 266.876 105.68H253.758ZM270.816 121.301C271.315 121.301 271.731 121.135 272.063 120.802C272.396 120.469 272.562 120.07 272.562 119.604C272.562 119.105 272.396 118.689 272.063 118.357C271.731 118.024 271.315 117.858 270.816 117.858H253.758V121.301H270.816ZM307.355 130.983C302.134 130.983 297.778 130.467 294.286 129.436C290.795 128.405 288.384 126.625 287.054 124.096C286.09 122.2 285.441 119.854 285.109 117.059C284.776 114.231 284.61 109.989 284.61 104.333L284.66 95.9485H296.93V111.619C296.93 112.617 296.98 113.516 297.08 114.314C297.179 115.079 297.429 115.928 297.828 116.859C298.26 117.791 298.842 118.573 299.573 119.205C300.305 119.804 301.336 120.32 302.666 120.752C303.996 121.151 305.559 121.351 307.355 121.351C309.183 121.351 310.746 121.151 312.043 120.752C313.373 120.32 314.371 119.804 315.036 119.205C315.734 118.606 316.283 117.841 316.682 116.909C317.081 115.945 317.314 115.079 317.38 114.314C317.48 113.549 317.53 112.651 317.53 111.619V95.9485H329.8V104.333C329.833 109.989 329.684 114.231 329.351 117.059C329.018 119.854 328.37 122.2 327.406 124.096C326.707 125.427 325.71 126.558 324.413 127.49C323.149 128.388 321.62 129.087 319.824 129.586C318.029 130.085 316.133 130.451 314.138 130.684C312.143 130.883 309.882 130.983 307.355 130.983ZM353.502 96.0483C356.628 96.0483 359.305 96.1315 361.532 96.2979C363.76 96.431 365.739 96.6971 367.468 97.0964C369.197 97.4956 370.577 97.9947 371.608 98.5936C372.672 99.1592 373.537 99.9411 374.202 100.939C374.9 101.937 375.382 103.052 375.648 104.283C375.914 105.481 376.047 106.961 376.047 108.725H363.677C363.677 108.192 363.577 107.776 363.378 107.477C363.212 107.178 362.813 106.895 362.181 106.629C361.549 106.329 360.551 106.13 359.188 106.03C357.825 105.897 356.029 105.83 353.801 105.83C350.842 105.83 348.68 105.897 347.317 106.03C345.954 106.163 345.089 106.329 344.723 106.529C344.358 106.728 344.175 107.078 344.175 107.577C344.208 108.009 344.657 108.309 345.521 108.475C346.419 108.608 349.079 108.858 353.502 109.224C353.568 109.224 353.618 109.24 353.652 109.274C362.43 109.972 368 110.605 370.361 111.17C373.453 111.902 375.449 113.15 376.346 114.913C376.945 116.111 377.244 117.841 377.244 120.103C377.244 121.7 377.128 123.015 376.895 124.046C376.696 125.077 376.263 126.026 375.598 126.891C374.966 127.756 374.135 128.438 373.104 128.937C372.073 129.403 370.644 129.802 368.815 130.135C366.986 130.467 364.891 130.7 362.53 130.833C360.202 130.933 357.293 130.983 353.801 130.983C351.407 130.983 349.329 130.95 347.566 130.883C345.837 130.817 344.208 130.7 342.678 130.534C341.182 130.368 339.935 130.151 338.937 129.885C337.94 129.619 337.042 129.253 336.244 128.787C335.446 128.321 334.814 127.822 334.349 127.29C333.916 126.724 333.551 126.009 333.251 125.144C332.952 124.279 332.752 123.364 332.653 122.399C332.553 121.434 332.503 120.286 332.503 118.956H344.524C344.524 119.521 344.607 119.954 344.773 120.253C344.973 120.553 345.422 120.802 346.12 121.002C346.818 121.201 347.783 121.334 349.013 121.401C350.276 121.468 352.056 121.501 354.35 121.501C354.616 121.501 355.015 121.501 355.547 121.501C359.338 121.501 361.632 121.434 362.43 121.301C363.262 121.168 363.677 120.736 363.677 120.004C363.677 119.571 363.395 119.288 362.829 119.155C362.264 119.022 360.701 118.872 358.141 118.706C356.279 118.573 354.732 118.457 353.502 118.357C351.54 118.19 350.027 118.057 348.963 117.957C347.932 117.858 346.635 117.725 345.073 117.558C343.543 117.359 342.379 117.176 341.581 117.009C340.783 116.81 339.835 116.577 338.738 116.311C337.641 116.011 336.809 115.678 336.244 115.312C335.712 114.946 335.113 114.514 334.448 114.015C333.817 113.516 333.351 112.95 333.052 112.318C332.786 111.686 332.536 110.97 332.304 110.172C332.104 109.34 332.004 108.442 332.004 107.477C332.004 106.313 332.087 105.264 332.254 104.333C332.42 103.401 332.653 102.569 332.952 101.838C333.251 101.106 333.667 100.457 334.199 99.8912C334.731 99.3255 335.296 98.8431 335.895 98.4439C336.493 98.0113 337.258 97.662 338.189 97.3958C339.154 97.0964 340.101 96.8635 341.032 96.6971C341.997 96.5308 343.177 96.3977 344.574 96.2979C345.97 96.1981 347.334 96.1315 348.664 96.0982C350.027 96.065 351.64 96.0483 353.502 96.0483ZM379.846 130.983V95.9485H391.468V130.983H379.846ZM439.481 130.983H423.62L406.461 109.873V130.983H394.84V95.9485H411.05L427.909 116.71V95.9485H439.481V130.983ZM443.169 95.9485H481.825V105.68H454.791V108.775H480.129V118.107H454.791V121.251H481.825V130.983H443.169V95.9485ZM505.33 96.0483C508.456 96.0483 511.132 96.1315 513.36 96.2979C515.588 96.431 517.567 96.6971 519.296 97.0964C521.025 97.4956 522.405 97.9947 523.436 98.5936C524.5 99.1592 525.364 99.9411 526.029 100.939C526.728 101.937 527.21 103.052 527.476 104.283C527.742 105.481 527.875 106.961 527.875 108.725H515.505C515.505 108.192 515.405 107.776 515.206 107.477C515.04 107.178 514.64 106.895 514.009 106.629C513.377 106.329 512.379 106.13 511.016 106.03C509.653 105.897 507.857 105.83 505.629 105.83C502.67 105.83 500.508 105.897 499.145 106.03C497.782 106.163 496.917 106.329 496.551 106.529C496.185 106.728 496.002 107.078 496.002 107.577C496.036 108.009 496.485 108.309 497.349 108.475C498.247 108.608 500.907 108.858 505.33 109.224C505.396 109.224 505.446 109.24 505.479 109.274C514.258 109.972 519.828 110.605 522.189 111.17C525.281 111.902 527.276 113.15 528.174 114.913C528.773 116.111 529.072 117.841 529.072 120.103C529.072 121.7 528.956 123.015 528.723 124.046C528.523 125.077 528.091 126.026 527.426 126.891C526.794 127.756 525.963 128.438 524.932 128.937C523.901 129.403 522.471 129.802 520.643 130.135C518.814 130.467 516.719 130.7 514.358 130.833C512.03 130.933 509.121 130.983 505.629 130.983C503.235 130.983 501.157 130.95 499.394 130.883C497.665 130.817 496.036 130.7 494.506 130.534C493.01 130.368 491.763 130.151 490.765 129.885C489.768 129.619 488.87 129.253 488.072 128.787C487.274 128.321 486.642 127.822 486.176 127.29C485.744 126.724 485.378 126.009 485.079 125.144C484.78 124.279 484.58 123.364 484.481 122.399C484.381 121.434 484.331 120.286 484.331 118.956H496.352C496.352 119.521 496.435 119.954 496.601 120.253C496.801 120.553 497.249 120.802 497.948 121.002C498.646 121.201 499.61 121.334 500.841 121.401C502.104 121.468 503.883 121.501 506.178 121.501C506.444 121.501 506.843 121.501 507.375 121.501C511.166 121.501 513.46 121.434 514.258 121.301C515.089 121.168 515.505 120.736 515.505 120.004C515.505 119.571 515.222 119.288 514.657 119.155C514.092 119.022 512.529 118.872 509.969 118.706C508.106 118.573 506.56 118.457 505.33 118.357C503.368 118.19 501.855 118.057 500.791 117.957C499.76 117.858 498.463 117.725 496.9 117.558C495.371 117.359 494.207 117.176 493.409 117.009C492.611 116.81 491.663 116.577 490.566 116.311C489.468 116.011 488.637 115.678 488.072 115.312C487.54 114.946 486.941 114.514 486.276 114.015C485.644 113.516 485.179 112.95 484.88 112.318C484.614 111.686 484.364 110.97 484.131 110.172C483.932 109.34 483.832 108.442 483.832 107.477C483.832 106.313 483.915 105.264 484.082 104.333C484.248 103.401 484.481 102.569 484.78 101.838C485.079 101.106 485.495 100.457 486.027 99.8912C486.559 99.3255 487.124 98.8431 487.723 98.4439C488.321 98.0113 489.086 97.662 490.017 97.3958C490.981 97.0964 491.929 96.8635 492.86 96.6971C493.824 96.5308 495.005 96.3977 496.402 96.2979C497.798 96.1981 499.161 96.1315 500.492 96.0982C501.855 96.065 503.468 96.0483 505.33 96.0483ZM552.773 96.0483C555.899 96.0483 558.575 96.1315 560.803 96.2979C563.031 96.431 565.01 96.6971 566.739 97.0964C568.468 97.4956 569.848 97.9947 570.879 98.5936C571.943 99.1592 572.808 99.9411 573.473 100.939C574.171 101.937 574.653 103.052 574.919 104.283C575.185 105.481 575.318 106.961 575.318 108.725H562.948C562.948 108.192 562.848 107.776 562.649 107.477C562.483 107.178 562.084 106.895 561.452 106.629C560.82 106.329 559.822 106.13 558.459 106.03C557.096 105.897 555.3 105.83 553.072 105.83C550.113 105.83 547.951 105.897 546.588 106.03C545.225 106.163 544.36 106.329 543.994 106.529C543.629 106.728 543.446 107.078 543.446 107.577C543.479 108.009 543.928 108.309 544.792 108.475C545.69 108.608 548.35 108.858 552.773 109.224C552.839 109.224 552.889 109.24 552.923 109.274C561.701 109.972 567.271 110.605 569.632 111.17C572.724 111.902 574.72 113.15 575.617 114.913C576.216 116.111 576.515 117.841 576.515 120.103C576.515 121.7 576.399 123.015 576.166 124.046C575.967 125.077 575.534 126.026 574.869 126.891C574.237 127.756 573.406 128.438 572.375 128.937C571.344 129.403 569.915 129.802 568.086 130.135C566.257 130.467 564.162 130.7 561.801 130.833C559.473 130.933 556.564 130.983 553.072 130.983C550.678 130.983 548.6 130.95 546.837 130.883C545.108 130.817 543.479 130.7 541.949 130.534C540.453 130.368 539.206 130.151 538.208 129.885C537.211 129.619 536.313 129.253 535.515 128.787C534.717 128.321 534.085 127.822 533.62 127.29C533.187 126.724 532.821 126.009 532.522 125.144C532.223 124.279 532.023 123.364 531.924 122.399C531.824 121.434 531.774 120.286 531.774 118.956H543.795C543.795 119.521 543.878 119.954 544.044 120.253C544.244 120.553 544.693 120.802 545.391 121.002C546.089 121.201 547.054 121.334 548.284 121.401C549.547 121.468 551.326 121.501 553.621 121.501C553.887 121.501 554.286 121.501 554.818 121.501C558.609 121.501 560.903 121.434 561.701 121.301C562.533 121.168 562.948 120.736 562.948 120.004C562.948 119.571 562.666 119.288 562.1 119.155C561.535 119.022 559.972 118.872 557.412 118.706C555.55 118.573 554.003 118.457 552.773 118.357C550.811 118.19 549.298 118.057 548.234 117.957C547.203 117.858 545.906 117.725 544.343 117.558C542.814 117.359 541.65 117.176 540.852 117.009C540.054 116.81 539.106 116.577 538.009 116.311C536.912 116.011 536.08 115.678 535.515 115.312C534.983 114.946 534.384 114.514 533.719 114.015C533.088 113.516 532.622 112.95 532.323 112.318C532.057 111.686 531.807 110.97 531.575 110.172C531.375 109.34 531.275 108.442 531.275 107.477C531.275 106.313 531.358 105.264 531.525 104.333C531.691 103.401 531.924 102.569 532.223 101.838C532.522 101.106 532.938 100.457 533.47 99.8912C534.002 99.3255 534.567 98.8431 535.166 98.4439C535.764 98.0113 536.529 97.662 537.46 97.3958C538.425 97.0964 539.372 96.8635 540.303 96.6971C541.268 96.5308 542.448 96.3977 543.845 96.2979C545.241 96.1981 546.605 96.1315 547.935 96.0982C549.298 96.065 550.911 96.0483 552.773 96.0483ZM671.261 95.9485L656.596 130.833L656.646 130.983H645.424L645.474 130.833L637.194 112.318L629.014 130.983H617.791L602.927 95.9485H615.197L623.377 115.762L631.557 95.9485H642.68L650.96 115.562L659.041 95.9485H671.261ZM674.393 130.983V95.9485H686.015V130.983H674.393ZM689.143 95.9485H735.381V107.527H718.073V130.983H706.501V107.527H689.143V95.9485ZM770.616 95.9485H782.238V130.983H770.616V118.806H749.767V130.983H738.145V95.9485H749.767V108.076H770.616V95.9485ZM36.718 144.915L52.4297 179.85H38.9625L36.3189 173.961H19.011L16.3675 179.85H3L18.6619 144.915H36.718ZM23.151 163.88H32.179L27.64 154.697L23.151 163.88ZM54.043 144.816H79.7804C80.4454 144.816 81.0772 144.832 81.6757 144.866C82.2743 144.899 83.1056 145.015 84.1697 145.215C85.267 145.381 86.248 145.631 87.1125 145.964C88.0103 146.263 88.958 146.745 89.9556 147.411C90.9532 148.043 91.7845 148.808 92.4495 149.707C93.1478 150.572 93.7131 151.686 94.1454 153.05C94.6109 154.414 94.8437 155.962 94.8437 157.692C94.8437 163.215 92.6989 167.157 88.4094 169.52L95.5919 179.85L82.1745 179.8L76.1891 171.566H65.6647V179.85H54.043V144.816ZM78.683 161.335C81.576 161.335 83.0225 160.237 83.0225 158.041C83.0225 156.045 81.5095 155.047 78.4835 155.047H65.6647V161.335H78.683ZM96.6152 144.816H142.853V156.394H125.545V179.85H113.973V156.394H96.6152V144.816ZM146.016 179.85V144.816H157.638V179.85H146.016ZM161.886 144.766H199.445V155.446H173.508V158.839H193.808V169.12H173.508V179.85H161.886V144.766ZM202.568 179.85V144.816H214.19V179.85H202.568ZM240.374 144.516C244.764 144.516 248.538 144.899 251.697 145.664C254.856 146.396 257.35 147.477 259.179 148.908C261.007 150.305 262.338 151.936 263.169 153.799C264 155.662 264.416 157.825 264.416 160.287H252.495C252.462 160.12 252.395 159.904 252.295 159.638C252.229 159.372 251.946 158.923 251.447 158.291C250.949 157.625 250.3 157.043 249.502 156.544C248.704 156.011 247.49 155.546 245.861 155.146C244.265 154.714 242.403 154.498 240.275 154.498C238.379 154.498 236.717 154.647 235.287 154.947C233.89 155.246 232.776 155.629 231.945 156.095C231.147 156.56 230.498 157.159 230 157.891C229.534 158.59 229.218 159.289 229.052 159.987C228.886 160.653 228.803 161.401 228.803 162.233C228.803 163.398 228.985 164.429 229.351 165.327C229.717 166.226 230.315 167.057 231.147 167.823C231.978 168.555 233.159 169.12 234.688 169.52C236.218 169.919 238.08 170.118 240.275 170.118C242.536 170.118 244.498 169.952 246.16 169.619C247.823 169.287 249.037 168.887 249.801 168.422C250.566 167.956 251.165 167.49 251.597 167.024C252.063 166.525 252.329 166.109 252.395 165.777L252.495 165.277H264.416C264.416 166.974 264.2 168.521 263.767 169.919C263.335 171.283 262.57 172.614 261.473 173.911C260.376 175.209 258.946 176.29 257.183 177.155C255.454 178.02 253.193 178.719 250.4 179.251C247.607 179.75 244.365 180 240.674 180C236.151 180 232.361 179.667 229.301 179.002C226.242 178.303 223.781 177.222 221.919 175.758C220.09 174.261 218.777 172.464 217.979 170.368C217.181 168.272 216.782 165.693 216.782 162.632C216.782 159.339 217.281 156.527 218.278 154.198C219.309 151.836 220.839 149.956 222.867 148.559C224.895 147.128 227.339 146.097 230.199 145.464C233.059 144.832 236.451 144.516 240.374 144.516ZM296.097 144.915L311.808 179.85H298.341L295.698 173.961H278.39L275.746 179.85H262.379L278.04 144.915H296.097ZM282.53 163.88H291.558L287.019 154.697L282.53 163.88ZM325.043 168.222H350.432V179.85H313.422V144.816H325.043V168.222ZM377.24 179.85V144.816H388.862V179.85H377.24ZM436.875 179.85H421.014L403.855 158.74V179.85H392.234V144.816H408.444L425.303 165.577V144.816H436.875V179.85ZM439.628 144.816H485.866V156.394H468.558V179.85H456.986V156.394H439.628V144.816ZM489.029 144.816H527.685V154.547H500.651V157.642H525.989V166.974H500.651V170.118H527.685V179.85H489.029V144.816ZM542.97 168.222H568.358V179.85H531.348V144.816H542.97V168.222ZM571.494 179.85V144.816H583.116V179.85H571.494ZM604.812 159.339H633.342V179.85H624.015V176.207C622.519 177.505 620.723 178.47 618.628 179.102C616.566 179.701 613.557 180 609.6 180C606.042 180 602.9 179.717 600.173 179.152C597.446 178.586 595.169 177.821 593.34 176.856C591.544 175.858 590.064 174.627 588.9 173.163C587.77 171.666 586.955 170.069 586.456 168.372C585.958 166.675 585.708 164.762 585.708 162.632C585.708 160.204 586.124 157.991 586.955 155.995C587.787 153.965 588.917 152.252 590.347 150.854C591.81 149.457 593.523 148.276 595.484 147.311C597.48 146.346 599.624 145.647 601.919 145.215C604.246 144.749 606.707 144.516 609.301 144.516C612.859 144.516 615.918 144.732 618.478 145.165C621.072 145.598 623.217 146.263 624.913 147.161C626.642 148.06 628.039 149.091 629.103 150.256C630.2 151.387 631.164 152.801 631.996 154.498L621.122 158.141C619.426 155.712 615.453 154.498 609.201 154.498C606.807 154.498 604.812 154.697 603.216 155.096C601.62 155.496 600.406 156.095 599.574 156.893C598.743 157.658 598.161 158.507 597.829 159.438C597.496 160.37 597.33 161.485 597.33 162.782C597.33 163.98 597.48 165.011 597.779 165.876C598.078 166.708 598.627 167.49 599.425 168.222C600.256 168.954 601.487 169.52 603.116 169.919C604.745 170.285 606.774 170.468 609.201 170.468C610.897 170.468 612.343 170.401 613.54 170.268C614.738 170.102 615.702 169.852 616.433 169.52C617.165 169.187 617.68 168.904 617.98 168.671C618.312 168.438 618.728 168.072 619.227 167.573H604.812V159.339ZM636.424 144.816H675.08V154.547H648.046V157.642H673.384V166.974H648.046V170.118H675.08V179.85H636.424V144.816ZM722.313 179.85H706.452L689.294 158.74V179.85H677.672V144.816H693.883L710.742 165.577V144.816H722.313V179.85ZM748.221 144.516C752.61 144.516 756.384 144.899 759.543 145.664C762.702 146.396 765.196 147.477 767.025 148.908C768.854 150.305 770.184 151.936 771.015 153.799C771.846 155.662 772.262 157.825 772.262 160.287H760.341C760.308 160.12 760.241 159.904 760.142 159.638C760.075 159.372 759.792 158.923 759.294 158.291C758.795 157.625 758.146 157.043 757.348 156.544C756.55 156.011 755.337 155.546 753.707 155.146C752.111 154.714 750.249 154.498 748.121 154.498C746.225 154.498 744.563 154.647 743.133 154.947C741.736 155.246 740.622 155.629 739.791 156.095C738.993 156.56 738.345 157.159 737.846 157.891C737.38 158.59 737.064 159.289 736.898 159.987C736.732 160.653 736.649 161.401 736.649 162.233C736.649 163.398 736.832 164.429 737.197 165.327C737.563 166.226 738.162 167.057 738.993 167.823C739.824 168.555 741.005 169.12 742.534 169.52C744.064 169.919 745.926 170.118 748.121 170.118C750.382 170.118 752.344 169.952 754.007 169.619C755.669 169.287 756.883 168.887 757.648 168.422C758.412 167.956 759.011 167.49 759.443 167.024C759.909 166.525 760.175 166.109 760.241 165.777L760.341 165.277H772.262C772.262 166.974 772.046 168.521 771.614 169.919C771.181 171.283 770.417 172.614 769.319 173.911C768.222 175.209 766.792 176.29 765.03 177.155C763.301 178.02 761.039 178.719 758.246 179.251C755.453 179.75 752.211 180 748.52 180C743.998 180 740.207 179.667 737.148 179.002C734.088 178.303 731.628 177.222 729.766 175.758C727.937 174.261 726.623 172.464 725.825 170.368C725.027 168.272 724.628 165.693 724.628 162.632C724.628 159.339 725.127 156.527 726.124 154.198C727.155 151.836 728.685 149.956 730.713 148.559C732.742 147.128 735.186 146.097 738.045 145.464C740.905 144.832 744.297 144.516 748.221 144.516ZM775.344 144.816H814V154.547H786.966V157.642H812.304V166.974H786.966V170.118H814V179.85H775.344V144.816Z" fill="#40E8CA" style="fill:#40E8CA;fill:color(display-p3 0.2510 0.9098 0.7912);fill-opacity:1;"/>
<mask id="path-2-outside-1_2333_6847" maskUnits="userSpaceOnUse" x="-1" y="188" width="817" height="184" fill="black">
<rect fill="white" x="-1" y="188" width="817" height="184"/>
<path d="M29.8793 191.267H86.6259C88.1606 191.267 89.6186 191.305 90.9998 191.382C92.3811 191.459 94.2995 191.728 96.7551 192.188C99.2873 192.572 101.551 193.186 103.546 194.031C105.618 194.799 107.805 195.95 110.107 197.486C112.409 199.022 114.328 200.864 115.862 203.014C117.474 205.087 118.778 207.813 119.776 211.191C120.85 214.493 121.387 218.217 121.387 222.363C121.387 226.432 120.889 230.156 119.891 233.534C118.97 236.912 117.742 239.753 116.208 242.057C114.673 244.283 112.831 246.28 110.683 248.046C108.534 249.735 106.424 251.078 104.352 252.076C102.28 252.998 100.093 253.766 97.791 254.38C95.5656 254.917 93.6472 255.301 92.0358 255.532C90.4243 255.685 88.9279 255.762 87.5467 255.762H56.6987V272.116H29.8793V191.267ZM85.8201 231.922C92.8799 231.922 96.4097 229.004 96.4097 223.169C96.4097 221.864 96.2179 220.75 95.8342 219.829C95.5273 218.908 95.0285 218.178 94.3379 217.641C93.6472 217.026 92.9566 216.527 92.266 216.144C91.5753 215.76 90.7312 215.529 89.7337 215.453C88.8128 215.299 88.0455 215.184 87.4316 215.107C86.8177 215.03 86.1271 214.992 85.3597 214.992H56.6987V231.922H85.8201ZM178.727 190C186.017 190 192.462 190.422 198.064 191.267C203.666 192.035 208.846 193.378 213.603 195.298C218.361 197.217 222.236 199.751 225.229 202.899C228.298 205.97 230.677 209.886 232.365 214.646C234.053 219.33 234.898 224.858 234.898 231.231C234.898 237.527 234.13 242.978 232.595 247.585C231.137 252.192 228.989 256.107 226.15 259.332C223.387 262.48 219.704 265.052 215.1 267.049C210.572 268.968 205.431 270.35 199.676 271.195C193.92 272.039 187.206 272.462 179.532 272.462C160.502 272.462 146.651 269.006 137.98 262.096C129.385 255.109 125.088 244.322 125.088 229.734C125.088 216.22 129.5 206.239 138.325 199.789C147.15 193.263 160.617 190 178.727 190ZM179.762 251.27C187.897 251.27 194.189 249.62 198.64 246.318C203.09 243.016 205.316 237.987 205.316 231.231C205.316 224.704 202.975 219.752 198.294 216.374C193.613 212.919 187.321 211.191 179.417 211.191C175.273 211.191 171.628 211.652 168.482 212.573C165.336 213.418 162.727 214.723 160.655 216.489C158.66 218.255 157.164 220.366 156.166 222.823C155.169 225.28 154.67 228.083 154.67 231.231C154.67 237.296 156.78 242.172 161 245.857C165.221 249.466 171.475 251.27 179.762 251.27ZM384.846 191.267L351.006 271.77L351.121 272.116H325.222L325.337 271.77L306.23 229.043L287.353 272.116H261.454L227.153 191.267H255.469L274.346 236.989L293.223 191.267H318.892L337.999 236.529L356.646 191.267H384.846ZM388.254 191.267H477.46V213.725H415.073V220.865H473.546V242.402H415.073V249.658H477.46V272.116H388.254V191.267ZM485.914 191.267H545.308C546.842 191.267 548.3 191.305 549.682 191.382C551.063 191.459 552.981 191.728 555.437 192.188C557.969 192.572 560.233 193.148 562.228 193.916C564.3 194.607 566.487 195.72 568.789 197.256C571.091 198.715 573.009 200.48 574.544 202.553C576.156 204.55 577.46 207.122 578.458 210.27C579.532 213.418 580.069 216.988 580.069 220.981C580.069 233.726 575.12 242.825 565.221 248.276L581.796 272.116L550.833 272.001L537.02 252.998H512.733V272.116H485.914V191.267ZM542.775 229.388C549.451 229.388 552.789 226.854 552.789 221.787C552.789 217.18 549.298 214.877 542.315 214.877H512.733V229.388H542.775ZM637.656 272.116C625.609 272.116 615.556 270.926 607.499 268.546C599.442 266.166 593.878 262.058 590.809 256.223C588.583 251.846 587.087 246.433 586.32 239.984C585.552 233.457 585.169 223.668 585.169 210.615L585.284 191.267H613.6V227.43C613.6 229.734 613.715 231.807 613.945 233.649C614.175 235.415 614.751 237.373 615.671 239.523C616.669 241.673 618.012 243.477 619.7 244.936C621.388 246.318 623.767 247.508 626.837 248.506C629.906 249.428 633.513 249.888 637.656 249.888C641.877 249.888 645.483 249.428 648.476 248.506C651.546 247.508 653.848 246.318 655.382 244.936C656.994 243.554 658.26 241.788 659.181 239.638C660.102 237.412 660.639 235.415 660.792 233.649C661.023 231.883 661.138 229.81 661.138 227.43V191.267H689.453V210.615C689.53 223.668 689.185 233.457 688.417 239.984C687.65 246.433 686.154 251.846 683.928 256.223C682.317 259.294 680.015 261.904 677.022 264.054C674.106 266.127 670.576 267.74 666.433 268.891C662.289 270.043 657.915 270.888 653.311 271.425C648.706 271.886 643.488 272.116 637.656 272.116ZM695.777 191.267H752.524C754.058 191.267 755.516 191.305 756.898 191.382C758.279 191.459 760.197 191.728 762.653 192.188C765.185 192.572 767.449 193.186 769.444 194.031C771.516 194.799 773.703 195.95 776.005 197.486C778.307 199.022 780.225 200.864 781.76 203.014C783.372 205.087 784.676 207.813 785.674 211.191C786.748 214.493 787.285 218.217 787.285 222.363C787.285 226.432 786.786 230.156 785.789 233.534C784.868 236.912 783.64 239.753 782.105 242.057C780.571 244.283 778.729 246.28 776.58 248.046C774.432 249.735 772.322 251.078 770.25 252.076C768.178 252.998 765.991 253.766 763.689 254.38C761.463 254.917 759.545 255.301 757.933 255.532C756.322 255.685 754.826 255.762 753.444 255.762H722.596V272.116H695.777V191.267ZM751.718 231.922C758.778 231.922 762.307 229.004 762.307 223.169C762.307 221.864 762.116 220.75 761.732 219.829C761.425 218.908 760.926 218.178 760.236 217.641C759.545 217.026 758.854 216.527 758.164 216.144C757.473 215.76 756.629 215.529 755.631 215.453C754.711 215.299 753.943 215.184 753.329 215.107C752.715 215.03 752.025 214.992 751.257 214.992H722.596V231.922H751.718Z"/>
<path d="M66.6473 285.949H80.3639L63.4052 310.702V320.983H51.8333V310.702L34.9245 285.949H48.6411L57.6192 298.026L66.6473 285.949ZM99.2301 285.4C102.389 285.4 105.182 285.583 107.61 285.949C110.037 286.281 112.282 286.863 114.343 287.695C116.405 288.527 118.084 289.625 119.381 290.989C120.711 292.32 121.742 294.017 122.474 296.08C123.205 298.109 123.571 300.505 123.571 303.266C123.571 305.994 123.238 308.357 122.573 310.353C121.941 312.349 121.01 314.046 119.78 315.443C118.583 316.808 116.987 317.922 114.992 318.787C113.03 319.619 110.802 320.218 108.308 320.584C105.814 320.95 102.904 321.133 99.5792 321.133C91.3326 321.133 85.3306 319.636 81.5731 316.641C77.8488 313.614 75.9867 308.939 75.9867 302.617C75.9867 296.762 77.8987 292.436 81.7227 289.642C85.5467 286.814 91.3825 285.4 99.2301 285.4ZM99.679 311.95C103.204 311.95 105.93 311.235 107.859 309.804C109.788 308.373 110.752 306.194 110.752 303.266C110.752 300.438 109.738 298.292 107.709 296.828C105.681 295.331 102.954 294.582 99.5294 294.582C97.7337 294.582 96.1542 294.782 94.7909 295.181C93.4275 295.547 92.297 296.113 91.3992 296.878C90.5346 297.643 89.8862 298.558 89.4539 299.623C89.0216 300.688 88.8055 301.902 88.8055 303.266C88.8055 305.895 89.7199 308.007 91.5488 309.604C93.3777 311.168 96.0877 311.95 99.679 311.95ZM149 320.983C143.779 320.983 139.423 320.467 135.931 319.436C132.44 318.405 130.029 316.625 128.699 314.096C127.735 312.2 127.086 309.854 126.754 307.059C126.421 304.231 126.255 299.989 126.255 294.333L126.305 285.949H138.575V301.619C138.575 302.617 138.625 303.516 138.725 304.314C138.824 305.079 139.074 305.928 139.473 306.859C139.905 307.791 140.487 308.573 141.219 309.205C141.95 309.804 142.981 310.32 144.311 310.752C145.641 311.151 147.204 311.351 149 311.351C150.828 311.351 152.391 311.151 153.688 310.752C155.018 310.32 156.016 309.804 156.681 309.205C157.379 308.606 157.928 307.841 158.327 306.909C158.726 305.945 158.959 305.079 159.025 304.314C159.125 303.549 159.175 302.651 159.175 301.619V285.949H171.445V294.333C171.478 299.989 171.329 304.231 170.996 307.059C170.664 309.854 170.015 312.2 169.051 314.096C168.353 315.427 167.355 316.558 166.058 317.49C164.795 318.388 163.265 319.087 161.469 319.586C159.674 320.085 157.778 320.451 155.783 320.684C153.788 320.883 151.527 320.983 149 320.983ZM174.185 285.949H199.923C200.588 285.949 201.219 285.965 201.818 285.998C202.417 286.032 203.248 286.148 204.312 286.348C205.409 286.514 206.39 286.764 207.255 287.096C208.153 287.396 209.1 287.878 210.098 288.544C211.095 289.176 211.927 289.941 212.592 290.839C213.29 291.704 213.855 292.819 214.288 294.183C214.753 295.547 214.986 297.094 214.986 298.824C214.986 304.348 212.841 308.29 208.552 310.652L215.734 320.983L202.317 320.933L196.331 312.699H185.807V320.983H174.185V285.949ZM198.825 302.468C201.718 302.468 203.165 301.37 203.165 299.174C203.165 297.178 201.652 296.179 198.626 296.179H185.807V302.468H198.825ZM283.037 311.151C283.037 312.815 282.854 314.229 282.488 315.394C282.156 316.525 281.54 317.54 280.643 318.438C279.778 319.303 278.548 319.952 276.952 320.384C275.355 320.784 273.377 320.983 271.016 320.983H242.086V285.949H267.026C269.387 285.949 271.382 286.132 273.011 286.497C274.674 286.863 275.987 287.446 276.952 288.244C277.949 289.009 278.664 289.924 279.096 290.989C279.529 292.021 279.745 293.268 279.745 294.732C279.745 297.893 278.947 300.172 277.351 301.569C278.049 301.769 278.697 302.085 279.296 302.518C279.928 302.917 280.543 303.482 281.141 304.214C281.74 304.913 282.205 305.861 282.538 307.059C282.87 308.257 283.037 309.621 283.037 311.151ZM253.758 295.68V299.024H266.876C267.342 299.024 267.724 298.858 268.023 298.525C268.356 298.192 268.522 297.793 268.522 297.327C268.522 296.861 268.356 296.479 268.023 296.179C267.724 295.847 267.342 295.68 266.876 295.68H253.758ZM270.816 311.301C271.315 311.301 271.731 311.135 272.063 310.802C272.396 310.469 272.562 310.07 272.562 309.604C272.562 309.105 272.396 308.689 272.063 308.357C271.731 308.024 271.315 307.858 270.816 307.858H253.758V311.301H270.816ZM307.355 320.983C302.134 320.983 297.778 320.467 294.286 319.436C290.795 318.405 288.384 316.625 287.054 314.096C286.09 312.2 285.441 309.854 285.109 307.059C284.776 304.231 284.61 299.989 284.61 294.333L284.66 285.949H296.93V301.619C296.93 302.617 296.98 303.516 297.08 304.314C297.179 305.079 297.429 305.928 297.828 306.859C298.26 307.791 298.842 308.573 299.573 309.205C300.305 309.804 301.336 310.32 302.666 310.752C303.996 311.151 305.559 311.351 307.355 311.351C309.183 311.351 310.746 311.151 312.043 310.752C313.373 310.32 314.371 309.804 315.036 309.205C315.734 308.606 316.283 307.841 316.682 306.909C317.081 305.945 317.314 305.079 317.38 304.314C317.48 303.549 317.53 302.651 317.53 301.619V285.949H329.8V294.333C329.833 299.989 329.684 304.231 329.351 307.059C329.018 309.854 328.37 312.2 327.406 314.096C326.707 315.427 325.71 316.558 324.413 317.49C323.149 318.388 321.62 319.087 319.824 319.586C318.029 320.085 316.133 320.451 314.138 320.684C312.143 320.883 309.882 320.983 307.355 320.983ZM353.502 286.048C356.628 286.048 359.305 286.132 361.532 286.298C363.76 286.431 365.739 286.697 367.468 287.096C369.197 287.496 370.577 287.995 371.608 288.594C372.672 289.159 373.537 289.941 374.202 290.939C374.9 291.937 375.382 293.052 375.648 294.283C375.914 295.481 376.047 296.961 376.047 298.725H363.677C363.677 298.192 363.577 297.776 363.378 297.477C363.212 297.178 362.813 296.895 362.181 296.629C361.549 296.329 360.551 296.13 359.188 296.03C357.825 295.897 356.029 295.83 353.801 295.83C350.842 295.83 348.68 295.897 347.317 296.03C345.954 296.163 345.089 296.329 344.723 296.529C344.358 296.728 344.175 297.078 344.175 297.577C344.208 298.009 344.657 298.309 345.521 298.475C346.419 298.608 349.079 298.858 353.502 299.224C353.568 299.224 353.618 299.24 353.652 299.274C362.43 299.972 368 300.605 370.361 301.17C373.453 301.902 375.449 303.15 376.346 304.913C376.945 306.111 377.244 307.841 377.244 310.103C377.244 311.7 377.128 313.015 376.895 314.046C376.696 315.077 376.263 316.026 375.598 316.891C374.966 317.756 374.135 318.438 373.104 318.937C372.073 319.403 370.644 319.802 368.815 320.135C366.986 320.467 364.891 320.7 362.53 320.833C360.202 320.933 357.293 320.983 353.801 320.983C351.407 320.983 349.329 320.95 347.566 320.883C345.837 320.817 344.208 320.7 342.678 320.534C341.182 320.368 339.935 320.151 338.937 319.885C337.94 319.619 337.042 319.253 336.244 318.787C335.446 318.321 334.814 317.822 334.349 317.29C333.916 316.724 333.551 316.009 333.251 315.144C332.952 314.279 332.752 313.364 332.653 312.399C332.553 311.434 332.503 310.286 332.503 308.956H344.524C344.524 309.521 344.607 309.954 344.773 310.253C344.973 310.553 345.422 310.802 346.12 311.002C346.818 311.201 347.783 311.334 349.013 311.401C350.276 311.468 352.056 311.501 354.35 311.501C354.616 311.501 355.015 311.501 355.547 311.501C359.338 311.501 361.632 311.434 362.43 311.301C363.262 311.168 363.677 310.736 363.677 310.004C363.677 309.571 363.395 309.288 362.829 309.155C362.264 309.022 360.701 308.872 358.141 308.706C356.279 308.573 354.732 308.457 353.502 308.357C351.54 308.19 350.027 308.057 348.963 307.957C347.932 307.858 346.635 307.725 345.073 307.558C343.543 307.359 342.379 307.176 341.581 307.009C340.783 306.81 339.835 306.577 338.738 306.311C337.641 306.011 336.809 305.678 336.244 305.312C335.712 304.946 335.113 304.514 334.448 304.015C333.817 303.516 333.351 302.95 333.052 302.318C332.786 301.686 332.536 300.97 332.304 300.172C332.104 299.34 332.004 298.442 332.004 297.477C332.004 296.313 332.087 295.264 332.254 294.333C332.42 293.401 332.653 292.569 332.952 291.838C333.251 291.106 333.667 290.457 334.199 289.891C334.731 289.326 335.296 288.843 335.895 288.444C336.493 288.011 337.258 287.662 338.189 287.396C339.154 287.096 340.101 286.863 341.032 286.697C341.997 286.531 343.177 286.398 344.574 286.298C345.97 286.198 347.334 286.132 348.664 286.098C350.027 286.065 351.64 286.048 353.502 286.048ZM379.846 320.983V285.949H391.468V320.983H379.846ZM439.481 320.983H423.62L406.461 299.873V320.983H394.84V285.949H411.05L427.909 306.71V285.949H439.481V320.983ZM443.169 285.949H481.825V295.68H454.791V298.775H480.129V308.107H454.791V311.251H481.825V320.983H443.169V285.949ZM505.33 286.048C508.456 286.048 511.132 286.132 513.36 286.298C515.588 286.431 517.567 286.697 519.296 287.096C521.025 287.496 522.405 287.995 523.436 288.594C524.5 289.159 525.364 289.941 526.029 290.939C526.728 291.937 527.21 293.052 527.476 294.283C527.742 295.481 527.875 296.961 527.875 298.725H515.505C515.505 298.192 515.405 297.776 515.206 297.477C515.04 297.178 514.64 296.895 514.009 296.629C513.377 296.329 512.379 296.13 511.016 296.03C509.653 295.897 507.857 295.83 505.629 295.83C502.67 295.83 500.508 295.897 499.145 296.03C497.782 296.163 496.917 296.329 496.551 296.529C496.185 296.728 496.002 297.078 496.002 297.577C496.036 298.009 496.485 298.309 497.349 298.475C498.247 298.608 500.907 298.858 505.33 299.224C505.396 299.224 505.446 299.24 505.479 299.274C514.258 299.972 519.828 300.605 522.189 301.17C525.281 301.902 527.276 303.15 528.174 304.913C528.773 306.111 529.072 307.841 529.072 310.103C529.072 311.7 528.956 313.015 528.723 314.046C528.523 315.077 528.091 316.026 527.426 316.891C526.794 317.756 525.963 318.438 524.932 318.937C523.901 319.403 522.471 319.802 520.643 320.135C518.814 320.467 516.719 320.7 514.358 320.833C512.03 320.933 509.121 320.983 505.629 320.983C503.235 320.983 501.157 320.95 499.394 320.883C497.665 320.817 496.036 320.7 494.506 320.534C493.01 320.368 491.763 320.151 490.765 319.885C489.768 319.619 488.87 319.253 488.072 318.787C487.274 318.321 486.642 317.822 486.176 317.29C485.744 316.724 485.378 316.009 485.079 315.144C484.78 314.279 484.58 313.364 484.481 312.399C484.381 311.434 484.331 310.286 484.331 308.956H496.352C496.352 309.521 496.435 309.954 496.601 310.253C496.801 310.553 497.249 310.802 497.948 311.002C498.646 311.201 499.61 311.334 500.841 311.401C502.104 311.468 503.883 311.501 506.178 311.501C506.444 311.501 506.843 311.501 507.375 311.501C511.166 311.501 513.46 311.434 514.258 311.301C515.089 311.168 515.505 310.736 515.505 310.004C515.505 309.571 515.222 309.288 514.657 309.155C514.092 309.022 512.529 308.872 509.969 308.706C508.106 308.573 506.56 308.457 505.33 308.357C503.368 308.19 501.855 308.057 500.791 307.957C499.76 307.858 498.463 307.725 496.9 307.558C495.371 307.359 494.207 307.176 493.409 307.009C492.611 306.81 491.663 306.577 490.566 306.311C489.468 306.011 488.637 305.678 488.072 305.312C487.54 304.946 486.941 304.514 486.276 304.015C485.644 303.516 485.179 302.95 484.88 302.318C484.614 301.686 484.364 300.97 484.131 300.172C483.932 299.34 483.832 298.442 483.832 297.477C483.832 296.313 483.915 295.264 484.082 294.333C484.248 293.401 484.481 292.569 484.78 291.838C485.079 291.106 485.495 290.457 486.027 289.891C486.559 289.326 487.124 288.843 487.723 288.444C488.321 288.011 489.086 287.662 490.017 287.396C490.981 287.096 491.929 286.863 492.86 286.697C493.824 286.531 495.005 286.398 496.402 286.298C497.798 286.198 499.161 286.132 500.492 286.098C501.855 286.065 503.468 286.048 505.33 286.048ZM552.773 286.048C555.899 286.048 558.575 286.132 560.803 286.298C563.031 286.431 565.01 286.697 566.739 287.096C568.468 287.496 569.848 287.995 570.879 288.594C571.943 289.159 572.808 289.941 573.473 290.939C574.171 291.937 574.653 293.052 574.919 294.283C575.185 295.481 575.318 296.961 575.318 298.725H562.948C562.948 298.192 562.848 297.776 562.649 297.477C562.483 297.178 562.084 296.895 561.452 296.629C560.82 296.329 559.822 296.13 558.459 296.03C557.096 295.897 555.3 295.83 553.072 295.83C550.113 295.83 547.951 295.897 546.588 296.03C545.225 296.163 544.36 296.329 543.994 296.529C543.629 296.728 543.446 297.078 543.446 297.577C543.479 298.009 543.928 298.309 544.792 298.475C545.69 298.608 548.35 298.858 552.773 299.224C552.839 299.224 552.889 299.24 552.923 299.274C561.701 299.972 567.271 300.605 569.632 301.17C572.724 301.902 574.72 303.15 575.617 304.913C576.216 306.111 576.515 307.841 576.515 310.103C576.515 311.7 576.399 313.015 576.166 314.046C575.967 315.077 575.534 316.026 574.869 316.891C574.237 317.756 573.406 318.438 572.375 318.937C571.344 319.403 569.915 319.802 568.086 320.135C566.257 320.467 564.162 320.7 561.801 320.833C559.473 320.933 556.564 320.983 553.072 320.983C550.678 320.983 548.6 320.95 546.837 320.883C545.108 320.817 543.479 320.7 541.949 320.534C540.453 320.368 539.206 320.151 538.208 319.885C537.211 319.619 536.313 319.253 535.515 318.787C534.717 318.321 534.085 317.822 533.62 317.29C533.187 316.724 532.821 316.009 532.522 315.144C532.223 314.279 532.023 313.364 531.924 312.399C531.824 311.434 531.774 310.286 531.774 308.956H543.795C543.795 309.521 543.878 309.954 544.044 310.253C544.244 310.553 544.693 310.802 545.391 311.002C546.089 311.201 547.054 311.334 548.284 311.401C549.547 311.468 551.326 311.501 553.621 311.501C553.887 311.501 554.286 311.501 554.818 311.501C558.609 311.501 560.903 311.434 561.701 311.301C562.533 311.168 562.948 310.736 562.948 310.004C562.948 309.571 562.666 309.288 562.1 309.155C561.535 309.022 559.972 308.872 557.412 308.706C555.55 308.573 554.003 308.457 552.773 308.357C550.811 308.19 549.298 308.057 548.234 307.957C547.203 307.858 545.906 307.725 544.343 307.558C542.814 307.359 541.65 307.176 540.852 307.009C540.054 306.81 539.106 306.577 538.009 306.311C536.912 306.011 536.08 305.678 535.515 305.312C534.983 304.946 534.384 304.514 533.719 304.015C533.088 303.516 532.622 302.95 532.323 302.318C532.057 301.686 531.807 300.97 531.575 300.172C531.375 299.34 531.275 298.442 531.275 297.477C531.275 296.313 531.358 295.264 531.525 294.333C531.691 293.401 531.924 292.569 532.223 291.838C532.522 291.106 532.938 290.457 533.47 289.891C534.002 289.326 534.567 288.843 535.166 288.444C535.764 288.011 536.529 287.662 537.46 287.396C538.425 287.096 539.372 286.863 540.303 286.697C541.268 286.531 542.448 286.398 543.845 286.298C545.241 286.198 546.605 286.132 547.935 286.098C549.298 286.065 550.911 286.048 552.773 286.048ZM671.261 285.949L656.596 320.833L656.646 320.983H645.424L645.474 320.833L637.194 302.318L629.014 320.983H617.791L602.927 285.949H615.197L623.377 305.762L631.557 285.949H642.68L650.96 305.562L659.041 285.949H671.261ZM674.393 320.983V285.949H686.015V320.983H674.393ZM689.143 285.949H735.381V297.527H718.073V320.983H706.501V297.527H689.143V285.949ZM770.616 285.949H782.238V320.983H770.616V308.806H749.767V320.983H738.145V285.949H749.767V298.076H770.616V285.949ZM36.718 334.915L52.4297 369.85H38.9625L36.3189 363.961H19.011L16.3675 369.85H3L18.6619 334.915H36.718ZM23.151 353.88H32.179L27.64 344.697L23.151 353.88ZM54.043 334.816H79.7804C80.4454 334.816 81.0772 334.832 81.6757 334.866C82.2743 334.899 83.1056 335.015 84.1697 335.215C85.267 335.381 86.248 335.631 87.1125 335.964C88.0103 336.263 88.958 336.745 89.9556 337.411C90.9532 338.043 91.7845 338.808 92.4495 339.707C93.1478 340.572 93.7131 341.686 94.1454 343.05C94.6109 344.414 94.8437 345.962 94.8437 347.692C94.8437 353.215 92.6989 357.157 88.4094 359.52L95.5919 369.85L82.1745 369.8L76.1891 361.566H65.6647V369.85H54.043V334.816ZM78.683 351.335C81.576 351.335 83.0225 350.237 83.0225 348.041C83.0225 346.045 81.5095 345.047 78.4835 345.047H65.6647V351.335H78.683ZM96.6152 334.816H142.853V346.394H125.545V369.85H113.973V346.394H96.6152V334.816ZM146.016 369.85V334.816H157.638V369.85H146.016ZM161.886 334.766H199.445V345.446H173.508V348.839H193.808V359.12H173.508V369.85H161.886V334.766ZM202.568 369.85V334.816H214.19V369.85H202.568ZM240.374 334.516C244.764 334.516 248.538 334.899 251.697 335.664C254.856 336.396 257.35 337.477 259.179 338.908C261.007 340.305 262.338 341.936 263.169 343.799C264 345.662 264.416 347.825 264.416 350.287H252.495C252.462 350.12 252.395 349.904 252.295 349.638C252.229 349.372 251.946 348.923 251.447 348.291C250.949 347.625 250.3 347.043 249.502 346.544C248.704 346.011 247.49 345.546 245.861 345.146C244.265 344.714 242.403 344.498 240.275 344.498C238.379 344.498 236.717 344.647 235.287 344.947C233.89 345.246 232.776 345.629 231.945 346.095C231.147 346.56 230.498 347.159 230 347.891C229.534 348.59 229.218 349.289 229.052 349.987C228.886 350.653 228.803 351.401 228.803 352.233C228.803 353.398 228.985 354.429 229.351 355.327C229.717 356.226 230.315 357.057 231.147 357.823C231.978 358.555 233.159 359.12 234.688 359.52C236.218 359.919 238.08 360.118 240.275 360.118C242.536 360.118 244.498 359.952 246.16 359.619C247.823 359.287 249.037 358.887 249.801 358.422C250.566 357.956 251.165 357.49 251.597 357.024C252.063 356.525 252.329 356.109 252.395 355.777L252.495 355.277H264.416C264.416 356.974 264.2 358.521 263.767 359.919C263.335 361.283 262.57 362.614 261.473 363.911C260.376 365.209 258.946 366.29 257.183 367.155C255.454 368.02 253.193 368.719 250.4 369.251C247.607 369.75 244.365 370 240.674 370C236.151 370 232.361 369.667 229.301 369.002C226.242 368.303 223.781 367.222 221.919 365.758C220.09 364.261 218.777 362.464 217.979 360.368C217.181 358.272 216.782 355.693 216.782 352.632C216.782 349.339 217.281 346.527 218.278 344.198C219.309 341.836 220.839 339.956 222.867 338.559C224.895 337.128 227.339 336.097 230.199 335.464C233.059 334.832 236.451 334.516 240.374 334.516ZM296.097 334.915L311.808 369.85H298.341L295.698 363.961H278.39L275.746 369.85H262.379L278.04 334.915H296.097ZM282.53 353.88H291.558L287.019 344.697L282.53 353.88ZM325.043 358.222H350.432V369.85H313.422V334.816H325.043V358.222ZM377.24 369.85V334.816H388.862V369.85H377.24ZM436.875 369.85H421.014L403.855 348.74V369.85H392.234V334.816H408.444L425.303 355.577V334.816H436.875V369.85ZM439.628 334.816H485.866V346.394H468.558V369.85H456.986V346.394H439.628V334.816ZM489.029 334.816H527.685V344.547H500.651V347.642H525.989V356.974H500.651V360.118H527.685V369.85H489.029V334.816ZM542.97 358.222H568.358V369.85H531.348V334.816H542.97V358.222ZM571.494 369.85V334.816H583.116V369.85H571.494ZM604.812 349.339H633.342V369.85H624.015V366.207C622.519 367.505 620.723 368.47 618.628 369.102C616.566 369.701 613.557 370 609.6 370C606.042 370 602.9 369.717 600.173 369.152C597.446 368.586 595.169 367.821 593.34 366.856C591.544 365.858 590.064 364.627 588.9 363.163C587.77 361.666 586.955 360.069 586.456 358.372C585.958 356.675 585.708 354.762 585.708 352.632C585.708 350.204 586.124 347.991 586.955 345.995C587.787 343.965 588.917 342.252 590.347 340.854C591.81 339.457 593.523 338.276 595.484 337.311C597.48 336.346 599.624 335.647 601.919 335.215C604.246 334.749 606.707 334.516 609.301 334.516C612.859 334.516 615.918 334.732 618.478 335.165C621.072 335.598 623.217 336.263 624.913 337.161C626.642 338.06 628.039 339.091 629.103 340.256C630.2 341.387 631.164 342.801 631.996 344.498L621.122 348.141C619.426 345.712 615.453 344.498 609.201 344.498C606.807 344.498 604.812 344.697 603.216 345.096C601.62 345.496 600.406 346.095 599.574 346.893C598.743 347.658 598.161 348.507 597.829 349.438C597.496 350.37 597.33 351.485 597.33 352.782C597.33 353.98 597.48 355.011 597.779 355.876C598.078 356.708 598.627 357.49 599.425 358.222C600.256 358.954 601.487 359.52 603.116 359.919C604.745 360.285 606.774 360.468 609.201 360.468C610.897 360.468 612.343 360.401 613.54 360.268C614.738 360.102 615.702 359.852 616.433 359.52C617.165 359.187 617.68 358.904 617.98 358.671C618.312 358.438 618.728 358.072 619.227 357.573H604.812V349.339ZM636.424 334.816H675.08V344.547H648.046V347.642H673.384V356.974H648.046V360.118H675.08V369.85H636.424V334.816ZM722.313 369.85H706.452L689.294 348.74V369.85H677.672V334.816H693.883L710.742 355.577V334.816H722.313V369.85ZM748.221 334.516C752.61 334.516 756.384 334.899 759.543 335.664C762.702 336.396 765.196 337.477 767.025 338.908C768.854 340.305 770.184 341.936 771.015 343.799C771.846 345.662 772.262 347.825 772.262 350.287H760.341C760.308 350.12 760.241 349.904 760.142 349.638C760.075 349.372 759.792 348.923 759.294 348.291C758.795 347.625 758.146 347.043 757.348 346.544C756.55 346.011 755.337 345.546 753.707 345.146C752.111 344.714 750.249 344.498 748.121 344.498C746.225 344.498 744.563 344.647 743.133 344.947C741.736 345.246 740.622 345.629 739.791 346.095C738.993 346.56 738.345 347.159 737.846 347.891C737.38 348.59 737.064 349.289 736.898 349.987C736.732 350.653 736.649 351.401 736.649 352.233C736.649 353.398 736.832 354.429 737.197 355.327C737.563 356.226 738.162 357.057 738.993 357.823C739.824 358.555 741.005 359.12 742.534 359.52C744.064 359.919 745.926 360.118 748.121 360.118C750.382 360.118 752.344 359.952 754.007 359.619C755.669 359.287 756.883 358.887 757.648 358.422C758.412 357.956 759.011 357.49 759.443 357.024C759.909 356.525 760.175 356.109 760.241 355.777L760.341 355.277H772.262C772.262 356.974 772.046 358.521 771.614 359.919C771.181 361.283 770.417 362.614 769.319 363.911C768.222 365.209 766.792 366.29 765.03 367.155C763.301 368.02 761.039 368.719 758.246 369.251C755.453 369.75 752.211 370 748.52 370C743.998 370 740.207 369.667 737.148 369.002C734.088 368.303 731.628 367.222 729.766 365.758C727.937 364.261 726.623 362.464 725.825 360.368C725.027 358.272 724.628 355.693 724.628 352.632C724.628 349.339 725.127 346.527 726.124 344.198C727.155 341.836 728.685 339.956 730.713 338.559C732.742 337.128 735.186 336.097 738.045 335.464C740.905 334.832 744.297 334.516 748.221 334.516ZM775.344 334.816H814V344.547H786.966V347.642H812.304V356.974H786.966V360.118H814V369.85H775.344V334.816Z"/>
</mask>
<path d="M29.8793 191.267H86.6259C88.1606 191.267 89.6186 191.305 90.9998 191.382C92.3811 191.459 94.2995 191.728 96.7551 192.188C99.2873 192.572 101.551 193.186 103.546 194.031C105.618 194.799 107.805 195.95 110.107 197.486C112.409 199.022 114.328 200.864 115.862 203.014C117.474 205.087 118.778 207.813 119.776 211.191C120.85 214.493 121.387 218.217 121.387 222.363C121.387 226.432 120.889 230.156 119.891 233.534C118.97 236.912 117.742 239.753 116.208 242.057C114.673 244.283 112.831 246.28 110.683 248.046C108.534 249.735 106.424 251.078 104.352 252.076C102.28 252.998 100.093 253.766 97.791 254.38C95.5656 254.917 93.6472 255.301 92.0358 255.532C90.4243 255.685 88.9279 255.762 87.5467 255.762H56.6987V272.116H29.8793V191.267ZM85.8201 231.922C92.8799 231.922 96.4097 229.004 96.4097 223.169C96.4097 221.864 96.2179 220.75 95.8342 219.829C95.5273 218.908 95.0285 218.178 94.3379 217.641C93.6472 217.026 92.9566 216.527 92.266 216.144C91.5753 215.76 90.7312 215.529 89.7337 215.453C88.8128 215.299 88.0455 215.184 87.4316 215.107C86.8177 215.03 86.1271 214.992 85.3597 214.992H56.6987V231.922H85.8201ZM178.727 190C186.017 190 192.462 190.422 198.064 191.267C203.666 192.035 208.846 193.378 213.603 195.298C218.361 197.217 222.236 199.751 225.229 202.899C228.298 205.97 230.677 209.886 232.365 214.646C234.053 219.33 234.898 224.858 234.898 231.231C234.898 237.527 234.13 242.978 232.595 247.585C231.137 252.192 228.989 256.107 226.15 259.332C223.387 262.48 219.704 265.052 215.1 267.049C210.572 268.968 205.431 270.35 199.676 271.195C193.92 272.039 187.206 272.462 179.532 272.462C160.502 272.462 146.651 269.006 137.98 262.096C129.385 255.109 125.088 244.322 125.088 229.734C125.088 216.22 129.5 206.239 138.325 199.789C147.15 193.263 160.617 190 178.727 190ZM179.762 251.27C187.897 251.27 194.189 249.62 198.64 246.318C203.09 243.016 205.316 237.987 205.316 231.231C205.316 224.704 202.975 219.752 198.294 216.374C193.613 212.919 187.321 211.191 179.417 211.191C175.273 211.191 171.628 211.652 168.482 212.573C165.336 213.418 162.727 214.723 160.655 216.489C158.66 218.255 157.164 220.366 156.166 222.823C155.169 225.28 154.67 228.083 154.67 231.231C154.67 237.296 156.78 242.172 161 245.857C165.221 249.466 171.475 251.27 179.762 251.27ZM384.846 191.267L351.006 271.77L351.121 272.116H325.222L325.337 271.77L306.23 229.043L287.353 272.116H261.454L227.153 191.267H255.469L274.346 236.989L293.223 191.267H318.892L337.999 236.529L356.646 191.267H384.846ZM388.254 191.267H477.46V213.725H415.073V220.865H473.546V242.402H415.073V249.658H477.46V272.116H388.254V191.267ZM485.914 191.267H545.308C546.842 191.267 548.3 191.305 549.682 191.382C551.063 191.459 552.981 191.728 555.437 192.188C557.969 192.572 560.233 193.148 562.228 193.916C564.3 194.607 566.487 195.72 568.789 197.256C571.091 198.715 573.009 200.48 574.544 202.553C576.156 204.55 577.46 207.122 578.458 210.27C579.532 213.418 580.069 216.988 580.069 220.981C580.069 233.726 575.12 242.825 565.221 248.276L581.796 272.116L550.833 272.001L537.02 252.998H512.733V272.116H485.914V191.267ZM542.775 229.388C549.451 229.388 552.789 226.854 552.789 221.787C552.789 217.18 549.298 214.877 542.315 214.877H512.733V229.388H542.775ZM637.656 272.116C625.609 272.116 615.556 270.926 607.499 268.546C599.442 266.166 593.878 262.058 590.809 256.223C588.583 251.846 587.087 246.433 586.32 239.984C585.552 233.457 585.169 223.668 585.169 210.615L585.284 191.267H613.6V227.43C613.6 229.734 613.715 231.807 613.945 233.649C614.175 235.415 614.751 237.373 615.671 239.523C616.669 241.673 618.012 243.477 619.7 244.936C621.388 246.318 623.767 247.508 626.837 248.506C629.906 249.428 633.513 249.888 637.656 249.888C641.877 249.888 645.483 249.428 648.476 248.506C651.546 247.508 653.848 246.318 655.382 244.936C656.994 243.554 658.26 241.788 659.181 239.638C660.102 237.412 660.639 235.415 660.792 233.649C661.023 231.883 661.138 229.81 661.138 227.43V191.267H689.453V210.615C689.53 223.668 689.185 233.457 688.417 239.984C687.65 246.433 686.154 251.846 683.928 256.223C682.317 259.294 680.015 261.904 677.022 264.054C674.106 266.127 670.576 267.74 666.433 268.891C662.289 270.043 657.915 270.888 653.311 271.425C648.706 271.886 643.488 272.116 637.656 272.116ZM695.777 191.267H752.524C754.058 191.267 755.516 191.305 756.898 191.382C758.279 191.459 760.197 191.728 762.653 192.188C765.185 192.572 767.449 193.186 769.444 194.031C771.516 194.799 773.703 195.95 776.005 197.486C778.307 199.022 780.225 200.864 781.76 203.014C783.372 205.087 784.676 207.813 785.674 211.191C786.748 214.493 787.285 218.217 787.285 222.363C787.285 226.432 786.786 230.156 785.789 233.534C784.868 236.912 783.64 239.753 782.105 242.057C780.571 244.283 778.729 246.28 776.58 248.046C774.432 249.735 772.322 251.078 770.25 252.076C768.178 252.998 765.991 253.766 763.689 254.38C761.463 254.917 759.545 255.301 757.933 255.532C756.322 255.685 754.826 255.762 753.444 255.762H722.596V272.116H695.777V191.267ZM751.718 231.922C758.778 231.922 762.307 229.004 762.307 223.169C762.307 221.864 762.116 220.75 761.732 219.829C761.425 218.908 760.926 218.178 760.236 217.641C759.545 217.026 758.854 216.527 758.164 216.144C757.473 215.76 756.629 215.529 755.631 215.453C754.711 215.299 753.943 215.184 753.329 215.107C752.715 215.03 752.025 214.992 751.257 214.992H722.596V231.922H751.718Z" stroke="#CCD6FF" stroke-opacity="0.27" style="stroke:#CCD6FF;stroke:color(display-p3 0.7987 0.8409 1.0000);stroke-opacity:0.27;" stroke-width="3.89592" mask="url(#path-2-outside-1_2333_6847)"/>
<path d="M66.6473 285.949H80.3639L63.4052 310.702V320.983H51.8333V310.702L34.9245 285.949H48.6411L57.6192 298.026L66.6473 285.949ZM99.2301 285.4C102.389 285.4 105.182 285.583 107.61 285.949C110.037 286.281 112.282 286.863 114.343 287.695C116.405 288.527 118.084 289.625 119.381 290.989C120.711 292.32 121.742 294.017 122.474 296.08C123.205 298.109 123.571 300.505 123.571 303.266C123.571 305.994 123.238 308.357 122.573 310.353C121.941 312.349 121.01 314.046 119.78 315.443C118.583 316.808 116.987 317.922 114.992 318.787C113.03 319.619 110.802 320.218 108.308 320.584C105.814 320.95 102.904 321.133 99.5792 321.133C91.3326 321.133 85.3306 319.636 81.5731 316.641C77.8488 313.614 75.9867 308.939 75.9867 302.617C75.9867 296.762 77.8987 292.436 81.7227 289.642C85.5467 286.814 91.3825 285.4 99.2301 285.4ZM99.679 311.95C103.204 311.95 105.93 311.235 107.859 309.804C109.788 308.373 110.752 306.194 110.752 303.266C110.752 300.438 109.738 298.292 107.709 296.828C105.681 295.331 102.954 294.582 99.5294 294.582C97.7337 294.582 96.1542 294.782 94.7909 295.181C93.4275 295.547 92.297 296.113 91.3992 296.878C90.5346 297.643 89.8862 298.558 89.4539 299.623C89.0216 300.688 88.8055 301.902 88.8055 303.266C88.8055 305.895 89.7199 308.007 91.5488 309.604C93.3777 311.168 96.0877 311.95 99.679 311.95ZM149 320.983C143.779 320.983 139.423 320.467 135.931 319.436C132.44 318.405 130.029 316.625 128.699 314.096C127.735 312.2 127.086 309.854 126.754 307.059C126.421 304.231 126.255 299.989 126.255 294.333L126.305 285.949H138.575V301.619C138.575 302.617 138.625 303.516 138.725 304.314C138.824 305.079 139.074 305.928 139.473 306.859C139.905 307.791 140.487 308.573 141.219 309.205C141.95 309.804 142.981 310.32 144.311 310.752C145.641 311.151 147.204 311.351 149 311.351C150.828 311.351 152.391 311.151 153.688 310.752C155.018 310.32 156.016 309.804 156.681 309.205C157.379 308.606 157.928 307.841 158.327 306.909C158.726 305.945 158.959 305.079 159.025 304.314C159.125 303.549 159.175 302.651 159.175 301.619V285.949H171.445V294.333C171.478 299.989 171.329 304.231 170.996 307.059C170.664 309.854 170.015 312.2 169.051 314.096C168.353 315.427 167.355 316.558 166.058 317.49C164.795 318.388 163.265 319.087 161.469 319.586C159.674 320.085 157.778 320.451 155.783 320.684C153.788 320.883 151.527 320.983 149 320.983ZM174.185 285.949H199.923C200.588 285.949 201.219 285.965 201.818 285.998C202.417 286.032 203.248 286.148 204.312 286.348C205.409 286.514 206.39 286.764 207.255 287.096C208.153 287.396 209.1 287.878 210.098 288.544C211.095 289.176 211.927 289.941 212.592 290.839C213.29 291.704 213.855 292.819 214.288 294.183C214.753 295.547 214.986 297.094 214.986 298.824C214.986 304.348 212.841 308.29 208.552 310.652L215.734 320.983L202.317 320.933L196.331 312.699H185.807V320.983H174.185V285.949ZM198.825 302.468C201.718 302.468 203.165 301.37 203.165 299.174C203.165 297.178 201.652 296.179 198.626 296.179H185.807V302.468H198.825ZM283.037 311.151C283.037 312.815 282.854 314.229 282.488 315.394C282.156 316.525 281.54 317.54 280.643 318.438C279.778 319.303 278.548 319.952 276.952 320.384C275.355 320.784 273.377 320.983 271.016 320.983H242.086V285.949H267.026C269.387 285.949 271.382 286.132 273.011 286.497C274.674 286.863 275.987 287.446 276.952 288.244C277.949 289.009 278.664 289.924 279.096 290.989C279.529 292.021 279.745 293.268 279.745 294.732C279.745 297.893 278.947 300.172 277.351 301.569C278.049 301.769 278.697 302.085 279.296 302.518C279.928 302.917 280.543 303.482 281.141 304.214C281.74 304.913 282.205 305.861 282.538 307.059C282.87 308.257 283.037 309.621 283.037 311.151ZM253.758 295.68V299.024H266.876C267.342 299.024 267.724 298.858 268.023 298.525C268.356 298.192 268.522 297.793 268.522 297.327C268.522 296.861 268.356 296.479 268.023 296.179C267.724 295.847 267.342 295.68 266.876 295.68H253.758ZM270.816 311.301C271.315 311.301 271.731 311.135 272.063 310.802C272.396 310.469 272.562 310.07 272.562 309.604C272.562 309.105 272.396 308.689 272.063 308.357C271.731 308.024 271.315 307.858 270.816 307.858H253.758V311.301H270.816ZM307.355 320.983C302.134 320.983 297.778 320.467 294.286 319.436C290.795 318.405 288.384 316.625 287.054 314.096C286.09 312.2 285.441 309.854 285.109 307.059C284.776 304.231 284.61 299.989 284.61 294.333L284.66 285.949H296.93V301.619C296.93 302.617 296.98 303.516 297.08 304.314C297.179 305.079 297.429 305.928 297.828 306.859C298.26 307.791 298.842 308.573 299.573 309.205C300.305 309.804 301.336 310.32 302.666 310.752C303.996 311.151 305.559 311.351 307.355 311.351C309.183 311.351 310.746 311.151 312.043 310.752C313.373 310.32 314.371 309.804 315.036 309.205C315.734 308.606 316.283 307.841 316.682 306.909C317.081 305.945 317.314 305.079 317.38 304.314C317.48 303.549 317.53 302.651 317.53 301.619V285.949H329.8V294.333C329.833 299.989 329.684 304.231 329.351 307.059C329.018 309.854 328.37 312.2 327.406 314.096C326.707 315.427 325.71 316.558 324.413 317.49C323.149 318.388 321.62 319.087 319.824 319.586C318.029 320.085 316.133 320.451 314.138 320.684C312.143 320.883 309.882 320.983 307.355 320.983ZM353.502 286.048C356.628 286.048 359.305 286.132 361.532 286.298C363.76 286.431 365.739 286.697 367.468 287.096C369.197 287.496 370.577 287.995 371.608 288.594C372.672 289.159 373.537 289.941 374.202 290.939C374.9 291.937 375.382 293.052 375.648 294.283C375.914 295.481 376.047 296.961 376.047 298.725H363.677C363.677 298.192 363.577 297.776 363.378 297.477C363.212 297.178 362.813 296.895 362.181 296.629C361.549 296.329 360.551 296.13 359.188 296.03C357.825 295.897 356.029 295.83 353.801 295.83C350.842 295.83 348.68 295.897 347.317 296.03C345.954 296.163 345.089 296.329 344.723 296.529C344.358 296.728 344.175 297.078 344.175 297.577C344.208 298.009 344.657 298.309 345.521 298.475C346.419 298.608 349.079 298.858 353.502 299.224C353.568 299.224 353.618 299.24 353.652 299.274C362.43 299.972 368 300.605 370.361 301.17C373.453 301.902 375.449 303.15 376.346 304.913C376.945 306.111 377.244 307.841 377.244 310.103C377.244 311.7 377.128 313.015 376.895 314.046C376.696 315.077 376.263 316.026 375.598 316.891C374.966 317.756 374.135 318.438 373.104 318.937C372.073 319.403 370.644 319.802 368.815 320.135C366.986 320.467 364.891 320.7 362.53 320.833C360.202 320.933 357.293 320.983 353.801 320.983C351.407 320.983 349.329 320.95 347.566 320.883C345.837 320.817 344.208 320.7 342.678 320.534C341.182 320.368 339.935 320.151 338.937 319.885C337.94 319.619 337.042 319.253 336.244 318.787C335.446 318.321 334.814 317.822 334.349 317.29C333.916 316.724 333.551 316.009 333.251 315.144C332.952 314.279 332.752 313.364 332.653 312.399C332.553 311.434 332.503 310.286 332.503 308.956H344.524C344.524 309.521 344.607 309.954 344.773 310.253C344.973 310.553 345.422 310.802 346.12 311.002C346.818 311.201 347.783 311.334 349.013 311.401C350.276 311.468 352.056 311.501 354.35 311.501C354.616 311.501 355.015 311.501 355.547 311.501C359.338 311.501 361.632 311.434 362.43 311.301C363.262 311.168 363.677 310.736 363.677 310.004C363.677 309.571 363.395 309.288 362.829 309.155C362.264 309.022 360.701 308.872 358.141 308.706C356.279 308.573 354.732 308.457 353.502 308.357C351.54 308.19 350.027 308.057 348.963 307.957C347.932 307.858 346.635 307.725 345.073 307.558C343.543 307.359 342.379 307.176 341.581 307.009C340.783 306.81 339.835 306.577 338.738 306.311C337.641 306.011 336.809 305.678 336.244 305.312C335.712 304.946 335.113 304.514 334.448 304.015C333.817 303.516 333.351 302.95 333.052 302.318C332.786 301.686 332.536 300.97 332.304 300.172C332.104 299.34 332.004 298.442 332.004 297.477C332.004 296.313 332.087 295.264 332.254 294.333C332.42 293.401 332.653 292.569 332.952 291.838C333.251 291.106 333.667 290.457 334.199 289.891C334.731 289.326 335.296 288.843 335.895 288.444C336.493 288.011 337.258 287.662 338.189 287.396C339.154 287.096 340.101 286.863 341.032 286.697C341.997 286.531 343.177 286.398 344.574 286.298C345.97 286.198 347.334 286.132 348.664 286.098C350.027 286.065 351.64 286.048 353.502 286.048ZM379.846 320.983V285.949H391.468V320.983H379.846ZM439.481 320.983H423.62L406.461 299.873V320.983H394.84V285.949H411.05L427.909 306.71V285.949H439.481V320.983ZM443.169 285.949H481.825V295.68H454.791V298.775H480.129V308.107H454.791V311.251H481.825V320.983H443.169V285.949ZM505.33 286.048C508.456 286.048 511.132 286.132 513.36 286.298C515.588 286.431 517.567 286.697 519.296 287.096C521.025 287.496 522.405 287.995 523.436 288.594C524.5 289.159 525.364 289.941 526.029 290.939C526.728 291.937 527.21 293.052 527.476 294.283C527.742 295.481 527.875 296.961 527.875 298.725H515.505C515.505 298.192 515.405 297.776 515.206 297.477C515.04 297.178 514.64 296.895 514.009 296.629C513.377 296.329 512.379 296.13 511.016 296.03C509.653 295.897 507.857 295.83 505.629 295.83C502.67 295.83 500.508 295.897 499.145 296.03C497.782 296.163 496.917 296.329 496.551 296.529C496.185 296.728 496.002 297.078 496.002 297.577C496.036 298.009 496.485 298.309 497.349 298.475C498.247 298.608 500.907 298.858 505.33 299.224C505.396 299.224 505.446 299.24 505.479 299.274C514.258 299.972 519.828 300.605 522.189 301.17C525.281 301.902 527.276 303.15 528.174 304.913C528.773 306.111 529.072 307.841 529.072 310.103C529.072 311.7 528.956 313.015 528.723 314.046C528.523 315.077 528.091 316.026 527.426 316.891C526.794 317.756 525.963 318.438 524.932 318.937C523.901 319.403 522.471 319.802 520.643 320.135C518.814 320.467 516.719 320.7 514.358 320.833C512.03 320.933 509.121 320.983 505.629 320.983C503.235 320.983 501.157 320.95 499.394 320.883C497.665 320.817 496.036 320.7 494.506 320.534C493.01 320.368 491.763 320.151 490.765 319.885C489.768 319.619 488.87 319.253 488.072 318.787C487.274 318.321 486.642 317.822 486.176 317.29C485.744 316.724 485.378 316.009 485.079 315.144C484.78 314.279 484.58 313.364 484.481 312.399C484.381 311.434 484.331 310.286 484.331 308.956H496.352C496.352 309.521 496.435 309.954 496.601 310.253C496.801 310.553 497.249 310.802 497.948 311.002C498.646 311.201 499.61 311.334 500.841 311.401C502.104 311.468 503.883 311.501 506.178 311.501C506.444 311.501 506.843 311.501 507.375 311.501C511.166 311.501 513.46 311.434 514.258 311.301C515.089 311.168 515.505 310.736 515.505 310.004C515.505 309.571 515.222 309.288 514.657 309.155C514.092 309.022 512.529 308.872 509.969 308.706C508.106 308.573 506.56 308.457 505.33 308.357C503.368 308.19 501.855 308.057 500.791 307.957C499.76 307.858 498.463 307.725 496.9 307.558C495.371 307.359 494.207 307.176 493.409 307.009C492.611 306.81 491.663 306.577 490.566 306.311C489.468 306.011 488.637 305.678 488.072 305.312C487.54 304.946 486.941 304.514 486.276 304.015C485.644 303.516 485.179 302.95 484.88 302.318C484.614 301.686 484.364 300.97 484.131 300.172C483.932 299.34 483.832 298.442 483.832 297.477C483.832 296.313 483.915 295.264 484.082 294.333C484.248 293.401 484.481 292.569 484.78 291.838C485.079 291.106 485.495 290.457 486.027 289.891C486.559 289.326 487.124 288.843 487.723 288.444C488.321 288.011 489.086 287.662 490.017 287.396C490.981 287.096 491.929 286.863 492.86 286.697C493.824 286.531 495.005 286.398 496.402 286.298C497.798 286.198 499.161 286.132 500.492 286.098C501.855 286.065 503.468 286.048 505.33 286.048ZM552.773 286.048C555.899 286.048 558.575 286.132 560.803 286.298C563.031 286.431 565.01 286.697 566.739 287.096C568.468 287.496 569.848 287.995 570.879 288.594C571.943 289.159 572.808 289.941 573.473 290.939C574.171 291.937 574.653 293.052 574.919 294.283C575.185 295.481 575.318 296.961 575.318 298.725H562.948C562.948 298.192 562.848 297.776 562.649 297.477C562.483 297.178 562.084 296.895 561.452 296.629C560.82 296.329 559.822 296.13 558.459 296.03C557.096 295.897 555.3 295.83 553.072 295.83C550.113 295.83 547.951 295.897 546.588 296.03C545.225 296.163 544.36 296.329 543.994 296.529C543.629 296.728 543.446 297.078 543.446 297.577C543.479 298.009 543.928 298.309 544.792 298.475C545.69 298.608 548.35 298.858 552.773 299.224C552.839 299.224 552.889 299.24 552.923 299.274C561.701 299.972 567.271 300.605 569.632 301.17C572.724 301.902 574.72 303.15 575.617 304.913C576.216 306.111 576.515 307.841 576.515 310.103C576.515 311.7 576.399 313.015 576.166 314.046C575.967 315.077 575.534 316.026 574.869 316.891C574.237 317.756 573.406 318.438 572.375 318.937C571.344 319.403 569.915 319.802 568.086 320.135C566.257 320.467 564.162 320.7 561.801 320.833C559.473 320.933 556.564 320.983 553.072 320.983C550.678 320.983 548.6 320.95 546.837 320.883C545.108 320.817 543.479 320.7 541.949 320.534C540.453 320.368 539.206 320.151 538.208 319.885C537.211 319.619 536.313 319.253 535.515 318.787C534.717 318.321 534.085 317.822 533.62 317.29C533.187 316.724 532.821 316.009 532.522 315.144C532.223 314.279 532.023 313.364 531.924 312.399C531.824 311.434 531.774 310.286 531.774 308.956H543.795C543.795 309.521 543.878 309.954 544.044 310.253C544.244 310.553 544.693 310.802 545.391 311.002C546.089 311.201 547.054 311.334 548.284 311.401C549.547 311.468 551.326 311.501 553.621 311.501C553.887 311.501 554.286 311.501 554.818 311.501C558.609 311.501 560.903 311.434 561.701 311.301C562.533 311.168 562.948 310.736 562.948 310.004C562.948 309.571 562.666 309.288 562.1 309.155C561.535 309.022 559.972 308.872 557.412 308.706C555.55 308.573 554.003 308.457 552.773 308.357C550.811 308.19 549.298 308.057 548.234 307.957C547.203 307.858 545.906 307.725 544.343 307.558C542.814 307.359 541.65 307.176 540.852 307.009C540.054 306.81 539.106 306.577 538.009 306.311C536.912 306.011 536.08 305.678 535.515 305.312C534.983 304.946 534.384 304.514 533.719 304.015C533.088 303.516 532.622 302.95 532.323 302.318C532.057 301.686 531.807 300.97 531.575 300.172C531.375 299.34 531.275 298.442 531.275 297.477C531.275 296.313 531.358 295.264 531.525 294.333C531.691 293.401 531.924 292.569 532.223 291.838C532.522 291.106 532.938 290.457 533.47 289.891C534.002 289.326 534.567 288.843 535.166 288.444C535.764 288.011 536.529 287.662 537.46 287.396C538.425 287.096 539.372 286.863 540.303 286.697C541.268 286.531 542.448 286.398 543.845 286.298C545.241 286.198 546.605 286.132 547.935 286.098C549.298 286.065 550.911 286.048 552.773 286.048ZM671.261 285.949L656.596 320.833L656.646 320.983H645.424L645.474 320.833L637.194 302.318L629.014 320.983H617.791L602.927 285.949H615.197L623.377 305.762L631.557 285.949H642.68L650.96 305.562L659.041 285.949H671.261ZM674.393 320.983V285.949H686.015V320.983H674.393ZM689.143 285.949H735.381V297.527H718.073V320.983H706.501V297.527H689.143V285.949ZM770.616 285.949H782.238V320.983H770.616V308.806H749.767V320.983H738.145V285.949H749.767V298.076H770.616V285.949ZM36.718 334.915L52.4297 369.85H38.9625L36.3189 363.961H19.011L16.3675 369.85H3L18.6619 334.915H36.718ZM23.151 353.88H32.179L27.64 344.697L23.151 353.88ZM54.043 334.816H79.7804C80.4454 334.816 81.0772 334.832 81.6757 334.866C82.2743 334.899 83.1056 335.015 84.1697 335.215C85.267 335.381 86.248 335.631 87.1125 335.964C88.0103 336.263 88.958 336.745 89.9556 337.411C90.9532 338.043 91.7845 338.808 92.4495 339.707C93.1478 340.572 93.7131 341.686 94.1454 343.05C94.6109 344.414 94.8437 345.962 94.8437 347.692C94.8437 353.215 92.6989 357.157 88.4094 359.52L95.5919 369.85L82.1745 369.8L76.1891 361.566H65.6647V369.85H54.043V334.816ZM78.683 351.335C81.576 351.335 83.0225 350.237 83.0225 348.041C83.0225 346.045 81.5095 345.047 78.4835 345.047H65.6647V351.335H78.683ZM96.6152 334.816H142.853V346.394H125.545V369.85H113.973V346.394H96.6152V334.816ZM146.016 369.85V334.816H157.638V369.85H146.016ZM161.886 334.766H199.445V345.446H173.508V348.839H193.808V359.12H173.508V369.85H161.886V334.766ZM202.568 369.85V334.816H214.19V369.85H202.568ZM240.374 334.516C244.764 334.516 248.538 334.899 251.697 335.664C254.856 336.396 257.35 337.477 259.179 338.908C261.007 340.305 262.338 341.936 263.169 343.799C264 345.662 264.416 347.825 264.416 350.287H252.495C252.462 350.12 252.395 349.904 252.295 349.638C252.229 349.372 251.946 348.923 251.447 348.291C250.949 347.625 250.3 347.043 249.502 346.544C248.704 346.011 247.49 345.546 245.861 345.146C244.265 344.714 242.403 344.498 240.275 344.498C238.379 344.498 236.717 344.647 235.287 344.947C233.89 345.246 232.776 345.629 231.945 346.095C231.147 346.56 230.498 347.159 230 347.891C229.534 348.59 229.218 349.289 229.052 349.987C228.886 350.653 228.803 351.401 228.803 352.233C228.803 353.398 228.985 354.429 229.351 355.327C229.717 356.226 230.315 357.057 231.147 357.823C231.978 358.555 233.159 359.12 234.688 359.52C236.218 359.919 238.08 360.118 240.275 360.118C242.536 360.118 244.498 359.952 246.16 359.619C247.823 359.287 249.037 358.887 249.801 358.422C250.566 357.956 251.165 357.49 251.597 357.024C252.063 356.525 252.329 356.109 252.395 355.777L252.495 355.277H264.416C264.416 356.974 264.2 358.521 263.767 359.919C263.335 361.283 262.57 362.614 261.473 363.911C260.376 365.209 258.946 366.29 257.183 367.155C255.454 368.02 253.193 368.719 250.4 369.251C247.607 369.75 244.365 370 240.674 370C236.151 370 232.361 369.667 229.301 369.002C226.242 368.303 223.781 367.222 221.919 365.758C220.09 364.261 218.777 362.464 217.979 360.368C217.181 358.272 216.782 355.693 216.782 352.632C216.782 349.339 217.281 346.527 218.278 344.198C219.309 341.836 220.839 339.956 222.867 338.559C224.895 337.128 227.339 336.097 230.199 335.464C233.059 334.832 236.451 334.516 240.374 334.516ZM296.097 334.915L311.808 369.85H298.341L295.698 363.961H278.39L275.746 369.85H262.379L278.04 334.915H296.097ZM282.53 353.88H291.558L287.019 344.697L282.53 353.88ZM325.043 358.222H350.432V369.85H313.422V334.816H325.043V358.222ZM377.24 369.85V334.816H388.862V369.85H377.24ZM436.875 369.85H421.014L403.855 348.74V369.85H392.234V334.816H408.444L425.303 355.577V334.816H436.875V369.85ZM439.628 334.816H485.866V346.394H468.558V369.85H456.986V346.394H439.628V334.816ZM489.029 334.816H527.685V344.547H500.651V347.642H525.989V356.974H500.651V360.118H527.685V369.85H489.029V334.816ZM542.97 358.222H568.358V369.85H531.348V334.816H542.97V358.222ZM571.494 369.85V334.816H583.116V369.85H571.494ZM604.812 349.339H633.342V369.85H624.015V366.207C622.519 367.505 620.723 368.47 618.628 369.102C616.566 369.701 613.557 370 609.6 370C606.042 370 602.9 369.717 600.173 369.152C597.446 368.586 595.169 367.821 593.34 366.856C591.544 365.858 590.064 364.627 588.9 363.163C587.77 361.666 586.955 360.069 586.456 358.372C585.958 356.675 585.708 354.762 585.708 352.632C585.708 350.204 586.124 347.991 586.955 345.995C587.787 343.965 588.917 342.252 590.347 340.854C591.81 339.457 593.523 338.276 595.484 337.311C597.48 336.346 599.624 335.647 601.919 335.215C604.246 334.749 606.707 334.516 609.301 334.516C612.859 334.516 615.918 334.732 618.478 335.165C621.072 335.598 623.217 336.263 624.913 337.161C626.642 338.06 628.039 339.091 629.103 340.256C630.2 341.387 631.164 342.801 631.996 344.498L621.122 348.141C619.426 345.712 615.453 344.498 609.201 344.498C606.807 344.498 604.812 344.697 603.216 345.096C601.62 345.496 600.406 346.095 599.574 346.893C598.743 347.658 598.161 348.507 597.829 349.438C597.496 350.37 597.33 351.485 597.33 352.782C597.33 353.98 597.48 355.011 597.779 355.876C598.078 356.708 598.627 357.49 599.425 358.222C600.256 358.954 601.487 359.52 603.116 359.919C604.745 360.285 606.774 360.468 609.201 360.468C610.897 360.468 612.343 360.401 613.54 360.268C614.738 360.102 615.702 359.852 616.433 359.52C617.165 359.187 617.68 358.904 617.98 358.671C618.312 358.438 618.728 358.072 619.227 357.573H604.812V349.339ZM636.424 334.816H675.08V344.547H648.046V347.642H673.384V356.974H648.046V360.118H675.08V369.85H636.424V334.816ZM722.313 369.85H706.452L689.294 348.74V369.85H677.672V334.816H693.883L710.742 355.577V334.816H722.313V369.85ZM748.221 334.516C752.61 334.516 756.384 334.899 759.543 335.664C762.702 336.396 765.196 337.477 767.025 338.908C768.854 340.305 770.184 341.936 771.015 343.799C771.846 345.662 772.262 347.825 772.262 350.287H760.341C760.308 350.12 760.241 349.904 760.142 349.638C760.075 349.372 759.792 348.923 759.294 348.291C758.795 347.625 758.146 347.043 757.348 346.544C756.55 346.011 755.337 345.546 753.707 345.146C752.111 344.714 750.249 344.498 748.121 344.498C746.225 344.498 744.563 344.647 743.133 344.947C741.736 345.246 740.622 345.629 739.791 346.095C738.993 346.56 738.345 347.159 737.846 347.891C737.38 348.59 737.064 349.289 736.898 349.987C736.732 350.653 736.649 351.401 736.649 352.233C736.649 353.398 736.832 354.429 737.197 355.327C737.563 356.226 738.162 357.057 738.993 357.823C739.824 358.555 741.005 359.12 742.534 359.52C744.064 359.919 745.926 360.118 748.121 360.118C750.382 360.118 752.344 359.952 754.007 359.619C755.669 359.287 756.883 358.887 757.648 358.422C758.412 357.956 759.011 357.49 759.443 357.024C759.909 356.525 760.175 356.109 760.241 355.777L760.341 355.277H772.262C772.262 356.974 772.046 358.521 771.614 359.919C771.181 361.283 770.417 362.614 769.319 363.911C768.222 365.209 766.792 366.29 765.03 367.155C763.301 368.02 761.039 368.719 758.246 369.251C755.453 369.75 752.211 370 748.52 370C743.998 370 740.207 369.667 737.148 369.002C734.088 368.303 731.628 367.222 729.766 365.758C727.937 364.261 726.623 362.464 725.825 360.368C725.027 358.272 724.628 355.693 724.628 352.632C724.628 349.339 725.127 346.527 726.124 344.198C727.155 341.836 728.685 339.956 730.713 338.559C732.742 337.128 735.186 336.097 738.045 335.464C740.905 334.832 744.297 334.516 748.221 334.516ZM775.344 334.816H814V344.547H786.966V347.642H812.304V356.974H786.966V360.118H814V369.85H775.344V334.816Z" stroke="#CCD6FF" stroke-opacity="0.27" style="stroke:#CCD6FF;stroke:color(display-p3 0.7987 0.8409 1.0000);stroke-opacity:0.27;" stroke-width="3.89592" mask="url(#path-2-outside-1_2333_6847)"/>
</svg>
