<svg width="623" height="237" viewBox="0 0 623 237" fill="none" xmlns="http://www.w3.org/2000/svg">
<path d="M79.6501 19.5962L0.420654 19.9475L0.476121 32.7805L79.7055 32.4292L79.6501 19.5962Z" fill="white" style="fill:white;fill-opacity:1;"/>
<path d="M9.68025 23.6606L7.24904 23.6733L7.27476 30.392L5.93091 30.3993L5.90519 23.6805L3.49447 23.6939L3.48918 22.6049L9.67462 22.5818L9.67991 23.6709L9.68025 23.6606Z" fill="black" style="fill:black;fill-opacity:1;"/>
<path d="M22.7885 23.5875L20.363 23.6049L20.3751 30.3328L19.0344 30.3427L19.0223 23.6147L16.6173 23.6327L16.6142 22.5422L22.785 22.5073L22.7881 23.5978L22.7885 23.5875Z" fill="black" style="fill:black;fill-opacity:1;"/>
<path d="M26.2626 30.4134C25.4439 30.4189 24.7774 30.1616 24.2634 29.6415C23.7494 29.1214 23.4969 28.4345 23.4966 27.56L23.5023 27.3956C23.4916 26.8191 23.6018 26.2978 23.8223 25.8416C24.0428 25.3855 24.352 25.0247 24.7599 24.7698C25.1576 24.5147 25.6124 24.3847 26.1037 24.3794C26.8918 24.373 27.4973 24.6181 27.9299 25.1254C28.3625 25.6326 28.5734 26.3388 28.5821 27.265L28.5844 27.7898L24.8077 27.8167C24.8522 28.3017 25.0132 28.6771 25.2901 28.9531C25.567 29.2292 25.9205 29.3637 26.3501 29.3667C26.9437 29.3645 27.433 29.1225 27.798 28.6297L28.5013 29.2997C28.2741 29.6527 27.9579 29.9207 27.5725 30.1145C27.1872 30.3084 26.754 30.4081 26.2729 30.4137L26.2626 30.4134ZM26.098 25.4286C25.7399 25.4278 25.4589 25.5631 25.2353 25.8134C25.022 26.064 24.8766 26.4196 24.8204 26.8603L27.2972 26.8445L27.3004 26.752C27.2643 26.3188 27.1531 25.9861 26.9459 25.7636C26.7387 25.5411 26.4663 25.4298 26.098 25.4286Z" fill="black" style="fill:black;fill-opacity:1;"/>
<path d="M31.6652 26.3732L32.7655 24.4524L34.2086 24.4457L32.4509 27.3237L34.2831 30.2615L32.8501 30.2685L31.6909 28.2879L30.5472 30.2794L29.104 30.2861L30.926 27.3278L29.1523 24.4741L30.5852 24.4671L31.6652 26.3732Z" fill="black" style="fill:black;fill-opacity:1;"/>
<path d="M36.7218 23.0334L36.724 24.442L37.7461 24.4326L37.7534 25.3993L36.7314 25.4086L36.7417 28.6475C36.7338 28.8735 36.7897 29.0294 36.8784 29.1247C36.967 29.22 37.1187 29.2658 37.3432 29.2728C37.4963 29.2776 37.6403 29.2512 37.7948 29.2149L37.8007 30.2226C37.5015 30.3058 37.2242 30.3486 36.9483 30.3503C35.9569 30.3607 35.4549 29.8105 35.4525 28.7L35.444 25.4098L34.4938 25.4111L34.4864 24.4445L35.4367 24.4431L35.4344 23.0346L36.7324 23.0234L36.7218 23.0334Z" fill="black" style="fill:black;fill-opacity:1;"/>
<path d="M46.5544 27.363C46.5537 28.268 46.3551 28.9817 45.9583 29.5145C45.5614 30.0472 45.01 30.3181 44.3041 30.327C43.6292 30.3267 43.1055 30.0944 42.7239 29.5992L42.6613 30.2246L41.4851 30.2293L41.4645 21.9808L42.7636 21.9697L42.7723 24.9626C43.1458 24.5114 43.6444 24.2904 44.2784 24.2895C44.9843 24.2805 45.5376 24.5445 45.9386 25.0712C46.3396 25.5978 46.5496 26.3242 46.5474 27.2703L46.5449 27.3422L46.5544 27.363ZM45.2596 27.2509C45.2609 26.6236 45.1445 26.1469 44.9203 25.8314C44.696 25.516 44.3741 25.362 43.955 25.3593C43.3924 25.3624 42.995 25.6174 42.7736 26.1042L42.7824 28.5007C43.0105 29.0014 43.4109 29.2503 43.9837 29.2475C44.3926 29.2499 44.7048 29.0951 44.9201 28.783C45.1453 28.4814 45.2537 28.0117 45.2645 27.4053L45.2702 27.2409L45.2596 27.2509Z" fill="black" style="fill:black;fill-opacity:1;"/>
<path d="M47.4149 27.2558C47.4141 26.6898 47.5243 26.1685 47.7448 25.7123C47.9653 25.2561 48.2845 24.9059 48.6924 24.651C49.1001 24.4064 49.5651 24.2768 50.0871 24.2724C50.8651 24.2656 51.5013 24.5117 51.9851 25.0206C52.4692 25.5193 52.7326 26.186 52.7753 27.0207L52.785 27.3297C52.7855 27.9059 52.6757 28.417 52.4657 28.8632C52.2452 29.3194 51.9363 29.67 51.5287 29.9146C51.1211 30.1592 50.6458 30.2885 50.1136 30.2926C49.2947 30.298 48.649 30.0311 48.1564 29.4807C47.6635 28.9407 47.4226 28.2129 47.4131 27.3072L47.4153 27.2455L47.4149 27.2558ZM48.7111 27.3577C48.7108 27.9545 48.8379 28.4215 49.082 28.7583C49.3262 29.0951 49.6684 29.2601 50.1087 29.2532C50.549 29.2462 50.8825 29.0714 51.1298 28.7292C51.377 28.387 51.4971 27.8763 51.4893 27.2175C51.4892 26.631 51.3621 26.164 51.1077 25.8269C50.8533 25.4897 50.5115 25.3145 50.0814 25.3217C49.6616 25.3293 49.3182 25.4936 49.0709 25.8357C48.8237 26.1779 48.704 26.6784 48.7008 27.3574L48.7111 27.3577Z" fill="black" style="fill:black;fill-opacity:1;"/>
<path d="M55.8637 26.2734L56.964 24.3525L58.4071 24.3458L56.6494 27.2238L58.4816 30.1617L57.0486 30.1687L55.8893 28.188L54.7457 30.1796L53.3025 30.1862L55.1244 27.228L53.3508 24.3742L54.7837 24.3672L55.8637 26.2734Z" fill="black" style="fill:black;fill-opacity:1;"/>
<path d="M67.188 30.108L61.96 30.1413L61.9603 29.2465L64.5452 26.3851C64.9178 25.9647 65.1857 25.613 65.3387 25.3298C65.4918 25.0465 65.5733 24.7611 65.5727 24.4833C65.5753 24.1132 65.463 23.8114 65.256 23.589C65.0489 23.3666 64.7667 23.2447 64.4084 23.2541C63.9887 23.2617 63.6674 23.3854 63.4333 23.6456C63.1992 23.9057 63.0846 24.2622 63.0897 24.7046L61.7903 24.7157C61.7862 24.2425 61.8932 23.8138 62.1111 23.4297C62.329 23.0456 62.636 22.7466 63.0321 22.5326C63.4282 22.3186 63.8923 22.2096 64.4141 22.2052C65.1713 22.1979 65.768 22.3912 66.2051 22.7648C66.6422 23.1383 66.8591 23.6696 66.8665 24.3383C66.8632 24.7291 66.757 25.1372 66.5377 25.5624C66.3183 25.9875 65.9637 26.4805 65.4638 27.0307L63.5716 29.0908L67.1831 29.0691L67.188 30.108Z" fill="black" style="fill:black;fill-opacity:1;"/>
<path d="M68.5367 26.2428L68.9497 22.2963L73.1228 22.2715L73.1244 23.4028L70.0253 23.4198L69.8175 25.285C70.1723 25.0801 70.5851 24.9695 71.0353 24.9629C71.7719 24.9549 72.3568 25.189 72.7596 25.6643C73.1726 26.1399 73.3756 26.7735 73.3781 27.586C73.3813 28.378 73.1545 29.0188 72.6985 29.488C72.2425 29.9572 71.6204 30.2053 70.8229 30.2011C70.1068 30.2098 69.5207 30.0065 69.0541 29.6012C68.5876 29.1959 68.33 28.6635 68.2918 27.9938L69.5501 27.9814C69.5982 28.3634 69.7414 28.6558 69.9597 28.8477C70.1777 29.0499 70.4707 29.1515 70.8289 29.1421C71.2277 29.1442 71.5395 28.9996 71.7541 28.708C71.979 28.4167 72.0845 28.0292 72.0811 27.5355C72.0771 27.0623 71.9571 26.6883 71.711 26.4133C71.4649 26.1383 71.1321 26.0046 70.6925 26.0012C70.4576 25.9939 70.2617 26.0393 70.0961 26.0958C69.9302 26.1627 69.7522 26.2805 69.5616 26.47L68.5271 26.222L68.5367 26.2428Z" fill="black" style="fill:black;fill-opacity:1;"/>
<path d="M591.459 2.70178L509.01 3.06738L509.144 33.8973L591.592 33.5317L591.459 2.70178Z" fill="white" style="fill:white;fill-opacity:1;"/>
<path d="M520.844 12.7842L522.032 6.89147L523.373 6.88161L521.596 14.7223L520.306 14.7338L518.814 9.03587L517.316 14.7543L516.015 14.7654L514.197 6.95733L515.539 6.94746L516.758 12.8222L518.232 6.93833L519.369 6.93241L520.854 12.8154L520.844 12.7842Z" fill="black" style="fill:black;fill-opacity:1;"/>
<path d="M531.59 11.356L528.46 11.3721L528.468 14.6837L527.118 14.6932L527.103 6.87705L532.043 6.84522L532.046 7.9354L528.456 7.9577L528.457 10.2819L531.587 10.2659L531.59 11.3458L531.59 11.356Z" fill="black" style="fill:black;fill-opacity:1;"/>
<path d="M533.003 7.35819C533.01 7.15289 533.066 6.99024 533.193 6.8606C533.319 6.73095 533.494 6.66448 533.728 6.6615C533.962 6.66879 534.143 6.72581 534.271 6.85311C534.399 6.98041 534.464 7.14686 534.467 7.35248C534.461 7.54751 534.404 7.71017 534.278 7.83981C534.151 7.96945 533.976 8.03592 533.732 8.03858C533.498 8.0313 533.317 7.97427 533.189 7.84698C533.061 7.71968 532.996 7.55323 533.003 7.35819ZM534.388 14.6562L533.096 14.6673L533.083 8.86099L534.375 8.84989L534.388 14.6562Z" fill="black" style="fill:black;fill-opacity:1;"/>
<path d="M537.886 10.7426L538.986 8.82176L540.429 8.81507L538.672 11.693L540.504 14.6309L539.071 14.6379L537.912 12.6573L536.768 14.6488L535.325 14.6555L537.147 11.6972L535.373 8.84346L536.806 8.83645L537.886 10.7426Z" fill="black" style="fill:black;fill-opacity:1;"/>
<path d="M543.88 14.7254C543.061 14.7309 542.395 14.4736 541.881 13.9535C541.367 13.4334 541.114 12.7465 541.114 11.8823L541.119 11.7178C541.109 11.1413 541.219 10.62 541.439 10.1639C541.66 9.70774 541.969 9.34694 542.377 9.09209C542.775 8.83692 543.229 8.70698 543.721 8.70164C544.509 8.69522 545.114 8.94035 545.547 9.44762C545.979 9.95489 546.19 10.6611 546.199 11.5873L546.201 12.1121L542.425 12.139C542.47 12.6137 542.63 12.9993 542.907 13.2754C543.184 13.5515 543.537 13.6859 543.957 13.6887C544.55 13.6865 545.04 13.4445 545.405 12.9516L546.108 13.6216C545.881 13.9747 545.565 14.2427 545.179 14.4365C544.794 14.6303 544.361 14.73 543.88 14.7357L543.88 14.7254ZM543.715 9.75091C543.357 9.75009 543.076 9.88541 542.852 10.1357C542.629 10.386 542.494 10.7419 542.437 11.1826L544.914 11.1668L544.917 11.0743C544.881 10.641 544.77 10.3083 544.563 10.0859C544.356 9.86338 544.073 9.75172 543.715 9.75091Z" fill="black" style="fill:black;fill-opacity:1;"/>
<path d="M546.967 11.6644C546.968 10.7697 547.167 10.0457 547.584 9.50338C547.992 8.9607 548.554 8.67991 549.239 8.6806C549.852 8.67907 550.346 8.88978 550.72 9.31273L550.71 6.34047L552.009 6.32936L552.03 14.5775L550.854 14.5821L550.793 13.9838C550.408 14.4552 549.889 14.6961 549.244 14.707C548.569 14.7066 548.016 14.4426 547.606 13.8952C547.195 13.3477 546.975 12.6107 546.978 11.6647L546.967 11.6644ZM548.262 11.7663C548.263 12.3524 548.379 12.8188 548.603 13.1445C548.827 13.4703 549.149 13.6345 549.568 13.6372C550.099 13.6332 550.486 13.3984 550.728 12.9122L550.722 10.4337C550.482 9.97379 550.102 9.73575 549.57 9.73981C549.15 9.74736 548.828 9.91217 548.602 10.2445C548.375 10.5769 548.266 11.0876 548.263 11.756L548.262 11.7663Z" fill="black" style="fill:black;fill-opacity:1;"/>
<path d="M559.56 14.5475L558.273 14.5589L558.256 8.27706L556.353 8.94788L556.351 7.8478L559.372 6.70799L559.536 6.71306L559.55 14.5471L559.56 14.5475Z" fill="black" style="fill:black;fill-opacity:1;"/>
<path d="M567.52 14.5103L562.292 14.5436L562.293 13.6488L564.877 10.7874C565.25 10.367 565.518 10.0153 565.671 9.73204C565.824 9.4488 565.905 9.16335 565.905 8.88563C565.907 8.51544 565.795 8.21369 565.588 7.981C565.382 7.74831 565.099 7.6367 564.751 7.64647C564.332 7.65402 564 7.77744 563.776 8.03791C563.542 8.29807 563.427 8.65449 563.432 9.09692L562.133 9.10803C562.129 8.63478 562.236 8.20612 562.454 7.82205C562.672 7.43797 562.979 7.13893 563.375 6.92495C563.771 6.71096 564.235 6.60193 564.757 6.59755C565.514 6.59019 566.111 6.78355 566.548 7.15709C566.985 7.53063 567.202 8.06191 567.209 8.73068C567.206 9.12141 567.1 9.52952 566.88 9.9547C566.661 10.3901 566.306 10.8728 565.807 11.423L563.914 13.4831L567.526 13.4614L567.531 14.5004L567.52 14.5103Z" fill="black" style="fill:black;fill-opacity:1;"/>
<path d="M572.902 11.6959L573.875 11.6849L573.879 12.7342L572.907 12.7451L572.908 14.4835L571.608 14.4946L571.607 12.7563L568.251 12.7756L568.207 11.9822L571.552 6.67569L572.893 6.66584L572.902 11.6959ZM569.567 11.7158L571.603 11.707L571.593 8.4461L571.495 8.61792L569.567 11.7261L569.567 11.7158Z" fill="black" style="fill:black;fill-opacity:1;"/>
<path d="M579.811 11.1603C579.813 12.2814 579.609 13.1286 579.191 13.7019C578.772 14.2751 578.138 14.5639 577.289 14.5684C576.451 14.5733 575.816 14.2965 575.385 13.7483C574.954 13.2002 574.737 12.3707 574.724 11.2802L574.72 9.92255C574.718 8.80151 574.921 7.95423 575.34 7.3913C575.758 6.82837 576.392 6.53951 577.251 6.53531C578.1 6.5308 578.735 6.79732 579.156 7.34515C579.576 7.89298 579.793 8.71216 579.807 9.8027L579.811 11.1501L579.811 11.1603ZM578.511 9.71108C578.506 8.98074 578.412 8.44305 578.209 8.09738C578.006 7.76199 577.695 7.58779 577.255 7.59471C576.836 7.60226 576.523 7.75712 576.328 8.09043C576.133 8.41346 576.023 8.92427 576.019 9.6132L576.019 11.3821C576.025 12.1124 576.129 12.6504 576.331 13.0166C576.533 13.3726 576.854 13.5471 577.284 13.5501C577.703 13.5426 578.006 13.3771 578.211 13.0441C578.407 12.7108 578.517 12.1898 578.521 11.4905L578.521 9.72167L578.511 9.71108Z" fill="black" style="fill:black;fill-opacity:1;"/>
<path d="M586.128 11.571C586.128 12.4657 585.929 13.1897 585.522 13.7221C585.115 14.2648 584.574 14.536 583.888 14.5353C583.254 14.5362 582.75 14.3354 582.366 13.9122L582.373 16.6685L581.073 16.6796L581.056 8.63698L582.253 8.63297L582.304 9.22075C582.678 8.75929 583.197 8.51831 583.852 8.51805C584.558 8.5091 585.111 8.77308 585.512 9.29972C585.913 9.82636 586.113 10.5524 586.121 11.4988L586.118 11.581L586.128 11.571ZM584.833 11.4691C584.833 10.8932 584.716 10.4268 584.482 10.0905C584.249 9.75415 583.927 9.57964 583.498 9.58688C582.966 9.59094 582.59 9.81581 582.36 10.2509L582.363 12.822C582.603 13.2716 582.984 13.4891 583.515 13.4953C583.925 13.4875 584.247 13.3226 584.484 12.9906C584.72 12.6586 584.83 12.1478 584.833 11.4691Z" fill="black" style="fill:black;fill-opacity:1;"/>
<path d="M522.887 30.6522L521.547 30.6621L521.534 27.1949L518.054 27.2207L518.067 30.6879L516.716 30.6974L516.701 22.8787L518.052 22.8692L518.062 26.1202L521.541 26.0944L521.532 22.8434L522.872 22.8335L522.887 30.6522Z" fill="black" style="fill:black;fill-opacity:1;"/>
<path d="M531.702 27.3019L528.573 27.3179L528.58 30.6295L527.23 30.639L527.215 22.8228L532.155 22.791L532.158 23.8812L528.568 23.9035L528.57 26.2277L531.699 26.2117L531.703 27.2916L531.702 27.3019Z" fill="black" style="fill:black;fill-opacity:1;"/>
<path d="M533.116 23.294C533.123 23.0887 533.179 22.926 533.306 22.7964C533.432 22.6667 533.607 22.6003 533.841 22.5973C534.075 22.6046 534.256 22.6616 534.384 22.7889C534.512 22.9162 534.577 23.0827 534.58 23.2883C534.574 23.4833 534.517 23.646 534.391 23.7756C534.264 23.9052 534.079 23.9714 533.845 23.9744C533.611 23.9671 533.43 23.9101 533.302 23.7828C533.174 23.6555 533.119 23.4893 533.116 23.294ZM534.501 30.6023L533.209 30.6134L533.196 24.807L534.488 24.7959L534.501 30.6023Z" fill="black" style="fill:black;fill-opacity:1;"/>
<path d="M537.999 26.6884L539.099 24.7676L540.542 24.7609L538.784 27.6388L540.617 30.5767L539.184 30.5837L538.024 28.6031L536.881 30.5946L535.437 30.6013L537.259 27.643L535.486 24.7893L536.919 24.7823L537.999 26.6884Z" fill="black" style="fill:black;fill-opacity:1;"/>
<path d="M543.993 30.6712C543.174 30.6767 542.508 30.4194 541.994 29.8993C541.479 29.3792 541.227 28.6923 541.226 27.8281L541.232 27.6636C541.221 27.0871 541.332 26.5658 541.552 26.1097C541.773 25.6535 542.082 25.2927 542.49 25.0379C542.887 24.7827 543.342 24.6528 543.833 24.6474C544.622 24.641 545.227 24.8862 545.66 25.3934C546.092 25.9007 546.303 26.6069 546.312 27.5331L546.314 28.0579L542.537 28.0848C542.582 28.5595 542.733 28.9448 543.02 29.2212C543.297 29.4973 543.65 29.6317 544.07 29.6345C544.663 29.6323 545.153 29.3903 545.518 28.8974L546.221 29.5674C545.994 29.9205 545.677 30.1885 545.292 30.3823C544.907 30.5761 544.474 30.6758 543.992 30.6815L543.993 30.6712ZM543.828 25.6864C543.47 25.6856 543.189 25.8209 542.965 26.0712C542.742 26.3215 542.607 26.6774 542.551 27.1181L545.027 27.1023L545.031 27.0098C544.994 26.5766 544.883 26.2439 544.676 26.0214C544.469 25.7989 544.186 25.6872 543.828 25.6864Z" fill="black" style="fill:black;fill-opacity:1;"/>
<path d="M547.08 27.5999C547.081 26.7052 547.28 25.9813 547.697 25.4389C548.105 24.8963 548.656 24.6151 549.352 24.6161C549.965 24.6146 550.459 24.8253 550.833 25.2483L550.823 22.276L552.122 22.2649L552.143 30.513L550.967 30.5176L550.906 29.9193C550.521 30.3907 550.002 30.6317 549.357 30.6425C548.682 30.6422 548.129 30.3782 547.719 29.8307C547.298 29.2829 547.089 28.5463 547.091 27.6002L547.08 27.5999ZM548.375 27.7121C548.375 28.2982 548.492 28.7646 548.716 29.0904C548.94 29.4161 549.261 29.5803 549.68 29.5831C550.212 29.579 550.599 29.3442 550.84 28.8581L550.834 26.3795C550.595 25.9196 550.215 25.6816 549.683 25.6856C549.263 25.6932 548.94 25.858 548.714 26.1903C548.488 26.5227 548.378 27.0334 548.375 27.7018L548.375 27.7121Z" fill="black" style="fill:black;fill-opacity:1;"/>
<path d="M556.508 26.6337L556.921 22.6872L561.094 22.6624L561.096 23.7937L557.997 23.8106L557.789 25.6759C558.144 25.4607 558.557 25.3603 559.007 25.3537C559.743 25.3457 560.318 25.5795 560.731 26.0551C561.144 26.5307 561.347 27.1643 561.35 27.9769C561.353 28.7688 561.126 29.4097 560.67 29.8789C560.214 30.3481 559.592 30.5962 558.795 30.592C558.078 30.6006 557.492 30.3973 557.026 29.9921C556.559 29.5868 556.302 29.0543 556.264 28.3847L557.522 28.3723C557.57 28.7543 557.713 29.0467 557.931 29.2386C558.149 29.4407 558.442 29.5424 558.801 29.5329C559.199 29.535 559.511 29.3904 559.726 29.0989C559.951 28.8076 560.056 28.4201 560.053 27.9263C560.049 27.4532 559.929 27.0792 559.683 26.7939C559.437 26.5189 559.104 26.3852 558.665 26.3818C558.43 26.3745 558.234 26.4199 558.068 26.4764C557.902 26.5433 557.724 26.6611 557.534 26.8506L556.499 26.6026L556.508 26.6337Z" fill="black" style="fill:black;fill-opacity:1;"/>
<path d="M566.068 27.1882C565.632 27.658 565.123 27.889 564.55 27.8918C563.865 27.8911 563.321 27.6583 562.918 27.183C562.516 26.7077 562.302 26.0738 562.309 25.2924C562.306 24.7781 562.415 24.3084 562.613 23.8929C562.822 23.4777 563.11 23.1473 563.496 22.9125C563.872 22.6773 564.316 22.5574 564.818 22.5524C565.595 22.5456 566.219 22.8324 566.679 23.4226C567.14 24.0025 567.368 24.7912 567.375 25.7786L567.362 26.1382C567.375 27.5475 567.061 28.6279 566.432 29.3694C565.803 30.1109 564.859 30.493 563.6 30.5156L563.447 30.5109L563.443 29.4412L563.627 29.4469C564.395 29.4193 564.985 29.2319 565.386 28.8742C565.797 28.5167 566.021 27.958 566.068 27.1984L566.068 27.1882ZM564.821 26.8718C565.076 26.8797 565.325 26.7949 565.555 26.6375C565.785 26.4904 565.956 26.2797 566.088 26.0164L566.086 25.5021C566.085 24.9262 565.968 24.4598 565.735 24.1132C565.501 23.7665 565.19 23.5924 564.822 23.5912C564.444 23.5898 564.152 23.7453 563.927 24.0571C563.701 24.3689 563.596 24.7564 563.6 25.2296C563.603 25.7233 563.712 26.1175 563.937 26.4124C564.162 26.7074 564.464 26.8607 564.832 26.8516L564.821 26.8718Z" fill="black" style="fill:black;fill-opacity:1;"/>
<path d="M573.697 27.1278C573.699 28.2488 573.496 29.0961 573.077 29.6693C572.659 30.2425 572.025 30.5314 571.176 30.5359C570.337 30.5407 569.702 30.2639 569.282 29.7161C568.851 29.1679 568.634 28.3385 568.621 27.248L568.617 25.8903C568.615 24.7693 568.818 23.922 569.236 23.3591C569.655 22.7961 570.289 22.5073 571.148 22.5031C571.997 22.4986 572.632 22.7651 573.052 23.3129C573.473 23.8608 573.69 24.6799 573.703 25.7705L573.708 27.1178L573.697 27.1278ZM572.387 25.6782C572.382 24.9479 572.288 24.4102 572.086 24.0645C571.882 23.7291 571.571 23.5549 571.131 23.5618C570.712 23.5694 570.4 23.7243 570.204 24.0576C570.009 24.3806 569.899 24.8914 569.896 25.5803L569.896 27.3492C569.901 28.0795 570.005 28.6176 570.207 28.9838C570.409 29.3397 570.731 29.5142 571.16 29.5173C571.58 29.5097 571.882 29.3443 572.088 29.0113C572.283 28.678 572.393 28.1569 572.397 27.4577L572.397 25.6888L572.387 25.6782Z" fill="black" style="fill:black;fill-opacity:1;"/>
<path d="M574.695 27.4788C574.695 26.5842 574.894 25.8602 575.312 25.3178C575.719 24.7752 576.271 24.4941 576.966 24.4951C577.58 24.4935 578.073 24.7042 578.447 25.1272L578.438 22.1549L579.737 22.1438L579.758 30.3919L578.581 30.3966L578.52 29.7982C578.136 30.2696 577.616 30.5106 576.972 30.5214C576.297 30.5211 575.744 30.2571 575.333 29.7096C574.913 29.1618 574.703 28.4252 574.705 27.4791L574.695 27.4788ZM576 27.581C576 28.1672 576.117 28.6336 576.341 28.9593C576.565 29.2851 576.886 29.4493 577.305 29.452C577.837 29.4479 578.224 29.2131 578.466 28.727L578.46 26.2485C578.22 25.7886 577.84 25.5505 577.308 25.5546C576.888 25.5621 576.566 25.7269 576.339 26.0593C576.113 26.3916 576.003 26.9024 576.001 27.5707L576 27.581Z" fill="black" style="fill:black;fill-opacity:1;"/>
<path d="M586.19 27.5151C586.19 28.4098 585.991 29.1338 585.584 29.6662C585.176 30.2089 584.635 30.4801 583.95 30.4794C583.316 30.4803 582.812 30.2795 582.427 29.8562L582.434 32.6125L581.135 32.6237L581.118 24.5811L582.314 24.5771L582.365 25.1648C582.739 24.7034 583.259 24.4624 583.913 24.4621C584.619 24.4532 585.172 24.7172 585.573 25.2438C585.974 25.7704 586.174 26.4965 586.182 27.4429L586.179 27.5251L586.19 27.5151ZM584.905 27.4135C584.905 26.8376 584.788 26.3712 584.554 26.0349C584.32 25.6986 583.999 25.5241 583.569 25.5313C583.038 25.5354 582.662 25.7602 582.432 26.1953L582.435 28.7664C582.675 29.216 583.055 29.4438 583.587 29.4397C583.997 29.4319 584.319 29.2671 584.556 28.935C584.782 28.6027 584.902 28.0922 584.905 27.4135Z" fill="black" style="fill:black;fill-opacity:1;"/>
<path d="M590.515 40.9457L1.00024 43.5598L1.69373 204.009L591.208 201.395L590.515 40.9457Z" stroke="white" style="stroke:white;stroke-opacity:1;" stroke-width="2" stroke-miterlimit="10"/>
<path d="M609.227 211.774C610.438 212.861 611.703 213.878 612.83 215.035C614.954 217.22 616.963 219.505 619.088 221.691C620.017 222.646 620.035 223.305 619.255 224.526C616.032 229.53 610.994 232.234 606.27 235.35C605.055 236.145 604.362 235.465 603.625 234.578C599.028 229.023 594.42 223.498 589.812 217.953C589.557 217.637 589.28 217.34 588.877 216.864C588.107 217.839 587.38 218.732 586.693 219.637C583.808 223.427 580.964 227.238 578.039 230.996C577.632 231.518 576.668 232.168 576.284 232.012C575.689 231.757 575.095 230.894 574.986 230.212C572.76 215.294 570.463 200.375 568.557 185.405C568.244 182.926 569.659 180.192 570.414 177.622C570.472 177.438 571.784 177.356 572.308 177.619C575.436 179.198 578.499 180.888 581.594 182.537C594.366 189.375 607.137 196.223 619.908 203.061C621.988 204.175 621.792 204.23 620.675 206.336C618.681 210.112 615.82 211.752 611.617 211.046C611.006 210.945 610.356 211.11 609.731 211.142C609.57 211.342 609.399 211.553 609.238 211.754L609.227 211.774ZM617.05 203.445C617.085 203.323 617.13 203.191 617.165 203.068C602.444 195.182 587.734 187.297 572.641 179.204C575.222 193.309 577.735 207.031 580.316 221.137C583.792 216.82 586.99 212.844 590.188 208.879C591.461 207.313 592.014 207.279 593.354 208.782C596.349 212.157 599.312 215.552 602.285 218.937C604.668 221.655 607.051 224.363 609.463 227.114C612.12 225.467 614.64 223.909 617.266 222.283C611.625 216.14 606.121 210.145 600.618 204.15C600.717 203.957 600.816 203.765 600.905 203.562C606.29 203.513 611.675 203.474 617.05 203.425L617.05 203.445Z" fill="black" style="fill:black;fill-opacity:1;"/>
<path d="M617.045 203.452C611.659 203.501 606.274 203.54 600.898 203.589C600.799 203.781 600.701 203.974 600.612 204.177C606.115 210.172 611.619 216.168 617.261 222.311C614.635 223.938 612.114 225.496 609.457 227.143C607.044 224.392 604.662 221.674 602.279 218.965C599.305 215.58 596.342 212.185 593.347 208.809C592.007 207.306 591.453 207.33 590.181 208.906C586.982 212.872 583.784 216.838 580.307 221.165C577.726 207.059 575.213 193.335 572.632 179.229C587.726 187.322 602.448 195.209 617.16 203.095C617.125 203.218 617.08 203.35 617.045 203.472L617.045 203.452Z" fill="white" style="fill:white;fill-opacity:1;"/>
</svg>
