<svg width="623" height="198" viewBox="0 0 623 198" fill="none" xmlns="http://www.w3.org/2000/svg">
<path d="M590.515 1.94568L1 4.55981L1.69349 165.009L591.208 162.395L590.515 1.94568Z" stroke="white" style="stroke:white;stroke-opacity:1;" stroke-width="2" stroke-miterlimit="10"/>
<path d="M609.227 172.774C610.438 173.861 611.703 174.878 612.829 176.035C614.954 178.22 616.963 180.505 619.087 182.691C620.016 183.646 620.035 184.305 619.255 185.526C616.031 190.53 610.994 193.234 606.27 196.35C605.055 197.145 604.362 196.465 603.625 195.578C599.028 190.023 594.419 184.498 589.812 178.953C589.557 178.637 589.28 178.34 588.877 177.864C588.106 178.839 587.379 179.732 586.693 180.637C583.808 184.427 580.963 188.238 578.039 191.996C577.632 192.518 576.668 193.168 576.284 193.012C575.689 192.757 575.095 191.894 574.985 191.212C572.76 176.294 570.463 161.375 568.557 146.405C568.244 143.926 569.659 141.192 570.414 138.622C570.471 138.438 571.784 138.356 572.307 138.619C575.436 140.198 578.499 141.888 581.594 143.537C594.365 150.375 607.137 157.223 619.908 164.061C621.988 165.175 621.792 165.23 620.675 167.336C618.681 171.112 615.819 172.752 611.617 172.046C611.006 171.945 610.356 172.11 609.73 172.142C609.57 172.342 609.399 172.553 609.238 172.754L609.227 172.774ZM617.049 164.445C617.084 164.323 617.13 164.191 617.165 164.068C602.444 156.182 587.734 148.297 572.641 140.204C575.222 154.309 577.735 168.031 580.315 182.137C583.792 177.82 586.99 173.844 590.188 169.879C591.46 168.313 592.014 168.279 593.354 169.782C596.348 173.157 599.311 176.552 602.285 179.937C604.667 182.655 607.05 185.363 609.462 188.114C612.119 186.467 614.64 184.909 617.266 183.283C611.624 177.14 606.121 171.145 600.618 165.15C600.717 164.957 600.816 164.765 600.905 164.562C606.29 164.513 611.675 164.474 617.05 164.425L617.049 164.445Z" fill="black" style="fill:black;fill-opacity:1;"/>
<path d="M617.045 164.452C611.659 164.501 606.274 164.54 600.898 164.589C600.799 164.781 600.7 164.974 600.611 165.177C606.115 171.172 611.619 177.168 617.26 183.311C614.635 184.938 612.114 186.496 609.457 188.143C607.044 185.392 604.661 182.674 602.278 179.965C599.305 176.58 596.341 173.185 593.347 169.809C592.007 168.306 591.453 168.33 590.18 169.906C586.982 173.872 583.784 177.838 580.307 182.165C577.726 168.059 575.213 154.335 572.632 140.229C587.726 148.322 602.448 156.209 617.16 164.095C617.125 164.218 617.079 164.35 617.044 164.472L617.045 164.452Z" fill="white" style="fill:white;fill-opacity:1;"/>
</svg>
