<svg width="375" height="383" viewBox="0 0 375 383" fill="none" xmlns="http://www.w3.org/2000/svg">
<path d="M108.481 63.0409H93.3505L90.7508 70.4241H84.5635L97.51 34.2361H104.373L117.32 70.4241H111.081L108.481 63.0409ZM106.817 58.2054L100.942 41.4113L95.0143 58.2054H106.817ZM120.973 55.9697C120.973 53.0927 121.562 50.545 122.741 48.3265C123.954 46.1081 125.583 44.3923 127.628 43.1791C129.708 41.9312 131.996 41.3073 134.492 41.3073C136.745 41.3073 138.703 41.7579 140.367 42.6592C142.066 43.5257 143.417 44.6176 144.423 45.9348V41.7753H150.402V70.4241H144.423V66.1605C143.417 67.5124 142.048 68.6389 140.315 69.5402C138.582 70.4414 136.606 70.892 134.388 70.892C131.927 70.892 129.674 70.2681 127.628 69.0202C125.583 67.7377 123.954 65.9699 122.741 63.7168C121.562 61.4291 120.973 58.8467 120.973 55.9697ZM144.423 56.0737C144.423 54.0979 144.007 52.3821 143.175 50.9262C142.377 49.4704 141.32 48.3612 140.003 47.5986C138.686 46.836 137.265 46.4547 135.74 46.4547C134.214 46.4547 132.793 46.836 131.476 47.5986C130.159 48.3265 129.084 49.4184 128.252 50.8742C127.455 52.2954 127.057 53.9939 127.057 55.9697C127.057 57.9455 127.455 59.6786 128.252 61.1691C129.084 62.6596 130.159 63.8035 131.476 64.6007C132.828 65.3633 134.249 65.7446 135.74 65.7446C137.265 65.7446 138.686 65.3633 140.003 64.6007C141.32 63.8381 142.377 62.7289 143.175 61.2731C144.007 59.7826 144.423 58.0494 144.423 56.0737Z" fill="#F2F2F2" style="fill:#F2F2F2;fill:color(display-p3 0.9490 0.9490 0.9490);fill-opacity:1;"/>
<path d="M12.4999 0V383" stroke="#E3E3E3" style="stroke:#E3E3E3;stroke:color(display-p3 0.8886 0.8886 0.8886);stroke-opacity:1;" stroke-width="0.416667" stroke-dasharray="2.08 2.08"/>
<path d="M25 0V383" stroke="#E3E3E3" style="stroke:#E3E3E3;stroke:color(display-p3 0.8886 0.8886 0.8886);stroke-opacity:1;" stroke-width="0.416667" stroke-dasharray="2.08 2.08"/>
<path d="M37.4999 0V383" stroke="#E3E3E3" style="stroke:#E3E3E3;stroke:color(display-p3 0.8886 0.8886 0.8886);stroke-opacity:1;" stroke-width="0.416667" stroke-dasharray="2.08 2.08"/>
<path d="M50 0V383" stroke="#E3E3E3" style="stroke:#E3E3E3;stroke:color(display-p3 0.8886 0.8886 0.8886);stroke-opacity:1;" stroke-width="0.416667" stroke-dasharray="2.08 2.08"/>
<path d="M375 19.6831L-1.32918e-05 19.6831" stroke="#E3E3E3" style="stroke:#E3E3E3;stroke:color(display-p3 0.8886 0.8886 0.8886);stroke-opacity:1;" stroke-width="0.416667" stroke-dasharray="2.08 2.08"/>
<path d="M375 44.2864L-1.32918e-05 44.2864" stroke="#E3E3E3" style="stroke:#E3E3E3;stroke:color(display-p3 0.8886 0.8886 0.8886);stroke-opacity:1;" stroke-width="0.416667" stroke-dasharray="2.08 2.08"/>
<path d="M375 68.8909L-1.32918e-05 68.8909" stroke="#E3E3E3" style="stroke:#E3E3E3;stroke:color(display-p3 0.8886 0.8886 0.8886);stroke-opacity:1;" stroke-width="0.416667" stroke-dasharray="2.08 2.08"/>
<path d="M375 93.4944L-1.32918e-05 93.4944" stroke="#E3E3E3" style="stroke:#E3E3E3;stroke:color(display-p3 0.8886 0.8886 0.8886);stroke-opacity:1;" stroke-width="0.416667" stroke-dasharray="2.08 2.08"/>
<path d="M375 118.099L-1.32918e-05 118.099" stroke="#E3E3E3" style="stroke:#E3E3E3;stroke:color(display-p3 0.8886 0.8886 0.8886);stroke-opacity:1;" stroke-width="0.416667" stroke-dasharray="2.08 2.08"/>
<path d="M375 142.702L-1.32918e-05 142.702" stroke="#E3E3E3" style="stroke:#E3E3E3;stroke:color(display-p3 0.8886 0.8886 0.8886);stroke-opacity:1;" stroke-width="0.416667" stroke-dasharray="2.08 2.08"/>
<path d="M375 167.306L-1.32918e-05 167.306" stroke="#E3E3E3" style="stroke:#E3E3E3;stroke:color(display-p3 0.8886 0.8886 0.8886);stroke-opacity:1;" stroke-width="0.416667" stroke-dasharray="2.08 2.08"/>
<path d="M375 191.91L-1.32918e-05 191.91" stroke="#E3E3E3" style="stroke:#E3E3E3;stroke:color(display-p3 0.8886 0.8886 0.8886);stroke-opacity:1;" stroke-width="0.416667" stroke-dasharray="2.08 2.08"/>
<path d="M375 216.514L-1.32918e-05 216.514" stroke="#E3E3E3" style="stroke:#E3E3E3;stroke:color(display-p3 0.8886 0.8886 0.8886);stroke-opacity:1;" stroke-width="0.416667" stroke-dasharray="2.08 2.08"/>
<path d="M375 241.118L-1.32918e-05 241.118" stroke="#E3E3E3" style="stroke:#E3E3E3;stroke:color(display-p3 0.8886 0.8886 0.8886);stroke-opacity:1;" stroke-width="0.416667" stroke-dasharray="2.08 2.08"/>
<path d="M375 265.722L-1.32918e-05 265.722" stroke="#E3E3E3" style="stroke:#E3E3E3;stroke:color(display-p3 0.8886 0.8886 0.8886);stroke-opacity:1;" stroke-width="0.416667" stroke-dasharray="2.08 2.08"/>
<path d="M375 290.325L-1.32918e-05 290.325" stroke="#E3E3E3" style="stroke:#E3E3E3;stroke:color(display-p3 0.8886 0.8886 0.8886);stroke-opacity:1;" stroke-width="0.416667" stroke-dasharray="2.08 2.08"/>
<path d="M375 314.929L-1.32918e-05 314.929" stroke="#E3E3E3" style="stroke:#E3E3E3;stroke:color(display-p3 0.8886 0.8886 0.8886);stroke-opacity:1;" stroke-width="0.416667" stroke-dasharray="2.08 2.08"/>
<path d="M375 339.533L-1.32918e-05 339.533" stroke="#E3E3E3" style="stroke:#E3E3E3;stroke:color(display-p3 0.8886 0.8886 0.8886);stroke-opacity:1;" stroke-width="0.416667" stroke-dasharray="2.08 2.08"/>
<path d="M375 364.137L-1.32918e-05 364.137" stroke="#E3E3E3" style="stroke:#E3E3E3;stroke:color(display-p3 0.8886 0.8886 0.8886);stroke-opacity:1;" stroke-width="0.416667" stroke-dasharray="2.08 2.08"/>
<path d="M62.4999 0V383" stroke="#E3E3E3" style="stroke:#E3E3E3;stroke:color(display-p3 0.8886 0.8886 0.8886);stroke-opacity:1;" stroke-width="0.416667" stroke-dasharray="2.08 2.08"/>
<path d="M75 0V383" stroke="#E3E3E3" style="stroke:#E3E3E3;stroke:color(display-p3 0.8886 0.8886 0.8886);stroke-opacity:1;" stroke-width="0.416667" stroke-dasharray="2.08 2.08"/>
<path d="M87.4999 0V383" stroke="#E3E3E3" style="stroke:#E3E3E3;stroke:color(display-p3 0.8886 0.8886 0.8886);stroke-opacity:1;" stroke-width="0.416667" stroke-dasharray="2.08 2.08"/>
<path d="M100 0V383" stroke="#E3E3E3" style="stroke:#E3E3E3;stroke:color(display-p3 0.8886 0.8886 0.8886);stroke-opacity:1;" stroke-width="0.416667" stroke-dasharray="2.08 2.08"/>
<path d="M112.5 0V383" stroke="#E3E3E3" style="stroke:#E3E3E3;stroke:color(display-p3 0.8886 0.8886 0.8886);stroke-opacity:1;" stroke-width="0.416667" stroke-dasharray="2.08 2.08"/>
<path d="M125 0V383" stroke="#E3E3E3" style="stroke:#E3E3E3;stroke:color(display-p3 0.8886 0.8886 0.8886);stroke-opacity:1;" stroke-width="0.416667" stroke-dasharray="2.08 2.08"/>
<path d="M137.5 0V383" stroke="#E3E3E3" style="stroke:#E3E3E3;stroke:color(display-p3 0.8886 0.8886 0.8886);stroke-opacity:1;" stroke-width="0.416667" stroke-dasharray="2.08 2.08"/>
<path d="M150 0V383" stroke="#E3E3E3" style="stroke:#E3E3E3;stroke:color(display-p3 0.8886 0.8886 0.8886);stroke-opacity:1;" stroke-width="0.416667" stroke-dasharray="2.08 2.08"/>
<path d="M162.5 0V383" stroke="#E3E3E3" style="stroke:#E3E3E3;stroke:color(display-p3 0.8886 0.8886 0.8886);stroke-opacity:1;" stroke-width="0.416667" stroke-dasharray="2.08 2.08"/>
<path d="M175 0V383" stroke="#E3E3E3" style="stroke:#E3E3E3;stroke:color(display-p3 0.8886 0.8886 0.8886);stroke-opacity:1;" stroke-width="0.416667" stroke-dasharray="2.08 2.08"/>
<path d="M187.5 0V383" stroke="#E3E3E3" style="stroke:#E3E3E3;stroke:color(display-p3 0.8886 0.8886 0.8886);stroke-opacity:1;" stroke-width="0.416667" stroke-dasharray="2.08 2.08"/>
<path d="M200 0V383" stroke="#E3E3E3" style="stroke:#E3E3E3;stroke:color(display-p3 0.8886 0.8886 0.8886);stroke-opacity:1;" stroke-width="0.416667" stroke-dasharray="2.08 2.08"/>
<path d="M212.5 0V383" stroke="#E3E3E3" style="stroke:#E3E3E3;stroke:color(display-p3 0.8886 0.8886 0.8886);stroke-opacity:1;" stroke-width="0.416667" stroke-dasharray="2.08 2.08"/>
<path d="M225 0V383" stroke="#E3E3E3" style="stroke:#E3E3E3;stroke:color(display-p3 0.8886 0.8886 0.8886);stroke-opacity:1;" stroke-width="0.416667" stroke-dasharray="2.08 2.08"/>
<path d="M237.5 0V383" stroke="#E3E3E3" style="stroke:#E3E3E3;stroke:color(display-p3 0.8886 0.8886 0.8886);stroke-opacity:1;" stroke-width="0.416667" stroke-dasharray="2.08 2.08"/>
<path d="M250 0V383" stroke="#E3E3E3" style="stroke:#E3E3E3;stroke:color(display-p3 0.8886 0.8886 0.8886);stroke-opacity:1;" stroke-width="0.416667" stroke-dasharray="2.08 2.08"/>
<path d="M262.5 0V383" stroke="#E3E3E3" style="stroke:#E3E3E3;stroke:color(display-p3 0.8886 0.8886 0.8886);stroke-opacity:1;" stroke-width="0.416667" stroke-dasharray="2.08 2.08"/>
<path d="M275 0V383" stroke="#E3E3E3" style="stroke:#E3E3E3;stroke:color(display-p3 0.8886 0.8886 0.8886);stroke-opacity:1;" stroke-width="0.416667" stroke-dasharray="2.08 2.08"/>
<path d="M287.5 0V383" stroke="#E3E3E3" style="stroke:#E3E3E3;stroke:color(display-p3 0.8886 0.8886 0.8886);stroke-opacity:1;" stroke-width="0.416667" stroke-dasharray="2.08 2.08"/>
<path d="M300 0V383" stroke="#E3E3E3" style="stroke:#E3E3E3;stroke:color(display-p3 0.8886 0.8886 0.8886);stroke-opacity:1;" stroke-width="0.416667" stroke-dasharray="2.08 2.08"/>
<path d="M312.5 0V383" stroke="#E3E3E3" style="stroke:#E3E3E3;stroke:color(display-p3 0.8886 0.8886 0.8886);stroke-opacity:1;" stroke-width="0.416667" stroke-dasharray="2.08 2.08"/>
<path d="M325 0V383" stroke="#E3E3E3" style="stroke:#E3E3E3;stroke:color(display-p3 0.8886 0.8886 0.8886);stroke-opacity:1;" stroke-width="0.416667" stroke-dasharray="2.08 2.08"/>
<path d="M337.5 0V383" stroke="#E3E3E3" style="stroke:#E3E3E3;stroke:color(display-p3 0.8886 0.8886 0.8886);stroke-opacity:1;" stroke-width="0.416667" stroke-dasharray="2.08 2.08"/>
<path d="M350 0V383" stroke="#E3E3E3" style="stroke:#E3E3E3;stroke:color(display-p3 0.8886 0.8886 0.8886);stroke-opacity:1;" stroke-width="0.416667" stroke-dasharray="2.08 2.08"/>
<path d="M362.5 0V383" stroke="#E3E3E3" style="stroke:#E3E3E3;stroke:color(display-p3 0.8886 0.8886 0.8886);stroke-opacity:1;" stroke-width="0.416667" stroke-dasharray="2.08 2.08"/>
<circle cx="99.875" cy="92.875" r="31.875" fill="#EAF9EF" style="fill:#EAF9EF;fill:color(display-p3 0.9176 0.9762 0.9381);fill-opacity:1;"/>
<circle cx="356.042" cy="168.875" r="3.54167" transform="rotate(-90 356.042 168.875)" fill="#171616" style="fill:#171616;fill:color(display-p3 0.0890 0.0865 0.0865);fill-opacity:1;"/>
<ellipse cx="356.042" cy="158.667" rx="3.33333" ry="3.54167" transform="rotate(-90 356.042 158.667)" fill="#828282" style="fill:#828282;fill:color(display-p3 0.5104 0.5104 0.5104);fill-opacity:1;"/>
<circle cx="356.042" cy="148.458" r="3.54167" transform="rotate(-90 356.042 148.458)" fill="#023451" style="fill:#023451;fill:color(display-p3 0.0078 0.2039 0.3176);fill-opacity:1;"/>
<circle cx="356.042" cy="139.292" r="3.54167" transform="rotate(-90 356.042 139.292)" fill="#4AB16E" style="fill:#4AB16E;fill:color(display-p3 0.2902 0.6941 0.4314);fill-opacity:1;"/>
<circle cx="18.125" cy="46.7918" r="3.54167" transform="rotate(-90 18.125 46.7918)" fill="#171616" style="fill:#171616;fill:color(display-p3 0.0890 0.0865 0.0865);fill-opacity:1;"/>
<ellipse cx="18.125" cy="36.5834" rx="3.33333" ry="3.54167" transform="rotate(-90 18.125 36.5834)" fill="#828282" style="fill:#828282;fill:color(display-p3 0.5104 0.5104 0.5104);fill-opacity:1;"/>
<circle cx="18.125" cy="26.3748" r="3.54167" transform="rotate(-90 18.125 26.3748)" fill="#023451" style="fill:#023451;fill:color(display-p3 0.0078 0.2039 0.3176);fill-opacity:1;"/>
<circle cx="18.125" cy="17.2083" r="3.54167" transform="rotate(-90 18.125 17.2083)" fill="#4AB16E" style="fill:#4AB16E;fill:color(display-p3 0.2902 0.6941 0.4314);fill-opacity:1;"/>
</svg>
