<svg width="900" height="467" viewBox="0 0 900 467" fill="none" xmlns="http://www.w3.org/2000/svg">
  <path d="M748 139V329" stroke="#777777" style="stroke:#777777;stroke:color(display-p3 0.4667 0.4647 0.4647);stroke-opacity:1;" stroke-dasharray="5 5"/>
  <path d="M260.354 121.28H224.041L217.802 139H202.952L234.024 52.1489H250.496L281.568 139H266.593L260.354 121.28ZM256.361 109.675L242.26 69.3694L228.034 109.675H256.361ZM290.336 104.309C290.336 97.4046 291.75 91.2901 294.578 85.9659C297.49 80.6417 301.4 76.5238 306.308 73.6121C311.3 70.6172 316.79 69.1198 322.78 69.1198C328.187 69.1198 332.888 70.2013 336.881 72.3642C340.957 74.444 344.202 77.0645 346.614 80.2257V70.2429H360.965V139H346.614V128.768C344.202 132.012 340.916 134.716 336.756 136.879C332.597 139.042 327.855 140.123 322.531 140.123C316.624 140.123 311.217 138.626 306.308 135.631C301.4 132.553 297.49 128.31 294.578 122.903C291.75 117.412 290.336 111.214 290.336 104.309ZM346.614 104.559C346.614 99.8172 345.616 95.6992 343.619 92.2052C341.706 88.7112 339.169 86.0491 336.007 84.2189C332.846 82.3887 329.435 81.4736 325.775 81.4736C322.115 81.4736 318.704 82.3887 315.542 84.2189C312.381 85.9659 309.802 88.5864 307.806 92.0804C305.892 95.4912 304.936 99.5676 304.936 104.309C304.936 109.051 305.892 113.211 307.806 116.788C309.802 120.365 312.381 123.111 315.542 125.024C318.787 126.854 322.198 127.769 325.775 127.769C329.435 127.769 332.846 126.854 336.007 125.024C339.169 123.194 341.706 120.532 343.619 117.038C345.616 113.46 346.614 109.301 346.614 104.559Z" fill="#F2F2F2" style="fill:#F2F2F2;fill:color(display-p3 0.9490 0.9490 0.9490);fill-opacity:1;"/>
  <path d="M30 0V467" stroke="#E3E3E3" style="stroke:#E3E3E3;stroke:color(display-p3 0.8886 0.8886 0.8886);stroke-opacity:1;" stroke-dasharray="5 5"/>
  <path d="M60 0V467" stroke="#E3E3E3" style="stroke:#E3E3E3;stroke:color(display-p3 0.8886 0.8886 0.8886);stroke-opacity:1;" stroke-dasharray="5 5"/>
  <path d="M90 0V467" stroke="#E3E3E3" style="stroke:#E3E3E3;stroke:color(display-p3 0.8886 0.8886 0.8886);stroke-opacity:1;" stroke-dasharray="5 5"/>
  <path d="M120 0V467" stroke="#E3E3E3" style="stroke:#E3E3E3;stroke:color(display-p3 0.8886 0.8886 0.8886);stroke-opacity:1;" stroke-dasharray="5 5"/>
  <path d="M900 24L1.26362e-05 24" stroke="#E3E3E3" style="stroke:#E3E3E3;stroke:color(display-p3 0.8886 0.8886 0.8886);stroke-opacity:1;" stroke-dasharray="5 5"/>
  <path d="M900 54L1.26362e-05 54" stroke="#E3E3E3" style="stroke:#E3E3E3;stroke:color(display-p3 0.8886 0.8886 0.8886);stroke-opacity:1;" stroke-dasharray="5 5"/>
  <path d="M900 84L1.26362e-05 84" stroke="#E3E3E3" style="stroke:#E3E3E3;stroke:color(display-p3 0.8886 0.8886 0.8886);stroke-opacity:1;" stroke-dasharray="5 5"/>
  <path d="M900 114L1.26362e-05 114" stroke="#E3E3E3" style="stroke:#E3E3E3;stroke:color(display-p3 0.8886 0.8886 0.8886);stroke-opacity:1;" stroke-dasharray="5 5"/>
  <path d="M900 144L1.26362e-05 144" stroke="#E3E3E3" style="stroke:#E3E3E3;stroke:color(display-p3 0.8886 0.8886 0.8886);stroke-opacity:1;" stroke-dasharray="5 5"/>
  <path d="M900 174L1.26362e-05 174" stroke="#E3E3E3" style="stroke:#E3E3E3;stroke:color(display-p3 0.8886 0.8886 0.8886);stroke-opacity:1;" stroke-dasharray="5 5"/>
  <path d="M900 204L1.26362e-05 204" stroke="#E3E3E3" style="stroke:#E3E3E3;stroke:color(display-p3 0.8886 0.8886 0.8886);stroke-opacity:1;" stroke-dasharray="5 5"/>
  <path d="M900 234L1.26362e-05 234" stroke="#E3E3E3" style="stroke:#E3E3E3;stroke:color(display-p3 0.8886 0.8886 0.8886);stroke-opacity:1;" stroke-dasharray="5 5"/>
  <path d="M900 264L1.26362e-05 264" stroke="#E3E3E3" style="stroke:#E3E3E3;stroke:color(display-p3 0.8886 0.8886 0.8886);stroke-opacity:1;" stroke-dasharray="5 5"/>
  <path d="M900 294L1.26362e-05 294" stroke="#E3E3E3" style="stroke:#E3E3E3;stroke:color(display-p3 0.8886 0.8886 0.8886);stroke-opacity:1;" stroke-dasharray="5 5"/>
  <path d="M900 324L1.26362e-05 324" stroke="#E3E3E3" style="stroke:#E3E3E3;stroke:color(display-p3 0.8886 0.8886 0.8886);stroke-opacity:1;" stroke-dasharray="5 5"/>
  <path d="M900 354L1.26362e-05 354" stroke="#E3E3E3" style="stroke:#E3E3E3;stroke:color(display-p3 0.8886 0.8886 0.8886);stroke-opacity:1;" stroke-dasharray="5 5"/>
  <path d="M900 384L1.26362e-05 384" stroke="#E3E3E3" style="stroke:#E3E3E3;stroke:color(display-p3 0.8886 0.8886 0.8886);stroke-opacity:1;" stroke-dasharray="5 5"/>
  <path d="M900 414L1.26362e-05 414" stroke="#E3E3E3" style="stroke:#E3E3E3;stroke:color(display-p3 0.8886 0.8886 0.8886);stroke-opacity:1;" stroke-dasharray="5 5"/>
  <path d="M900 444L1.26362e-05 444" stroke="#E3E3E3" style="stroke:#E3E3E3;stroke:color(display-p3 0.8886 0.8886 0.8886);stroke-opacity:1;" stroke-dasharray="5 5"/>
  <path d="M150 0V467" stroke="#E3E3E3" style="stroke:#E3E3E3;stroke:color(display-p3 0.8886 0.8886 0.8886);stroke-opacity:1;" stroke-dasharray="5 5"/>
  <path d="M180 0V467" stroke="#E3E3E3" style="stroke:#E3E3E3;stroke:color(display-p3 0.8886 0.8886 0.8886);stroke-opacity:1;" stroke-dasharray="5 5"/>
  <path d="M210 0V467" stroke="#E3E3E3" style="stroke:#E3E3E3;stroke:color(display-p3 0.8886 0.8886 0.8886);stroke-opacity:1;" stroke-dasharray="5 5"/>
  <path d="M240 0V467" stroke="#E3E3E3" style="stroke:#E3E3E3;stroke:color(display-p3 0.8886 0.8886 0.8886);stroke-opacity:1;" stroke-dasharray="5 5"/>
  <path d="M270 0V467" stroke="#E3E3E3" style="stroke:#E3E3E3;stroke:color(display-p3 0.8886 0.8886 0.8886);stroke-opacity:1;" stroke-dasharray="5 5"/>
  <path d="M300 0V467" stroke="#E3E3E3" style="stroke:#E3E3E3;stroke:color(display-p3 0.8886 0.8886 0.8886);stroke-opacity:1;" stroke-dasharray="5 5"/>
  <path d="M330 0V467" stroke="#E3E3E3" style="stroke:#E3E3E3;stroke:color(display-p3 0.8886 0.8886 0.8886);stroke-opacity:1;" stroke-dasharray="5 5"/>
  <path d="M360 0V467" stroke="#E3E3E3" style="stroke:#E3E3E3;stroke:color(display-p3 0.8886 0.8886 0.8886);stroke-opacity:1;" stroke-dasharray="5 5"/>
  <path d="M390 0V467" stroke="#E3E3E3" style="stroke:#E3E3E3;stroke:color(display-p3 0.8886 0.8886 0.8886);stroke-opacity:1;" stroke-dasharray="5 5"/>
  <path d="M420 0V467" stroke="#E3E3E3" style="stroke:#E3E3E3;stroke:color(display-p3 0.8886 0.8886 0.8886);stroke-opacity:1;" stroke-dasharray="5 5"/>
  <path d="M450 0V467" stroke="#E3E3E3" style="stroke:#E3E3E3;stroke:color(display-p3 0.8886 0.8886 0.8886);stroke-opacity:1;" stroke-dasharray="5 5"/>
  <path d="M480 0V467" stroke="#E3E3E3" style="stroke:#E3E3E3;stroke:color(display-p3 0.8886 0.8886 0.8886);stroke-opacity:1;" stroke-dasharray="5 5"/>
  <path d="M510 0V467" stroke="#E3E3E3" style="stroke:#E3E3E3;stroke:color(display-p3 0.8886 0.8886 0.8886);stroke-opacity:1;" stroke-dasharray="5 5"/>
  <path d="M540 0V467" stroke="#E3E3E3" style="stroke:#E3E3E3;stroke:color(display-p3 0.8886 0.8886 0.8886);stroke-opacity:1;" stroke-dasharray="5 5"/>
  <path d="M570 0V467" stroke="#E3E3E3" style="stroke:#E3E3E3;stroke:color(display-p3 0.8886 0.8886 0.8886);stroke-opacity:1;" stroke-dasharray="5 5"/>
  <path d="M600 0V467" stroke="#E3E3E3" style="stroke:#E3E3E3;stroke:color(display-p3 0.8886 0.8886 0.8886);stroke-opacity:1;" stroke-dasharray="5 5"/>
  <path d="M630 0V467" stroke="#E3E3E3" style="stroke:#E3E3E3;stroke:color(display-p3 0.8886 0.8886 0.8886);stroke-opacity:1;" stroke-dasharray="5 5"/>
  <path d="M660 0V467" stroke="#E3E3E3" style="stroke:#E3E3E3;stroke:color(display-p3 0.8886 0.8886 0.8886);stroke-opacity:1;" stroke-dasharray="5 5"/>
  <path d="M690 0V467" stroke="#E3E3E3" style="stroke:#E3E3E3;stroke:color(display-p3 0.8886 0.8886 0.8886);stroke-opacity:1;" stroke-dasharray="5 5"/>
  <path d="M720 0V467" stroke="#E3E3E3" style="stroke:#E3E3E3;stroke:color(display-p3 0.8886 0.8886 0.8886);stroke-opacity:1;" stroke-dasharray="5 5"/>
  <path d="M750 0V467" stroke="#E3E3E3" style="stroke:#E3E3E3;stroke:color(display-p3 0.8886 0.8886 0.8886);stroke-opacity:1;" stroke-dasharray="5 5"/>
  <path d="M780 0V467" stroke="#E3E3E3" style="stroke:#E3E3E3;stroke:color(display-p3 0.8886 0.8886 0.8886);stroke-opacity:1;" stroke-dasharray="5 5"/>
  <path d="M810 0V467" stroke="#E3E3E3" style="stroke:#E3E3E3;stroke:color(display-p3 0.8886 0.8886 0.8886);stroke-opacity:1;" stroke-dasharray="5 5"/>
  <path d="M840 0V467" stroke="#E3E3E3" style="stroke:#E3E3E3;stroke:color(display-p3 0.8886 0.8886 0.8886);stroke-opacity:1;" stroke-dasharray="5 5"/>
  <path d="M870 0V467" stroke="#E3E3E3" style="stroke:#E3E3E3;stroke:color(display-p3 0.8886 0.8886 0.8886);stroke-opacity:1;" stroke-dasharray="5 5"/>
  <circle cx="231.5" cy="228.5" r="76.5" fill="#EAF9EF" style="fill:#EAF9EF;fill:color(display-p3 0.9176 0.9762 0.9381);fill-opacity:1;"/>
  <circle cx="854.5" cy="412.5" r="8.5" transform="rotate(-90 854.5 412.5)" fill="#171616" style="fill:#171616;fill:color(display-p3 0.0890 0.0865 0.0865);fill-opacity:1;"/>
  <ellipse cx="854.5" cy="388" rx="8" ry="8.5" transform="rotate(-90 854.5 388)" fill="#828282" style="fill:#828282;fill:color(display-p3 0.5104 0.5104 0.5104);fill-opacity:1;"/>
  <circle cx="854.5" cy="363.5" r="8.5" transform="rotate(-90 854.5 363.5)" fill="#023451" style="fill:#023451;fill:color(display-p3 0.0078 0.2039 0.3176);fill-opacity:1;"/>
  <circle cx="854.5" cy="341.5" r="8.5" transform="rotate(-90 854.5 341.5)" fill="#4AB16E" style="fill:#4AB16E;fill:color(display-p3 0.2902 0.6941 0.4314);fill-opacity:1;"/>
  <circle cx="43.5" cy="119.5" r="8.5" transform="rotate(-90 43.5 119.5)" fill="#171616" style="fill:#171616;fill:color(display-p3 0.0890 0.0865 0.0865);fill-opacity:1;"/>
  <ellipse cx="43.5" cy="95" rx="8" ry="8.5" transform="rotate(-90 43.5 95)" fill="#828282" style="fill:#828282;fill:color(display-p3 0.5104 0.5104 0.5104);fill-opacity:1;"/>
  <circle cx="43.5" cy="70.5" r="8.5" transform="rotate(-90 43.5 70.5)" fill="#023451" style="fill:#023451;fill:color(display-p3 0.0078 0.2039 0.3176);fill-opacity:1;"/>
  <circle cx="43.5" cy="48.5" r="8.5" transform="rotate(-90 43.5 48.5)" fill="#4AB16E" style="fill:#4AB16E;fill:color(display-p3 0.2902 0.6941 0.4314);fill-opacity:1;"/>
  <rect x="121.5" y="152.5" width="657" height="152" stroke="#777777" style="stroke:#777777;stroke:color(display-p3 0.4667 0.4647 0.4647);stroke-opacity:1;" stroke-dasharray="5 5"/>
  <path d="M152 139V329" stroke="#777777" style="stroke:#777777;stroke:color(display-p3 0.4667 0.4647 0.4647);stroke-opacity:1;" stroke-dasharray="5 5"/>
</svg>
