<svg width="45" height="45" viewBox="0 0 45 45" fill="none" xmlns="http://www.w3.org/2000/svg">
<path d="M36.6667 6.17853H24V4.08927C24 3.53516 23.7893 3.00375 23.4142 2.61193C23.0391 2.22012 22.5304 2 22 2C21.4696 2 20.9609 2.22012 20.5858 2.61193C20.2107 3.00375 20 3.53516 20 4.08927V6.17853H7.33333C6.44928 6.17853 5.60143 6.5454 4.97631 7.19842C4.35119 7.85144 4 8.73713 4 9.66065V30.5533C4 31.4768 4.35119 32.3625 4.97631 33.0155C5.60143 33.6686 6.44928 34.0354 7.33333 34.0354H12.5L9.76667 37.6046C9.43515 38.0373 9.28174 38.5898 9.34018 39.1406C9.39863 39.6914 9.66415 40.1954 10.0783 40.5418C10.4925 40.8881 11.0214 41.0483 11.5487 40.9873C12.076 40.9262 12.5585 40.6488 12.89 40.2162L17.6233 34.0354H26.3667L31.1 40.2162C31.2642 40.4304 31.4671 40.6088 31.6972 40.7411C31.9274 40.8734 32.1802 40.957 32.4413 40.9873C32.7024 41.0175 32.9666 40.9937 33.2189 40.9173C33.4712 40.8408 33.7066 40.7132 33.9117 40.5418C34.1167 40.3703 34.2875 40.1583 34.4141 39.9179C34.5408 39.6775 34.6209 39.4133 34.6498 39.1406C34.6788 38.8679 34.656 38.5918 34.5828 38.3283C34.5096 38.0647 34.3875 37.8188 34.2233 37.6046L31.5 34.0354H36.6667C37.5507 34.0354 38.3986 33.6686 39.0237 33.0155C39.6488 32.3625 40 31.4768 40 30.5533V9.66065C40 8.73713 39.6488 7.85144 39.0237 7.19842C38.3986 6.5454 37.5507 6.17853 36.6667 6.17853ZM36 29.8569H8V10.3571H36V29.8569Z" fill="#03844C" style="fill:#03844C;fill:color(display-p3 0.0118 0.5176 0.2980);fill-opacity:1;"/>
</svg>
