<svg width="329" height="130" viewBox="0 0 329 130" fill="none" xmlns="http://www.w3.org/2000/svg">
<rect width="329" height="130" rx="12" fill="url(#paint0_linear_1973_5776)" style=""/>
<mask id="mask0_1973_5776" style="mask-type:alpha" maskUnits="userSpaceOnUse" x="220" y="10" width="109" height="111">
<path d="M220 10H311C320.941 10 329 18.0589 329 28V120.677H220V10Z" fill="#D9D9D9" style="fill:#D9D9D9;fill:color(display-p3 0.8510 0.8510 0.8510);fill-opacity:1;"/>
</mask>
<g mask="url(#mask0_1973_5776)">
<g opacity="0.33">
<mask id="mask1_1973_5776" style="mask-type:alpha" maskUnits="userSpaceOnUse" x="238" y="0" width="120" height="130">
<rect x="238.446" y="0.162109" width="119.447" height="128.9" fill="#D9D9D9" style="fill:#D9D9D9;fill:color(display-p3 0.8510 0.8510 0.8510);fill-opacity:1;"/>
</mask>
<g mask="url(#mask1_1973_5776)">
<path d="M347.939 65.6943C347.939 67.366 347.323 68.9693 346.225 70.1513C345.128 71.3334 343.639 71.9975 342.087 71.9975H299.173C297.621 71.9975 296.132 71.3334 295.035 70.1513C293.937 68.9693 293.321 67.366 293.321 65.6943C293.321 64.0226 293.937 62.4194 295.035 61.2373C296.132 60.0552 297.621 59.3912 299.173 59.3912H342.087C343.639 59.3912 345.128 60.0552 346.225 61.2373C347.323 62.4194 347.939 64.0226 347.939 65.6943ZM299.173 38.3806H342.087C343.639 38.3806 345.128 37.7165 346.225 36.5345C347.323 35.3524 347.939 33.7492 347.939 32.0775C347.939 30.4058 347.323 28.8025 346.225 27.6204C345.128 26.4384 343.639 25.7743 342.087 25.7743H299.173C297.621 25.7743 296.132 26.4384 295.035 27.6204C293.937 28.8025 293.321 30.4058 293.321 32.0775C293.321 33.7492 293.937 35.3524 295.035 36.5345C296.132 37.7165 297.621 38.3806 299.173 38.3806ZM342.087 93.008H299.173C297.621 93.008 296.132 93.6721 295.035 94.8542C293.937 96.0363 293.321 97.6395 293.321 99.3112C293.321 100.983 293.937 102.586 295.035 103.768C296.132 104.95 297.621 105.614 299.173 105.614H342.087C343.639 105.614 345.128 104.95 346.225 103.768C347.323 102.586 347.939 100.983 347.939 99.3112C347.939 97.6395 347.323 96.0363 346.225 94.8542C345.128 93.6721 343.639 93.008 342.087 93.008ZM275.526 19.2137L264.061 31.5522L260.398 27.6022C259.299 26.4181 257.808 25.7529 256.253 25.7529C254.698 25.7529 253.207 26.4181 252.108 27.6022C251.008 28.7863 250.391 30.3923 250.391 32.0669C250.391 33.7416 251.008 35.3476 252.108 36.5317L259.91 44.9359C260.454 45.5235 261.1 45.9898 261.812 46.3079C262.523 46.626 263.285 46.7898 264.056 46.7898C264.826 46.7898 265.589 46.626 266.3 46.3079C267.011 45.9898 267.657 45.5235 268.201 44.9359L283.806 28.1275C284.906 26.9433 285.523 25.3373 285.523 23.6627C285.523 21.9881 284.906 20.3821 283.806 19.198C282.707 18.0139 281.216 17.3486 279.661 17.3486C278.106 17.3486 276.615 18.0139 275.516 19.198L275.526 19.2137ZM275.526 52.8306L264.061 65.1691L260.398 61.2191C259.299 60.035 257.808 59.3697 256.253 59.3697C254.698 59.3697 253.207 60.035 252.108 61.2191C251.008 62.4032 250.391 64.0092 250.391 65.6838C250.391 67.3584 251.008 68.9644 252.108 70.1486L259.91 78.5528C260.454 79.1404 261.1 79.6067 261.812 79.9248C262.523 80.2429 263.285 80.4067 264.056 80.4067C264.826 80.4067 265.589 80.2429 266.3 79.9248C267.011 79.6067 267.657 79.1404 268.201 78.5528L283.806 61.7443C284.906 60.5602 285.523 58.9542 285.523 57.2796C285.523 55.605 284.906 53.999 283.806 52.8149C282.707 51.6307 281.216 50.9655 279.661 50.9655C278.106 50.9655 276.615 51.6307 275.516 52.8149L275.526 52.8306ZM275.526 86.4475L264.061 98.7859L260.398 94.836C259.854 94.2496 259.208 93.7846 258.496 93.4672C257.785 93.1499 257.023 92.9866 256.253 92.9866C255.483 92.9866 254.721 93.1499 254.01 93.4672C253.298 93.7846 252.652 94.2496 252.108 94.836C251.563 95.4223 251.132 96.1183 250.837 96.8844C250.542 97.6505 250.391 98.4715 250.391 99.3007C250.391 100.13 250.542 100.951 250.837 101.717C251.132 102.483 251.563 103.179 252.108 103.765L259.91 112.17C260.454 112.757 261.1 113.224 261.812 113.542C262.523 113.86 263.285 114.024 264.056 114.024C264.826 114.024 265.589 113.86 266.3 113.542C267.011 113.224 267.657 112.757 268.201 112.17L283.806 95.3612C284.906 94.1771 285.523 92.5711 285.523 90.8965C285.523 89.2219 284.906 87.6159 283.806 86.4317C282.707 85.2476 281.216 84.5824 279.661 84.5824C278.106 84.5824 276.615 85.2476 275.516 86.4317L275.526 86.4475Z" fill="#347847" style="fill:#347847;fill:color(display-p3 0.2024 0.4703 0.2780);fill-opacity:1;"/>
</g>
</g>
</g>
<defs>
<linearGradient id="paint0_linear_1973_5776" x1="21.4832" y1="4.375" x2="126.964" y2="219.807" gradientUnits="userSpaceOnUse">
<stop stop-color="#6BE78E" style="stop-color:#6BE78E;stop-color:color(display-p3 0.4215 0.9063 0.5572);stop-opacity:1;"/>
<stop offset="1" stop-color="#4BA263" style="stop-color:#4BA263;stop-color:color(display-p3 0.2947 0.6347 0.3899);stop-opacity:1;"/>
</linearGradient>
</defs>
</svg>
