<svg width="268" height="208" viewBox="0 0 268 208" fill="none" xmlns="http://www.w3.org/2000/svg">
<rect width="268" height="208" rx="18" fill="url(#paint0_linear_1953_4823)" style=""/>
<mask id="mask0_1953_4823" style="mask-type:alpha" maskUnits="userSpaceOnUse" x="162" y="0" width="106" height="150">
<path d="M162 0H250C259.941 0 268 8.05887 268 18V150H162V0Z" fill="#D9D9D9" style="fill:#D9D9D9;fill:color(display-p3 0.8510 0.8510 0.8510);fill-opacity:1;"/>
</mask>
<g mask="url(#mask0_1953_4823)">
<g opacity="0.19">
<mask id="mask1_1953_4823" style="mask-type:alpha" maskUnits="userSpaceOnUse" x="162" y="-19" width="157" height="170">
<rect x="162" y="-19" width="157" height="169.424" fill="#D9D9D9" style="fill:#D9D9D9;fill:color(display-p3 0.8510 0.8510 0.8510);fill-opacity:1;"/>
</mask>
<g mask="url(#mask1_1953_4823)">
<path d="M274.754 55.1403C274.508 53.9671 274.005 52.8797 273.29 51.9746C272.575 51.0695 271.671 50.3746 270.657 49.9515L240.795 37.4923L248.474 -5.23869C248.755 -6.80151 248.57 -8.42359 247.948 -9.85889C247.325 -11.2942 246.299 -12.4644 245.025 -13.192C243.751 -13.9196 242.298 -14.165 240.887 -13.8908C239.477 -13.6166 238.185 -12.8379 237.208 -11.6728L175.773 61.5804C175.033 62.4609 174.501 63.5306 174.222 64.6949C173.943 65.8592 173.927 67.082 174.174 68.255C174.421 69.428 174.925 70.5151 175.64 71.4197C176.355 72.3244 177.26 73.0188 178.274 73.4414L208.136 85.9005L200.456 128.632C200.176 130.194 200.36 131.816 200.983 133.252C201.606 134.687 202.632 135.857 203.906 136.585C205.18 137.312 206.633 137.558 208.043 137.284C209.454 137.009 210.746 136.231 211.723 135.066L273.158 61.8124C273.897 60.932 274.429 59.8625 274.707 58.6988C274.985 57.535 275.002 56.3127 274.754 55.1403ZM217.91 106.216L222.145 82.6652C222.451 80.9596 222.202 79.1884 221.443 77.6685C220.683 76.1485 219.462 74.979 217.998 74.3692L192.102 63.5705L231.009 17.1768L226.775 40.7277C226.468 42.4333 226.717 44.2044 227.477 45.7244C228.237 47.2443 229.458 48.4138 230.922 49.0236L256.829 59.8224L217.91 106.216Z" fill="#6B511D" style="fill:#6B511D;fill:color(display-p3 0.4178 0.3164 0.1136);fill-opacity:1;"/>
</g>
</g>
</g>
<defs>
<linearGradient id="paint0_linear_1953_4823" x1="134" y1="0" x2="134" y2="208" gradientUnits="userSpaceOnUse">
<stop stop-color="#FBC24F" style="stop-color:#FBC24F;stop-color:color(display-p3 0.9858 0.7604 0.3095);stop-opacity:1;"/>
<stop offset="1" stop-color="#DBAE55" style="stop-color:#DBAE55;stop-color:color(display-p3 0.8582 0.6829 0.3324);stop-opacity:1;"/>
</linearGradient>
</defs>
</svg>
