<svg width="268" height="208" viewBox="0 0 268 208" fill="none" xmlns="http://www.w3.org/2000/svg">
<rect width="268" height="208" rx="18" fill="url(#paint0_linear_1953_4832)" style=""/>
<mask id="mask0_1953_4832" style="mask-type:alpha" maskUnits="userSpaceOnUse" x="131" y="0" width="137" height="150">
<path d="M131 0H250C259.941 0 268 8.05887 268 18V150H131V0Z" fill="#D9D9D9" style="fill:#D9D9D9;fill:color(display-p3 0.8510 0.8510 0.8510);fill-opacity:1;"/>
</mask>
<g mask="url(#mask0_1953_4832)">
<g opacity="0.27">
<mask id="mask1_1953_4832" style="mask-type:alpha" maskUnits="userSpaceOnUse" x="135" y="-26" width="158" height="171">
<rect x="135" y="-26" width="158" height="170.504" fill="#D9D9D9" style="fill:#D9D9D9;fill:color(display-p3 0.8510 0.8510 0.8510);fill-opacity:1;"/>
</mask>
<g mask="url(#mask1_1953_4832)">
<path d="M235.194 82.094L212.794 106.094C211.532 107.447 209.82 108.206 208.034 108.206C206.249 108.206 204.537 107.447 203.274 106.094C202.012 104.741 201.303 102.907 201.303 100.994C201.303 99.0811 202.012 97.2466 203.274 95.894L214.2 84.2H167.72C165.938 84.2 164.228 83.4414 162.968 82.0912C161.708 80.7409 161 78.9096 161 77C161 75.0904 161.708 73.2591 162.968 71.9088C164.228 70.5586 165.938 69.8 167.72 69.8H214.2L203.286 58.094C202.661 57.4243 202.165 56.6292 201.826 55.7541C201.488 54.879 201.314 53.9412 201.314 52.994C201.314 51.0811 202.023 49.2466 203.286 47.894C204.548 46.5414 206.26 45.7815 208.046 45.7815C209.831 45.7815 211.543 46.5414 212.806 47.894L235.206 71.894C235.831 72.5637 236.328 73.3592 236.666 74.2348C237.004 75.1104 237.178 76.0489 237.176 76.9965C237.175 77.9441 237 78.8822 236.66 79.7569C236.32 80.6317 235.822 81.4259 235.194 82.094ZM261.8 17H230.44C228.658 17 226.948 17.7586 225.688 19.1088C224.428 20.4591 223.72 22.2904 223.72 24.2C223.72 26.1096 224.428 27.9409 225.688 29.2912C226.948 30.6414 228.658 31.4 230.44 31.4H259.56V122.6H230.44C228.658 122.6 226.948 123.359 225.688 124.709C224.428 126.059 223.72 127.89 223.72 129.8C223.72 131.71 224.428 133.541 225.688 134.891C226.948 136.241 228.658 137 230.44 137H261.8C264.77 137 267.619 135.736 269.72 133.485C271.82 131.235 273 128.183 273 125V29C273 25.8174 271.82 22.7652 269.72 20.5147C267.619 18.2643 264.77 17 261.8 17Z" fill="#304773" style="fill:#304773;fill:color(display-p3 0.1890 0.2783 0.4527);fill-opacity:1;"/>
</g>
</g>
</g>
<defs>
<linearGradient id="paint0_linear_1953_4832" x1="134" y1="-3.07193e-06" x2="214" y2="232.5" gradientUnits="userSpaceOnUse">
<stop stop-color="#7DA9FF" style="stop-color:#7DA9FF;stop-color:color(display-p3 0.4884 0.6623 1.0000);stop-opacity:1;"/>
<stop offset="1" stop-color="#5688E9" style="stop-color:#5688E9;stop-color:color(display-p3 0.3369 0.5335 0.9151);stop-opacity:1;"/>
</linearGradient>
</defs>
</svg>
