<svg width="329" height="130" viewBox="0 0 329 130" fill="none" xmlns="http://www.w3.org/2000/svg">
<rect width="329" height="130" rx="18" fill="url(#paint0_linear_1973_5777)" style=""/>
<mask id="mask0_1973_5777" style="mask-type:alpha" maskUnits="userSpaceOnUse" x="253" y="0" width="76" height="108">
<path d="M253 0H311C320.941 0 329 8.05888 329 18V107.547H253V0Z" fill="#D9D9D9" style="fill:#D9D9D9;fill:color(display-p3 0.8510 0.8510 0.8510);fill-opacity:1;"/>
</mask>
<g mask="url(#mask0_1973_5777)">
<g opacity="0.19">
<mask id="mask1_1973_5777" style="mask-type:alpha" maskUnits="userSpaceOnUse" x="253" y="-14" width="113" height="122">
<rect x="253" y="-13.623" width="112.566" height="121.474" fill="#D9D9D9" style="fill:#D9D9D9;fill:color(display-p3 0.8510 0.8510 0.8510);fill-opacity:1;"/>
</mask>
<g mask="url(#mask1_1973_5777)">
<path d="M333.843 39.5342C333.666 38.693 333.305 37.9134 332.793 37.2645C332.28 36.6155 331.632 36.1173 330.905 35.8139L309.495 26.881L315.001 -3.75639C315.202 -4.87691 315.069 -6.03991 314.623 -7.06899C314.177 -8.09807 313.441 -8.93708 312.527 -9.45877C311.614 -9.98046 310.572 -10.1564 309.561 -9.95978C308.549 -9.7632 307.623 -9.20488 306.922 -8.3695L262.875 44.1517C262.345 44.7829 261.963 45.5499 261.763 46.3847C261.563 47.2194 261.551 48.0962 261.729 48.9372C261.906 49.7783 262.267 50.5576 262.78 51.2062C263.292 51.8549 263.941 52.3527 264.668 52.6557L286.078 61.5887L280.572 92.226C280.371 93.3466 280.504 94.5096 280.95 95.5386C281.396 96.5677 282.132 97.4067 283.046 97.9284C283.959 98.4501 285.001 98.626 286.012 98.4294C287.024 98.2329 287.95 97.6745 288.65 96.8392L332.698 44.318C333.228 43.6867 333.609 42.92 333.809 42.0856C334.008 41.2511 334.02 40.3748 333.843 39.5342ZM293.087 76.1546L296.123 59.269C296.343 58.0462 296.164 56.7762 295.619 55.6865C295.074 54.5967 294.199 53.7582 293.15 53.321L274.583 45.5785L302.478 12.3151L299.442 29.2006C299.223 30.4235 299.401 31.6934 299.946 32.7832C300.491 33.8729 301.366 34.7114 302.415 35.1487L320.99 42.8912L293.087 76.1546Z" fill="#6B511D" style="fill:#6B511D;fill:color(display-p3 0.4178 0.3164 0.1136);fill-opacity:1;"/>
</g>
</g>
</g>
<defs>
<linearGradient id="paint0_linear_1973_5777" x1="164.5" y1="0" x2="164.5" y2="130" gradientUnits="userSpaceOnUse">
<stop stop-color="#FBC24F" style="stop-color:#FBC24F;stop-color:color(display-p3 0.9858 0.7604 0.3095);stop-opacity:1;"/>
<stop offset="1" stop-color="#DBAE55" style="stop-color:#DBAE55;stop-color:color(display-p3 0.8582 0.6829 0.3324);stop-opacity:1;"/>
</linearGradient>
</defs>
</svg>
