<svg width="329" height="130" viewBox="0 0 329 130" fill="none" xmlns="http://www.w3.org/2000/svg">
<rect width="329" height="130" rx="12" fill="url(#paint0_linear_1973_5775)" style=""/>
<mask id="mask0_1973_5775" style="mask-type:alpha" maskUnits="userSpaceOnUse" x="235" y="17" width="94" height="95">
<path d="M235 17H317.784C323.978 17 329 22.0218 329 28.2164V112H235V17Z" fill="#D9D9D9" style="fill:#D9D9D9;fill:color(display-p3 0.8510 0.8510 0.8510);fill-opacity:1;"/>
</mask>
<g mask="url(#mask0_1973_5775)">
<g opacity="0.27">
<mask id="mask1_1973_5775" style="mask-type:alpha" maskUnits="userSpaceOnUse" x="237" y="0" width="110" height="109">
<rect x="237.745" y="0.53125" width="108.409" height="107.986" fill="#D9D9D9" style="fill:#D9D9D9;fill:color(display-p3 0.8510 0.8510 0.8510);fill-opacity:1;"/>
</mask>
<g mask="url(#mask1_1973_5775)">
<path d="M300.275 68.9909L284.905 84.1909C284.039 85.0475 282.864 85.5288 281.639 85.5288C280.414 85.5288 279.24 85.0475 278.373 84.1909C277.507 83.3342 277.021 82.1723 277.021 80.9609C277.021 79.7494 277.507 78.5875 278.373 77.7309L285.87 70.3247H253.978C252.756 70.3247 251.583 69.8442 250.718 68.9891C249.853 68.1339 249.368 66.974 249.368 65.7647C249.368 64.5553 249.853 63.3954 250.718 62.5402C251.583 61.6851 252.756 61.2047 253.978 61.2047H285.87L278.381 53.7908C277.952 53.3667 277.612 52.8631 277.38 52.3089C277.148 51.7547 277.028 51.1607 277.028 50.5608C277.028 49.3494 277.515 48.1875 278.381 47.3308C279.247 46.4742 280.422 45.9929 281.647 45.9929C282.872 45.9929 284.047 46.4742 284.913 47.3308L300.282 62.5308C300.712 62.955 301.052 63.4588 301.284 64.0133C301.516 64.5679 301.635 65.1623 301.635 65.7624C301.634 66.3626 301.514 66.9567 301.28 67.5107C301.047 68.0647 300.705 68.5677 300.275 68.9909ZM318.53 27.7646H297.013C295.79 27.7646 294.617 28.2451 293.752 29.1002C292.888 29.9554 292.402 31.1153 292.402 32.3246C292.402 33.534 292.888 34.6939 293.752 35.5491C294.617 36.4042 295.79 36.8846 297.013 36.8846H316.993V94.6447H297.013C295.79 94.6447 294.617 95.1251 293.752 95.9802C292.888 96.8354 292.402 97.9953 292.402 99.2047C292.402 100.414 292.888 101.574 293.752 102.429C294.617 103.284 295.79 103.765 297.013 103.765H318.53C320.568 103.765 322.522 102.964 323.964 101.539C325.405 100.113 326.214 98.1803 326.214 96.1647V35.3646C326.214 33.349 325.405 31.4159 323.964 29.9906C322.522 28.5654 320.568 27.7646 318.53 27.7646Z" fill="#304773" style="fill:#304773;fill:color(display-p3 0.1890 0.2783 0.4527);fill-opacity:1;"/>
</g>
</g>
</g>
<defs>
<linearGradient id="paint0_linear_1973_5775" x1="164.5" y1="-1.91996e-06" x2="192.122" y2="157.678" gradientUnits="userSpaceOnUse">
<stop stop-color="#7DA9FF" style="stop-color:#7DA9FF;stop-color:color(display-p3 0.4884 0.6623 1.0000);stop-opacity:1;"/>
<stop offset="1" stop-color="#5688E9" style="stop-color:#5688E9;stop-color:color(display-p3 0.3369 0.5335 0.9151);stop-opacity:1;"/>
</linearGradient>
</defs>
</svg>
