<svg width="268" height="209" viewBox="0 0 268 209" fill="none" xmlns="http://www.w3.org/2000/svg">
<rect y="1" width="268" height="208" rx="18" fill="url(#paint0_linear_1953_4824)" style=""/>
<mask id="mask0_1953_4824" style="mask-type:alpha" maskUnits="userSpaceOnUse" x="138" y="0" width="130" height="132">
<path d="M138 0H250C259.941 0 268 8.05888 268 18V132H138V0Z" fill="#D9D9D9" style="fill:#D9D9D9;fill:color(display-p3 0.8510 0.8510 0.8510);fill-opacity:1;"/>
</mask>
<g mask="url(#mask0_1953_4824)">
<g opacity="0.33">
<mask id="mask1_1953_4824" style="mask-type:alpha" maskUnits="userSpaceOnUse" x="160" y="-12" width="143" height="154">
<rect x="160" y="-11.7334" width="142.46" height="153.734" fill="#D9D9D9" style="fill:#D9D9D9;fill:color(display-p3 0.8510 0.8510 0.8510);fill-opacity:1;"/>
</mask>
<g mask="url(#mask1_1953_4824)">
<path d="M290.588 66.4246C290.588 68.4184 289.853 70.3305 288.544 71.7403C287.235 73.1502 285.46 73.9422 283.609 73.9422H232.426C230.575 73.9422 228.8 73.1502 227.491 71.7403C226.182 70.3305 225.447 68.4184 225.447 66.4246C225.447 64.4309 226.182 62.5188 227.491 61.1089C228.8 59.6991 230.575 58.9071 232.426 58.9071H283.609C285.46 58.9071 287.235 59.6991 288.544 61.1089C289.853 62.5188 290.588 64.4309 290.588 66.4246ZM232.426 33.8487H283.609C285.46 33.8487 287.235 33.0566 288.544 31.6468C289.853 30.237 290.588 28.3249 290.588 26.3311C290.588 24.3374 289.853 22.4252 288.544 21.0154C287.235 19.6056 285.46 18.8136 283.609 18.8136H232.426C230.575 18.8136 228.8 19.6056 227.491 21.0154C226.182 22.4252 225.447 24.3374 225.447 26.3311C225.447 28.3249 226.182 30.237 227.491 31.6468C228.8 33.0566 230.575 33.8487 232.426 33.8487ZM283.609 99.0006H232.426C230.575 99.0006 228.8 99.7927 227.491 101.202C226.182 102.612 225.447 104.524 225.447 106.518C225.447 108.512 226.182 110.424 227.491 111.834C228.8 113.244 230.575 114.036 232.426 114.036H283.609C285.46 114.036 287.235 113.244 288.544 111.834C289.853 110.424 290.588 108.512 290.588 106.518C290.588 104.524 289.853 102.612 288.544 101.202C287.235 99.7927 285.46 99.0006 283.609 99.0006ZM204.223 10.9891L190.549 25.7047L186.181 20.9937C184.87 19.5814 183.092 18.788 181.237 18.788C179.383 18.788 177.605 19.5814 176.294 20.9937C174.982 22.4059 174.246 24.3214 174.246 26.3186C174.246 28.3158 174.982 30.2313 176.294 31.6435L185.6 41.6669C186.248 42.3677 187.018 42.9238 187.867 43.3032C188.715 43.6827 189.625 43.878 190.543 43.878C191.462 43.878 192.372 43.6827 193.22 43.3032C194.068 42.9238 194.839 42.3677 195.487 41.6669L214.099 21.6201C215.41 20.2079 216.147 18.2925 216.147 16.2952C216.147 14.298 215.41 12.3826 214.099 10.9703C212.788 9.55804 211.01 8.76465 209.155 8.76465C207.301 8.76465 205.523 9.55804 204.211 10.9703L204.223 10.9891ZM204.223 51.0826L190.549 65.7982L186.181 61.0872C184.87 59.6749 183.092 58.8815 181.237 58.8815C179.383 58.8815 177.605 59.6749 176.294 61.0872C174.982 62.4995 174.246 64.4149 174.246 66.4121C174.246 68.4094 174.982 70.3248 176.294 71.737L185.6 81.7604C186.248 82.4613 187.018 83.0173 187.867 83.3968C188.715 83.7762 189.625 83.9715 190.543 83.9715C191.462 83.9715 192.372 83.7762 193.22 83.3968C194.068 83.0173 194.839 82.4613 195.487 81.7604L214.099 61.7137C215.41 60.3014 216.147 58.386 216.147 56.3887C216.147 54.3915 215.41 52.4761 214.099 51.0638C212.788 49.6516 211.01 48.8582 209.155 48.8582C207.301 48.8582 205.523 49.6516 204.211 51.0638L204.223 51.0826ZM204.223 91.1761L190.549 105.892L186.181 101.181C185.532 100.481 184.761 99.9267 183.913 99.5483C183.065 99.1699 182.156 98.9751 181.237 98.9751C180.319 98.9751 179.41 99.1699 178.562 99.5483C177.714 99.9267 176.943 100.481 176.294 101.181C175.644 101.88 175.129 102.71 174.778 103.624C174.427 104.537 174.246 105.517 174.246 106.506C174.246 107.495 174.427 108.474 174.778 109.387C175.129 110.301 175.644 111.131 176.294 111.831L185.6 121.854C186.248 122.555 187.018 123.111 187.867 123.49C188.715 123.87 189.625 124.065 190.543 124.065C191.462 124.065 192.372 123.87 193.22 123.49C194.068 123.111 194.839 122.555 195.487 121.854L214.099 101.807C215.41 100.395 216.147 98.4795 216.147 96.4823C216.147 94.485 215.41 92.5696 214.099 91.1573C212.788 89.7451 211.01 88.9517 209.155 88.9517C207.301 88.9517 205.523 89.7451 204.211 91.1573L204.223 91.1761Z" fill="#347847" style="fill:#347847;fill:color(display-p3 0.2024 0.4703 0.2780);fill-opacity:1;"/>
</g>
</g>
</g>
<defs>
<linearGradient id="paint0_linear_1953_4824" x1="17.5" y1="7.99999" x2="231" y2="230" gradientUnits="userSpaceOnUse">
<stop stop-color="#6BE78E" style="stop-color:#6BE78E;stop-color:color(display-p3 0.4215 0.9063 0.5572);stop-opacity:1;"/>
<stop offset="1" stop-color="#4BA263" style="stop-color:#4BA263;stop-color:color(display-p3 0.2947 0.6347 0.3899);stop-opacity:1;"/>
</linearGradient>
</defs>
</svg>
