<svg width="300" height="78" viewBox="0 0 300 78" fill="none" xmlns="http://www.w3.org/2000/svg">
<rect width="300" height="78" rx="12" fill="#2D0C73" style="fill:#2D0C73;fill:color(display-p3 0.1765 0.0471 0.4510);fill-opacity:1;"/>
<mask id="mask0_1576_1655" style="mask-type:alpha" maskUnits="userSpaceOnUse" x="0" y="0" width="52" height="78">
<path d="M52 78L12 78C5.37258 78 -4.69686e-07 72.6274 -1.04907e-06 66L-5.7699e-06 12C-6.34929e-06 5.37259 5.37257 4.0763e-06 12 3.49691e-06L52 0L52 78Z" fill="#D9D9D9" style="fill:#D9D9D9;fill:color(display-p3 0.8510 0.8510 0.8510);fill-opacity:1;"/>
</mask>
<g mask="url(#mask0_1576_1655)">
<g filter="url(#filter0_f_1576_1655)">
<circle cx="-13" cy="39" r="39" transform="rotate(180 -13 39)" fill="white" fill-opacity="0.38" style="fill:white;fill-opacity:0.38;"/>
</g>
</g>
<mask id="mask1_1576_1655" style="mask-type:alpha" maskUnits="userSpaceOnUse" x="248" y="0" width="52" height="78">
<path d="M248 0H288C294.627 0 300 5.37258 300 12V66C300 72.6274 294.627 78 288 78H248V0Z" fill="#D9D9D9" style="fill:#D9D9D9;fill:color(display-p3 0.8510 0.8510 0.8510);fill-opacity:1;"/>
</mask>
<g mask="url(#mask1_1576_1655)">
<g filter="url(#filter1_f_1576_1655)">
<circle cx="313" cy="39" r="39" fill="white" fill-opacity="0.38" style="fill:white;fill-opacity:0.38;"/>
</g>
</g>
<defs>
<filter id="filter0_f_1576_1655" x="-86.3" y="-34.3" width="146.6" height="146.6" filterUnits="userSpaceOnUse" color-interpolation-filters="sRGB">
<feFlood flood-opacity="0" result="BackgroundImageFix"/>
<feBlend mode="normal" in="SourceGraphic" in2="BackgroundImageFix" result="shape"/>
<feGaussianBlur stdDeviation="17.15" result="effect1_foregroundBlur_1576_1655"/>
</filter>
<filter id="filter1_f_1576_1655" x="239.7" y="-34.3" width="146.6" height="146.6" filterUnits="userSpaceOnUse" color-interpolation-filters="sRGB">
<feFlood flood-opacity="0" result="BackgroundImageFix"/>
<feBlend mode="normal" in="SourceGraphic" in2="BackgroundImageFix" result="shape"/>
<feGaussianBlur stdDeviation="17.15" result="effect1_foregroundBlur_1576_1655"/>
</filter>
</defs>
</svg>
