<svg width="440" height="267" viewBox="0 0 440 267" fill="none" xmlns="http://www.w3.org/2000/svg">
<path d="M0 18C0 8.05888 8.05888 0 18 0L421.024 0C430.966 0 439.024 8.05887 439.024 18L439.024 248.707C439.024 258.648 430.966 266.707 421.024 266.707L18 266.707C8.05888 266.707 0 258.648 0 248.707L0 18Z" fill="#14161A" style="fill:#14161A;fill:color(display-p3 0.0784 0.0863 0.1020);fill-opacity:1;"/>
<mask id="mask0_1549_2000" style="mask-type:alpha" maskUnits="userSpaceOnUse" x="0" y="0" width="167" height="267">
<rect x="167" y="266.293" width="167" height="266" rx="18" transform="rotate(-180 167 266.293)" fill="#D9D9D9" style="fill:#D9D9D9;fill:color(display-p3 0.8510 0.8510 0.8510);fill-opacity:1;"/>
</mask>
<g mask="url(#mask0_1549_2000)">
<g filter="url(#filter0_f_1549_2000)">
<ellipse cx="-39.5" cy="140.793" rx="77.5" ry="61.5" transform="rotate(-180 -39.5 140.793)" fill="#58FF6B" fill-opacity="0.7" style="fill:#58FF6B;fill:color(display-p3 0.3451 1.0000 0.4178);fill-opacity:0.7;"/>
</g>
</g>
<mask id="mask1_1549_2000" style="mask-type:alpha" maskUnits="userSpaceOnUse" x="272" y="0" width="167" height="267">
<rect x="272" y="0.292725" width="167" height="266" rx="18" fill="#D9D9D9" style="fill:#D9D9D9;fill:color(display-p3 0.8510 0.8510 0.8510);fill-opacity:1;"/>
</mask>
<g mask="url(#mask1_1549_2000)">
<g filter="url(#filter1_f_1549_2000)">
<ellipse cx="478.5" cy="125.793" rx="77.5" ry="61.5" fill="#58FF6B" fill-opacity="0.7" style="fill:#58FF6B;fill:color(display-p3 0.3451 1.0000 0.4178);fill-opacity:0.7;"/>
</g>
</g>
<defs>
<filter id="filter0_f_1549_2000" x="-243.9" y="-47.6073" width="408.8" height="376.8" filterUnits="userSpaceOnUse" color-interpolation-filters="sRGB">
<feFlood flood-opacity="0" result="BackgroundImageFix"/>
<feBlend mode="normal" in="SourceGraphic" in2="BackgroundImageFix" result="shape"/>
<feGaussianBlur stdDeviation="63.45" result="effect1_foregroundBlur_1549_2000"/>
</filter>
<filter id="filter1_f_1549_2000" x="274.1" y="-62.6073" width="408.8" height="376.8" filterUnits="userSpaceOnUse" color-interpolation-filters="sRGB">
<feFlood flood-opacity="0" result="BackgroundImageFix"/>
<feBlend mode="normal" in="SourceGraphic" in2="BackgroundImageFix" result="shape"/>
<feGaussianBlur stdDeviation="63.45" result="effect1_foregroundBlur_1549_2000"/>
</filter>
</defs>
</svg>
