<svg width="440" height="268" viewBox="0 0 440 268" fill="none" xmlns="http://www.w3.org/2000/svg">
<path d="M0 19C0 9.05888 8.05888 1 18 1L421.024 1C430.966 1 439.024 9.05887 439.024 19L439.024 249.707C439.024 259.648 430.966 267.707 421.024 267.707L18 267.707C8.05888 267.707 0 259.648 0 249.707L0 19Z" fill="url(#paint0_linear_1745_3063)" style=""/>
<mask id="mask0_1745_3063" style="mask-type:alpha" maskUnits="userSpaceOnUse" x="0" y="0" width="253" height="268">
<path d="M0 18.2927C0 8.35159 8.05887 0.292725 18 0.292725L235 0.292725C244.941 0.292725 253 8.3516 253 18.2927L253 249.293C253 259.234 244.941 267.293 235 267.293L18 267.293C8.05888 267.293 0 259.234 0 249.293L0 18.2927Z" fill="#222222" style="fill:#222222;fill:color(display-p3 0.1321 0.1321 0.1321);fill-opacity:1;"/>
</mask>
<g mask="url(#mask0_1745_3063)">
<g filter="url(#filter0_f_1745_3063)">
<ellipse cx="-43.5378" cy="151.532" rx="134.442" ry="133.575" transform="rotate(-34.5127 -43.5378 151.532)" fill="#FF6E30" fill-opacity="0.6" style="fill:#FF6E30;fill:color(display-p3 1.0000 0.4313 0.1875);fill-opacity:0.6;"/>
</g>
</g>
<defs>
<filter id="filter0_f_1745_3063" x="-283.815" y="-88.4342" width="480.554" height="479.932" filterUnits="userSpaceOnUse" color-interpolation-filters="sRGB">
<feFlood flood-opacity="0" result="BackgroundImageFix"/>
<feBlend mode="normal" in="SourceGraphic" in2="BackgroundImageFix" result="shape"/>
<feGaussianBlur stdDeviation="53.05" result="effect1_foregroundBlur_1745_3063"/>
</filter>
<linearGradient id="paint0_linear_1745_3063" x1="219.512" y1="1" x2="219.512" y2="267.707" gradientUnits="userSpaceOnUse">
<stop stop-color="#F3A60B" style="stop-color:#F3A60B;stop-color:color(display-p3 0.9529 0.6510 0.0431);stop-opacity:1;"/>
<stop offset="1" stop-color="#FBB937" style="stop-color:#FBB937;stop-color:color(display-p3 0.9843 0.7255 0.2157);stop-opacity:1;"/>
</linearGradient>
</defs>
</svg>
