<svg width="45" height="45" viewBox="0 0 45 45" fill="none" xmlns="http://www.w3.org/2000/svg">
<path d="M41.8315 17.2522C41.6272 16.6197 41.2433 16.0617 40.7276 15.6478C40.2119 15.2338 39.5871 14.9819 38.9308 14.9236L29.3515 14.0869L25.6038 5.06805C25.346 4.45473 24.9152 3.93159 24.365 3.56384C23.8148 3.19609 23.1696 3 22.5098 3C21.8501 3 21.2049 3.19609 20.6547 3.56384C20.1045 3.93159 19.6737 4.45473 19.4159 5.06805L15.6631 14.0869L6.08381 14.9236C5.42399 14.9788 4.79501 15.2295 4.27577 15.6444C3.75653 16.0592 3.37018 16.6196 3.16518 17.2554C2.96018 17.8912 2.94567 18.5739 3.12347 19.218C3.30126 19.862 3.66345 20.4387 4.16458 20.8756L11.4449 27.291L9.26011 36.836C9.11028 37.4859 9.15349 38.1661 9.38433 38.7914C9.61517 39.4167 10.0234 39.9594 10.558 40.3517C11.0926 40.7439 11.7298 40.9684 12.39 40.9969C13.0502 41.0254 13.7041 40.8568 14.2699 40.5121L22.5048 35.4613L30.7397 40.5121C31.3055 40.8563 31.9591 41.0244 32.619 40.9956C33.2789 40.9668 33.9158 40.7423 34.4501 40.3501C34.9844 39.958 35.3924 39.4155 35.6232 38.7905C35.854 38.1655 35.8973 37.4857 35.7478 36.836L33.563 27.291L40.8433 20.8756C41.3431 20.4371 41.7035 19.8593 41.8793 19.2146C42.0552 18.57 42.0385 17.8873 41.8315 17.2522ZM30.6136 24.4856C30.1527 24.8905 29.8098 25.4147 29.6218 26.0017C29.4338 26.5887 29.4077 27.2163 29.5464 27.8171L31.4606 36.1877L24.2442 31.7614C23.7201 31.4391 23.1184 31.2687 22.5048 31.2687C21.8912 31.2687 21.2895 31.4391 20.7654 31.7614L13.549 36.1877L15.4632 27.8171C15.6019 27.2163 15.5758 26.5887 15.3878 26.0017C15.1998 25.4147 14.8569 24.8905 14.396 24.4856L7.99463 18.8458L16.4211 18.1092C17.0313 18.0565 17.6154 17.8357 18.11 17.4709C18.6046 17.1061 18.9906 16.6113 19.226 16.0404L22.5048 8.15014L25.7836 16.0404C26.019 16.6113 26.405 17.1061 26.8996 17.4709C27.3942 17.8357 27.9783 18.0565 28.5885 18.1092L37.015 18.8458L30.6136 24.4856Z" fill="#144183" style="fill:#144183;fill:color(display-p3 0.0784 0.2549 0.5137);fill-opacity:1;"/>
</svg>
